STARTFONT 2.1
FONT -FontForge-Source Sans Pro-Bold-R-Normal-SansPro--16-160-72-72-P-83-ISO10646-1
SIZE 16 72 72
FONTBOUNDINGBOX 42 22 -7 -5
COMMENT "Generated by fontforge, http://fontforge.sourceforge.net"
COMMENT "Copyright 2010, 2012, 2014 Adobe Systems Incorporated (http://www.adobe.com/), with Reserved Font Name `Source'."
STARTPROPERTIES 40
FOUNDRY "FontForge"
FAMILY_NAME "Source Sans Pro"
WEIGHT_NAME "Bold"
SLANT "R"
SETWIDTH_NAME "Normal"
ADD_STYLE_NAME "SansPro"
PIXEL_SIZE 16
POINT_SIZE 160
RESOLUTION_X 72
RESOLUTION_Y 72
SPACING "P"
AVERAGE_WIDTH 83
CHARSET_REGISTRY "ISO10646"
CHARSET_ENCODING "1"
FONTNAME_REGISTRY ""
CHARSET_COLLECTIONS "ISO8859-2 ISO8859-5 ISO8859-7 ISO8859-9 ISO8859-4 ISO10646-1"
FONT_NAME "SourceSansPro-Bold"
FACE_NAME "Source Sans Pro Bold"
COPYRIGHT "Copyright 2010, 2012, 2014 Adobe Systems Incorporated (http://www.adobe.com/), with Reserved Font Name `Source'."
FONT_VERSION "2.021;PS 2.000;hotconv 1.0.86;makeotf.lib2.5.63406"
FONT_ASCENT 12
FONT_DESCENT 4
UNDERLINE_POSITION -2
UNDERLINE_THICKNESS 1
X_HEIGHT 7
CAP_HEIGHT 9
RAW_ASCENT 750
RAW_DESCENT 250
NORM_SPACE 3
RELATIVE_WEIGHT 70
RELATIVE_SETWIDTH 50
SUPERSCRIPT_X 0
SUPERSCRIPT_Y 5
SUPERSCRIPT_SIZE 9
SUBSCRIPT_X 0
SUBSCRIPT_Y 1
SUBSCRIPT_SIZE 9
FIGURE_WIDTH 8
AVG_LOWERCASE_WIDTH 85
AVG_UPPERCASE_WIDTH 102
ENDPROPERTIES
CHARS 1896
STARTCHAR space
ENCODING 32
SWIDTH 200 0
DWIDTH 3 0
BBX 1 1 0 0
BITMAP
00
ENDCHAR
STARTCHAR exclam
ENCODING 33
SWIDTH 340 0
DWIDTH 5 0
BBX 3 11 1 0
BITMAP
60
60
60
60
60
60
60
00
60
E0
60
ENDCHAR
STARTCHAR quotedbl
ENCODING 34
SWIDTH 536 0
DWIDTH 9 0
BBX 6 5 1 6
BITMAP
EC
EC
CC
4C
4C
ENDCHAR
STARTCHAR numbersign
ENCODING 35
SWIDTH 528 0
DWIDTH 8 0
BBX 7 11 1 0
BITMAP
24
24
6C
FE
FE
48
FE
FE
48
48
D8
ENDCHAR
STARTCHAR dollar
ENCODING 36
SWIDTH 528 0
DWIDTH 8 0
BBX 6 14 1 -2
BITMAP
30
30
78
FC
C8
E0
78
3C
0C
8C
FC
78
30
30
ENDCHAR
STARTCHAR percent
ENCODING 37
SWIDTH 857 0
DWIDTH 14 0
BBX 13 11 0 0
BITMAP
0040
78C0
4880
CD80
CD00
4B70
7AD8
06C8
04C8
08D8
1870
ENDCHAR
STARTCHAR ampersand
ENCODING 38
SWIDTH 667 0
DWIDTH 11 0
BBX 10 10 0 0
BITMAP
1C00
3E00
3600
36C0
3CC0
7DC0
6F80
E780
7FC0
3CC0
ENDCHAR
STARTCHAR quotesingle
ENCODING 39
SWIDTH 300 0
DWIDTH 5 0
BBX 3 5 1 6
BITMAP
E0
E0
C0
40
40
ENDCHAR
STARTCHAR parenleft
ENCODING 40
SWIDTH 344 0
DWIDTH 6 0
BBX 4 15 1 -3
BITMAP
20
70
60
60
C0
C0
C0
C0
C0
C0
C0
60
60
60
30
ENDCHAR
STARTCHAR parenright
ENCODING 41
SWIDTH 344 0
DWIDTH 6 0
BBX 3 15 1 -3
BITMAP
C0
C0
40
60
60
60
60
60
60
60
60
60
40
C0
C0
ENDCHAR
STARTCHAR asterisk
ENCODING 42
SWIDTH 457 0
DWIDTH 7 0
BBX 6 6 1 5
BITMAP
20
A8
FC
70
78
D0
ENDCHAR
STARTCHAR plus
ENCODING 43
SWIDTH 528 0
DWIDTH 8 0
BBX 7 8 1 1
BITMAP
30
30
30
FE
FE
30
30
30
ENDCHAR
STARTCHAR comma
ENCODING 44
SWIDTH 300 0
DWIDTH 5 0
BBX 3 5 1 -3
BITMAP
E0
E0
60
60
C0
ENDCHAR
STARTCHAR hyphen
ENCODING 45
SWIDTH 332 0
DWIDTH 5 0
BBX 4 2 1 3
BITMAP
F0
F0
ENDCHAR
STARTCHAR period
ENCODING 46
SWIDTH 300 0
DWIDTH 5 0
BBX 3 3 1 0
BITMAP
C0
E0
C0
ENDCHAR
STARTCHAR slash
ENCODING 47
SWIDTH 339 0
DWIDTH 5 0
BBX 5 14 0 -3
BITMAP
18
18
10
10
30
30
20
20
60
60
60
40
40
C0
ENDCHAR
STARTCHAR zero
ENCODING 48
SWIDTH 528 0
DWIDTH 8 0
BBX 7 10 1 0
BITMAP
78
FC
CC
C6
C6
C6
C6
CC
FC
78
ENDCHAR
STARTCHAR one
ENCODING 49
SWIDTH 528 0
DWIDTH 8 0
BBX 7 10 1 0
BITMAP
38
F8
F8
38
38
38
38
38
FE
FE
ENDCHAR
STARTCHAR two
ENCODING 50
SWIDTH 528 0
DWIDTH 8 0
BBX 8 10 0 0
BITMAP
3C
7E
C6
06
06
0C
1C
38
7F
7F
ENDCHAR
STARTCHAR three
ENCODING 51
SWIDTH 528 0
DWIDTH 8 0
BBX 8 10 0 0
BITMAP
3C
7E
46
06
1C
1E
07
47
FE
3C
ENDCHAR
STARTCHAR four
ENCODING 52
SWIDTH 528 0
DWIDTH 8 0
BBX 8 10 0 0
BITMAP
0E
1E
3E
36
66
66
FF
FF
06
06
ENDCHAR
STARTCHAR five
ENCODING 53
SWIDTH 528 0
DWIDTH 8 0
BBX 8 10 0 0
BITMAP
7E
7E
60
7C
7E
47
07
47
FE
3C
ENDCHAR
STARTCHAR six
ENCODING 54
SWIDTH 528 0
DWIDTH 8 0
BBX 7 10 1 0
BITMAP
3C
7E
C4
FC
FC
C6
C6
CE
7C
38
ENDCHAR
STARTCHAR seven
ENCODING 55
SWIDTH 528 0
DWIDTH 8 0
BBX 7 10 1 0
BITMAP
FE
FC
0C
18
18
30
30
30
30
30
ENDCHAR
STARTCHAR eight
ENCODING 56
SWIDTH 528 0
DWIDTH 8 0
BBX 7 10 1 0
BITMAP
78
FC
CC
FC
78
FC
CE
CE
FC
78
ENDCHAR
STARTCHAR nine
ENCODING 57
SWIDTH 528 0
DWIDTH 8 0
BBX 7 10 1 0
BITMAP
78
FC
CC
CE
FE
76
0E
8C
FC
78
ENDCHAR
STARTCHAR colon
ENCODING 58
SWIDTH 300 0
DWIDTH 5 0
BBX 3 8 1 0
BITMAP
C0
E0
C0
00
00
C0
E0
C0
ENDCHAR
STARTCHAR semicolon
ENCODING 59
SWIDTH 300 0
DWIDTH 5 0
BBX 3 11 1 -3
BITMAP
C0
E0
C0
00
00
00
E0
E0
60
60
C0
ENDCHAR
STARTCHAR less
ENCODING 60
SWIDTH 528 0
DWIDTH 8 0
BBX 7 7 1 2
BITMAP
02
1E
F8
C0
F8
1E
02
ENDCHAR
STARTCHAR equal
ENCODING 61
SWIDTH 528 0
DWIDTH 8 0
BBX 7 6 1 2
BITMAP
FE
FE
00
00
FE
FE
ENDCHAR
STARTCHAR greater
ENCODING 62
SWIDTH 528 0
DWIDTH 8 0
BBX 7 7 1 2
BITMAP
80
F0
3C
06
3C
F0
80
ENDCHAR
STARTCHAR question
ENCODING 63
SWIDTH 463 0
DWIDTH 7 0
BBX 6 11 1 0
BITMAP
78
FC
9C
1C
38
30
70
00
70
70
70
ENDCHAR
STARTCHAR at
ENCODING 64
SWIDTH 903 0
DWIDTH 14 0
BBX 13 14 1 -3
BITMAP
0FC0
1FE0
3870
6010
C698
CF98
9998
9B10
9FF0
CFE0
C000
7080
3F80
1F00
ENDCHAR
STARTCHAR A
ENCODING 65
SWIDTH 573 0
DWIDTH 9 0
BBX 9 10 0 0
BITMAP
1C00
1C00
3600
3600
3600
7300
7F00
7F00
E380
C180
ENDCHAR
STARTCHAR B
ENCODING 66
SWIDTH 605 0
DWIDTH 10 0
BBX 8 10 1 0
BITMAP
FC
FE
E7
E6
FE
FF
E3
E3
FF
FE
ENDCHAR
STARTCHAR C
ENCODING 67
SWIDTH 582 0
DWIDTH 9 0
BBX 8 10 1 0
BITMAP
3E
7F
E2
C0
C0
C0
C0
E2
7F
3E
ENDCHAR
STARTCHAR D
ENCODING 68
SWIDTH 635 0
DWIDTH 10 0
BBX 8 10 1 0
BITMAP
FC
FE
E7
E3
E3
E3
E3
E7
FE
FC
ENDCHAR
STARTCHAR E
ENCODING 69
SWIDTH 548 0
DWIDTH 9 0
BBX 7 10 1 0
BITMAP
FE
FE
E0
E0
FC
FC
E0
E0
FE
FE
ENDCHAR
STARTCHAR F
ENCODING 70
SWIDTH 524 0
DWIDTH 8 0
BBX 7 10 1 0
BITMAP
FE
FE
E0
E0
FC
FC
E0
E0
E0
E0
ENDCHAR
STARTCHAR G
ENCODING 71
SWIDTH 638 0
DWIDTH 10 0
BBX 8 10 1 0
BITMAP
3E
7F
E2
C0
CF
CF
C3
E3
7F
3E
ENDCHAR
STARTCHAR H
ENCODING 72
SWIDTH 674 0
DWIDTH 11 0
BBX 9 10 1 0
BITMAP
E380
E380
E380
E380
FF80
FF80
E380
E380
E380
E380
ENDCHAR
STARTCHAR I
ENCODING 73
SWIDTH 301 0
DWIDTH 5 0
BBX 3 10 1 0
BITMAP
E0
E0
E0
E0
E0
E0
E0
E0
E0
E0
ENDCHAR
STARTCHAR J
ENCODING 74
SWIDTH 509 0
DWIDTH 8 0
BBX 7 10 0 0
BITMAP
06
06
06
06
06
06
06
4E
FE
3C
ENDCHAR
STARTCHAR K
ENCODING 75
SWIDTH 614 0
DWIDTH 10 0
BBX 9 10 1 0
BITMAP
E700
E600
EC00
FC00
FC00
FC00
EE00
E600
E700
E380
ENDCHAR
STARTCHAR L
ENCODING 76
SWIDTH 518 0
DWIDTH 8 0
BBX 7 10 1 0
BITMAP
E0
E0
E0
E0
E0
E0
E0
E0
FE
FE
ENDCHAR
STARTCHAR M
ENCODING 77
SWIDTH 762 0
DWIDTH 12 0
BBX 10 10 1 0
BITMAP
E1C0
E1C0
F3C0
F3C0
DAC0
DEC0
DEC0
CCC0
CCC0
C0C0
ENDCHAR
STARTCHAR N
ENCODING 78
SWIDTH 665 0
DWIDTH 11 0
BBX 8 10 1 0
BITMAP
E3
E3
F3
DB
DB
CF
CF
C7
C7
C3
ENDCHAR
STARTCHAR O
ENCODING 79
SWIDTH 684 0
DWIDTH 11 0
BBX 9 10 1 0
BITMAP
3E00
7F00
E380
C180
C180
C180
C180
E380
7F00
3E00
ENDCHAR
STARTCHAR P
ENCODING 80
SWIDTH 596 0
DWIDTH 10 0
BBX 8 10 1 0
BITMAP
FC
FE
E7
E3
E7
FE
FC
E0
E0
E0
ENDCHAR
STARTCHAR Q
ENCODING 81
SWIDTH 684 0
DWIDTH 11 0
BBX 10 13 1 -3
BITMAP
3E00
7F00
E380
C180
C180
C180
C180
E380
7F00
3E00
0C00
0F80
03C0
ENDCHAR
STARTCHAR R
ENCODING 82
SWIDTH 613 0
DWIDTH 10 0
BBX 9 10 1 0
BITMAP
FE00
FF00
E300
E300
FF00
FC00
EE00
E600
E700
E380
ENDCHAR
STARTCHAR S
ENCODING 83
SWIDTH 556 0
DWIDTH 9 0
BBX 7 10 1 0
BITMAP
3C
FE
C4
E0
7C
3E
06
C6
FE
7C
ENDCHAR
STARTCHAR T
ENCODING 84
SWIDTH 556 0
DWIDTH 9 0
BBX 9 10 0 0
BITMAP
FF80
FF80
1C00
1C00
1C00
1C00
1C00
1C00
1C00
1C00
ENDCHAR
STARTCHAR U
ENCODING 85
SWIDTH 665 0
DWIDTH 11 0
BBX 8 10 1 0
BITMAP
E3
E3
E3
E3
E3
E3
E3
E3
7F
3E
ENDCHAR
STARTCHAR V
ENCODING 86
SWIDTH 556 0
DWIDTH 9 0
BBX 9 10 0 0
BITMAP
E380
E380
6300
6300
7700
3600
3600
3600
1C00
1C00
ENDCHAR
STARTCHAR W
ENCODING 87
SWIDTH 813 0
DWIDTH 13 0
BBX 13 10 0 0
BITMAP
E738
6738
6730
6530
65B0
6DB0
7DB0
3DE0
38E0
38E0
ENDCHAR
STARTCHAR X
ENCODING 88
SWIDTH 567 0
DWIDTH 9 0
BBX 9 10 0 0
BITMAP
E380
7300
3600
3E00
1C00
1C00
3600
3600
6300
E380
ENDCHAR
STARTCHAR Y
ENCODING 89
SWIDTH 525 0
DWIDTH 8 0
BBX 9 10 0 0
BITMAP
E380
6700
6600
3600
3C00
1C00
1800
1800
1800
1800
ENDCHAR
STARTCHAR Z
ENCODING 90
SWIDTH 541 0
DWIDTH 9 0
BBX 7 10 1 0
BITMAP
FE
FE
0C
18
18
30
60
60
FE
FE
ENDCHAR
STARTCHAR bracketleft
ENCODING 91
SWIDTH 344 0
DWIDTH 6 0
BBX 4 15 1 -3
BITMAP
F0
F0
C0
C0
C0
C0
C0
C0
C0
C0
C0
C0
C0
F0
F0
ENDCHAR
STARTCHAR backslash
ENCODING 92
SWIDTH 339 0
DWIDTH 5 0
BBX 5 14 0 -3
BITMAP
C0
40
60
60
60
20
20
30
30
10
10
18
18
08
ENDCHAR
STARTCHAR bracketright
ENCODING 93
SWIDTH 344 0
DWIDTH 6 0
BBX 3 15 1 -3
BITMAP
E0
E0
60
60
60
60
60
60
60
60
60
60
60
E0
E0
ENDCHAR
STARTCHAR asciicircum
ENCODING 94
SWIDTH 528 0
DWIDTH 8 0
BBX 7 6 1 4
BITMAP
30
38
78
6C
CC
C6
ENDCHAR
STARTCHAR underscore
ENCODING 95
SWIDTH 500 0
DWIDTH 8 0
BBX 8 2 0 -3
BITMAP
FF
FF
ENDCHAR
STARTCHAR grave
ENCODING 96
SWIDTH 555 0
DWIDTH 9 0
BBX 4 4 1 9
BITMAP
40
E0
30
10
ENDCHAR
STARTCHAR a
ENCODING 97
SWIDTH 527 0
DWIDTH 8 0
BBX 6 8 1 0
BITMAP
78
FC
8C
3C
FC
CC
FC
FC
ENDCHAR
STARTCHAR b
ENCODING 98
SWIDTH 573 0
DWIDTH 9 0
BBX 8 11 1 0
BITMAP
C0
C0
C0
DC
FE
E6
C7
C7
E6
FE
DC
ENDCHAR
STARTCHAR c
ENCODING 99
SWIDTH 467 0
DWIDTH 7 0
BBX 6 8 1 0
BITMAP
38
FC
E0
C0
C0
E8
FC
78
ENDCHAR
STARTCHAR d
ENCODING 100
SWIDTH 573 0
DWIDTH 9 0
BBX 7 11 1 0
BITMAP
06
06
06
7E
FE
C6
C6
C6
CE
FE
76
ENDCHAR
STARTCHAR e
ENCODING 101
SWIDTH 518 0
DWIDTH 8 0
BBX 7 8 1 0
BITMAP
78
FC
C6
FE
FE
C4
FC
7C
ENDCHAR
STARTCHAR f
ENCODING 102
SWIDTH 341 0
DWIDTH 5 0
BBX 6 11 0 0
BITMAP
3C
3C
70
F8
F8
70
70
70
70
70
70
ENDCHAR
STARTCHAR g
ENCODING 103
SWIDTH 534 0
DWIDTH 9 0
BBX 7 11 1 -3
BITMAP
7E
FE
CC
FC
F8
C0
FE
7E
86
FE
FC
ENDCHAR
STARTCHAR h
ENCODING 104
SWIDTH 571 0
DWIDTH 9 0
BBX 7 11 1 0
BITMAP
C0
C0
C0
DC
FE
E6
C6
C6
C6
C6
C6
ENDCHAR
STARTCHAR i
ENCODING 105
SWIDTH 276 0
DWIDTH 4 0
BBX 3 11 1 0
BITMAP
E0
C0
00
C0
C0
C0
C0
C0
C0
C0
C0
ENDCHAR
STARTCHAR j
ENCODING 106
SWIDTH 278 0
DWIDTH 4 0
BBX 5 14 -1 -3
BITMAP
38
30
00
30
30
30
30
30
30
30
30
30
F0
E0
ENDCHAR
STARTCHAR k
ENCODING 107
SWIDTH 548 0
DWIDTH 9 0
BBX 8 11 1 0
BITMAP
C0
C0
C0
C6
CC
D8
F8
F8
EC
CE
C7
ENDCHAR
STARTCHAR l
ENCODING 108
SWIDTH 286 0
DWIDTH 5 0
BBX 3 11 1 0
BITMAP
C0
C0
C0
C0
C0
C0
C0
C0
C0
E0
60
ENDCHAR
STARTCHAR m
ENCODING 109
SWIDTH 857 0
DWIDTH 14 0
BBX 12 8 1 0
BITMAP
DCE0
FFE0
E770
C670
C670
C670
C670
C670
ENDCHAR
STARTCHAR n
ENCODING 110
SWIDTH 572 0
DWIDTH 9 0
BBX 7 8 1 0
BITMAP
DC
FE
E6
C6
C6
C6
C6
C6
ENDCHAR
STARTCHAR o
ENCODING 111
SWIDTH 555 0
DWIDTH 9 0
BBX 7 8 1 0
BITMAP
78
FE
C6
C6
C6
C6
FE
78
ENDCHAR
STARTCHAR p
ENCODING 112
SWIDTH 573 0
DWIDTH 9 0
BBX 8 11 1 -3
BITMAP
DC
FE
E6
C7
C7
E6
FE
DC
C0
C0
C0
ENDCHAR
STARTCHAR q
ENCODING 113
SWIDTH 573 0
DWIDTH 9 0
BBX 7 11 1 -3
BITMAP
7E
FE
CE
C6
C6
C6
FE
76
06
06
06
ENDCHAR
STARTCHAR r
ENCODING 114
SWIDTH 398 0
DWIDTH 6 0
BBX 5 8 1 0
BITMAP
D8
F8
E0
C0
C0
C0
C0
C0
ENDCHAR
STARTCHAR s
ENCODING 115
SWIDTH 443 0
DWIDTH 7 0
BBX 7 8 0 0
BITMAP
3C
7E
64
78
1C
4E
FC
78
ENDCHAR
STARTCHAR t
ENCODING 116
SWIDTH 383 0
DWIDTH 6 0
BBX 6 11 0 0
BITMAP
30
30
30
FC
FC
70
70
70
70
3C
3C
ENDCHAR
STARTCHAR u
ENCODING 117
SWIDTH 568 0
DWIDTH 9 0
BBX 7 8 1 0
BITMAP
C6
C6
C6
C6
C6
CE
FE
76
ENDCHAR
STARTCHAR v
ENCODING 118
SWIDTH 523 0
DWIDTH 8 0
BBX 8 8 0 0
BITMAP
E3
63
66
76
36
3C
3C
1C
ENDCHAR
STARTCHAR w
ENCODING 119
SWIDTH 776 0
DWIDTH 12 0
BBX 12 8 0 0
BITMAP
E630
6730
6760
6F60
3D60
3DE0
39C0
39C0
ENDCHAR
STARTCHAR x
ENCODING 120
SWIDTH 514 0
DWIDTH 8 0
BBX 8 8 0 0
BITMAP
E7
76
3C
3C
3C
3C
66
E7
ENDCHAR
STARTCHAR y
ENCODING 121
SWIDTH 521 0
DWIDTH 8 0
BBX 8 11 0 -3
BITMAP
E3
67
66
36
36
3C
1C
1C
18
78
70
ENDCHAR
STARTCHAR z
ENCODING 122
SWIDTH 460 0
DWIDTH 7 0
BBX 6 8 1 0
BITMAP
FC
FC
18
30
70
60
FC
FC
ENDCHAR
STARTCHAR braceleft
ENCODING 123
SWIDTH 344 0
DWIDTH 6 0
BBX 5 15 0 -3
BITMAP
38
38
30
30
30
30
30
E0
E0
30
30
30
30
38
38
ENDCHAR
STARTCHAR bar
ENCODING 124
SWIDTH 268 0
DWIDTH 4 0
BBX 2 16 1 -4
BITMAP
C0
C0
C0
C0
C0
C0
C0
C0
C0
C0
C0
C0
C0
C0
C0
C0
ENDCHAR
STARTCHAR braceright
ENCODING 125
SWIDTH 344 0
DWIDTH 6 0
BBX 4 15 1 -3
BITMAP
C0
E0
60
60
60
60
60
70
70
60
60
60
60
E0
C0
ENDCHAR
STARTCHAR asciitilde
ENCODING 126
SWIDTH 528 0
DWIDTH 8 0
BBX 8 4 0 3
BITMAP
30
7A
CF
06
ENDCHAR
STARTCHAR uni00A0
ENCODING 160
SWIDTH 208 0
DWIDTH 3 0
BBX 1 1 0 0
BITMAP
00
ENDCHAR
STARTCHAR exclamdown
ENCODING 161
SWIDTH 340 0
DWIDTH 5 0
BBX 3 11 1 -3
BITMAP
60
E0
60
00
60
60
60
60
60
60
60
ENDCHAR
STARTCHAR cent
ENCODING 162
SWIDTH 528 0
DWIDTH 8 0
BBX 7 12 1 -1
BITMAP
18
18
3C
7E
F8
D8
D8
F8
7C
3E
18
18
ENDCHAR
STARTCHAR sterling
ENCODING 163
SWIDTH 528 0
DWIDTH 8 0
BBX 7 10 1 0
BITMAP
3C
7E
64
60
60
FC
70
60
FE
FE
ENDCHAR
STARTCHAR currency
ENCODING 164
SWIDTH 528 0
DWIDTH 8 0
BBX 8 8 0 1
BITMAP
42
FF
7E
67
67
7E
FF
42
ENDCHAR
STARTCHAR yen
ENCODING 165
SWIDTH 528 0
DWIDTH 8 0
BBX 8 10 0 0
BITMAP
E3
67
76
36
3C
7F
18
7F
18
18
ENDCHAR
STARTCHAR brokenbar
ENCODING 166
SWIDTH 268 0
DWIDTH 4 0
BBX 2 16 1 -4
BITMAP
C0
C0
C0
C0
C0
C0
C0
00
00
C0
C0
C0
C0
C0
C0
C0
ENDCHAR
STARTCHAR section
ENCODING 167
SWIDTH 528 0
DWIDTH 8 0
BBX 7 12 1 -1
BITMAP
78
7C
E8
70
FC
CE
C6
7E
1C
8C
FC
F8
ENDCHAR
STARTCHAR dieresis
ENCODING 168
SWIDTH 555 0
DWIDTH 9 0
BBX 5 2 2 9
BITMAP
D8
D8
ENDCHAR
STARTCHAR copyright
ENCODING 169
SWIDTH 750 0
DWIDTH 12 0
BBX 10 12 1 0
BITMAP
1E00
7F80
6180
DEC0
BE40
B440
B240
BE40
DEC0
6180
7F80
1E00
ENDCHAR
STARTCHAR ordfeminine
ENCODING 170
SWIDTH 359 0
DWIDTH 6 0
BBX 5 5 0 6
BITMAP
78
18
78
D8
78
ENDCHAR
STARTCHAR guillemotleft
ENCODING 171
SWIDTH 480 0
DWIDTH 8 0
BBX 6 6 1 1
BITMAP
6C
D8
90
90
D8
6C
ENDCHAR
STARTCHAR logicalnot
ENCODING 172
SWIDTH 528 0
DWIDTH 8 0
BBX 7 5 1 1
BITMAP
FE
FE
06
06
06
ENDCHAR
STARTCHAR uni00AD
ENCODING 173
SWIDTH 332 0
DWIDTH 5 0
BBX 4 2 1 3
BITMAP
F0
F0
ENDCHAR
STARTCHAR registered
ENCODING 174
SWIDTH 462 0
DWIDTH 7 0
BBX 6 7 1 5
BITMAP
70
88
F4
F4
D4
88
70
ENDCHAR
STARTCHAR macron
ENCODING 175
SWIDTH 555 0
DWIDTH 9 0
BBX 5 1 2 9
BITMAP
F8
ENDCHAR
STARTCHAR degree
ENCODING 176
SWIDTH 365 0
DWIDTH 6 0
BBX 4 5 1 6
BITMAP
E0
F0
90
F0
E0
ENDCHAR
STARTCHAR plusminus
ENCODING 177
SWIDTH 528 0
DWIDTH 8 0
BBX 7 10 1 0
BITMAP
30
30
30
FE
FE
30
30
00
FE
FE
ENDCHAR
STARTCHAR two.sups
ENCODING 178
SWIDTH 376 0
DWIDTH 6 0
BBX 5 6 0 6
BITMAP
70
D8
18
18
30
78
ENDCHAR
STARTCHAR three.sups
ENCODING 179
SWIDTH 376 0
DWIDTH 6 0
BBX 5 6 0 6
BITMAP
78
38
38
08
48
F0
ENDCHAR
STARTCHAR acute
ENCODING 180
SWIDTH 555 0
DWIDTH 9 0
BBX 5 4 3 9
BITMAP
20
30
68
C0
ENDCHAR
STARTCHAR uni00B5
ENCODING 181
SWIDTH 594 0
DWIDTH 10 0
BBX 8 10 1 -2
BITMAP
C6
C6
C6
C6
C6
EE
FF
F7
C0
C0
ENDCHAR
STARTCHAR paragraph
ENCODING 182
SWIDTH 636 0
DWIDTH 10 0
BBX 8 12 1 -2
BITMAP
77
F7
F7
F7
F7
F7
77
07
07
07
07
07
ENDCHAR
STARTCHAR periodcentered
ENCODING 183
SWIDTH 300 0
DWIDTH 5 0
BBX 3 3 1 4
BITMAP
C0
E0
C0
ENDCHAR
STARTCHAR cedilla
ENCODING 184
SWIDTH 555 0
DWIDTH 9 0
BBX 3 4 3 -4
BITMAP
40
E0
60
C0
ENDCHAR
STARTCHAR one.sups
ENCODING 185
SWIDTH 376 0
DWIDTH 6 0
BBX 3 6 1 6
BITMAP
60
E0
20
20
20
20
ENDCHAR
STARTCHAR ordmasculine
ENCODING 186
SWIDTH 373 0
DWIDTH 6 0
BBX 6 5 0 6
BITMAP
78
48
CC
48
78
ENDCHAR
STARTCHAR guillemotright
ENCODING 187
SWIDTH 480 0
DWIDTH 8 0
BBX 6 6 1 1
BITMAP
90
C8
6C
6C
C8
90
ENDCHAR
STARTCHAR onequarter
ENCODING 188
SWIDTH 809 0
DWIDTH 13 0
BBX 12 11 1 0
BITMAP
0180
6100
E300
6200
6600
64E0
6CE0
09E0
1960
13F0
3060
ENDCHAR
STARTCHAR onehalf
ENCODING 189
SWIDTH 846 0
DWIDTH 14 0
BBX 12 11 1 0
BITMAP
0180
6100
E200
6200
6400
65E0
6930
0830
1060
3040
21F0
ENDCHAR
STARTCHAR threequarters
ENCODING 190
SWIDTH 818 0
DWIDTH 13 0
BBX 13 11 0 0
BITMAP
0040
78C0
7880
3980
0900
4A30
F250
04D0
04B0
08F8
1830
ENDCHAR
STARTCHAR questiondown
ENCODING 191
SWIDTH 463 0
DWIDTH 7 0
BBX 6 11 1 -3
BITMAP
30
70
30
00
30
70
60
C0
C8
FC
78
ENDCHAR
STARTCHAR Agrave
ENCODING 192
SWIDTH 573 0
DWIDTH 9 0
BBX 9 14 0 0
BITMAP
1000
3800
0C00
0000
1C00
1C00
3600
3600
3600
7300
7F00
7F00
E380
C180
ENDCHAR
STARTCHAR Aacute
ENCODING 193
SWIDTH 573 0
DWIDTH 9 0
BBX 9 14 0 0
BITMAP
0600
0E00
1800
0000
1C00
1C00
3600
3600
3600
7300
7F00
7F00
E380
C180
ENDCHAR
STARTCHAR Acircumflex
ENCODING 194
SWIDTH 573 0
DWIDTH 9 0
BBX 9 13 0 0
BITMAP
1C00
3600
0000
1C00
1C00
3600
3600
3600
7300
7F00
7F00
E380
C180
ENDCHAR
STARTCHAR Atilde
ENCODING 195
SWIDTH 573 0
DWIDTH 9 0
BBX 9 14 0 0
BITMAP
3B00
3F00
6E00
0000
1C00
1C00
3600
3600
3600
7300
7F00
7F00
E380
C180
ENDCHAR
STARTCHAR Adieresis
ENCODING 196
SWIDTH 573 0
DWIDTH 9 0
BBX 9 13 0 0
BITMAP
3600
3600
0000
1C00
1C00
3600
3600
3600
7300
7F00
7F00
E380
C180
ENDCHAR
STARTCHAR Aring
ENCODING 197
SWIDTH 573 0
DWIDTH 9 0
BBX 9 14 0 0
BITMAP
1C00
1400
1C00
0000
1C00
1C00
3600
3600
3600
7300
7F00
7F00
E380
C180
ENDCHAR
STARTCHAR AE
ENCODING 198
SWIDTH 845 0
DWIDTH 14 0
BBX 13 10 0 0
BITMAP
0FF8
0FF8
1F80
1B80
1BF0
33F0
3F80
7F80
63F8
E3F8
ENDCHAR
STARTCHAR Ccedilla
ENCODING 199
SWIDTH 582 0
DWIDTH 9 0
BBX 8 14 1 -4
BITMAP
3E
7F
E2
C0
C0
C0
C0
E2
7F
3E
08
1C
0C
18
ENDCHAR
STARTCHAR Egrave
ENCODING 200
SWIDTH 548 0
DWIDTH 9 0
BBX 7 14 1 0
BITMAP
20
70
18
00
FE
FE
E0
E0
FC
FC
E0
E0
FE
FE
ENDCHAR
STARTCHAR Eacute
ENCODING 201
SWIDTH 548 0
DWIDTH 9 0
BBX 7 14 1 0
BITMAP
0C
1C
30
00
FE
FE
E0
E0
FC
FC
E0
E0
FE
FE
ENDCHAR
STARTCHAR Ecircumflex
ENCODING 202
SWIDTH 548 0
DWIDTH 9 0
BBX 7 13 1 0
BITMAP
38
64
00
FE
FE
E0
E0
FC
FC
E0
E0
FE
FE
ENDCHAR
STARTCHAR Edieresis
ENCODING 203
SWIDTH 548 0
DWIDTH 9 0
BBX 7 13 1 0
BITMAP
6C
6E
00
FE
FE
E0
E0
FC
FC
E0
E0
FE
FE
ENDCHAR
STARTCHAR Igrave
ENCODING 204
SWIDTH 301 0
DWIDTH 5 0
BBX 4 14 0 0
BITMAP
C0
E0
30
00
70
70
70
70
70
70
70
70
70
70
ENDCHAR
STARTCHAR Iacute
ENCODING 205
SWIDTH 301 0
DWIDTH 5 0
BBX 4 14 1 0
BITMAP
20
70
C0
00
E0
E0
E0
E0
E0
E0
E0
E0
E0
E0
ENDCHAR
STARTCHAR Icircumflex
ENCODING 206
SWIDTH 301 0
DWIDTH 5 0
BBX 5 13 0 0
BITMAP
70
98
00
70
70
70
70
70
70
70
70
70
70
ENDCHAR
STARTCHAR Idieresis
ENCODING 207
SWIDTH 301 0
DWIDTH 5 0
BBX 5 13 0 0
BITMAP
D8
D8
00
70
70
70
70
70
70
70
70
70
70
ENDCHAR
STARTCHAR Eth
ENCODING 208
SWIDTH 660 0
DWIDTH 11 0
BBX 10 10 0 0
BITMAP
3E00
3F80
3380
FDC0
FDC0
31C0
31C0
3380
3F80
3E00
ENDCHAR
STARTCHAR Ntilde
ENCODING 209
SWIDTH 665 0
DWIDTH 11 0
BBX 8 14 1 0
BITMAP
33
7E
6E
00
E3
E3
F3
DB
DB
CF
CF
C7
C7
C3
ENDCHAR
STARTCHAR Ograve
ENCODING 210
SWIDTH 684 0
DWIDTH 11 0
BBX 9 14 1 0
BITMAP
3000
3800
0C00
0000
3E00
7F00
E380
C180
C180
C180
C180
E380
7F00
3E00
ENDCHAR
STARTCHAR Oacute
ENCODING 211
SWIDTH 684 0
DWIDTH 11 0
BBX 9 14 1 0
BITMAP
0400
0E00
1800
0000
3E00
7F00
E380
C180
C180
C180
C180
E380
7F00
3E00
ENDCHAR
STARTCHAR Ocircumflex
ENCODING 212
SWIDTH 684 0
DWIDTH 11 0
BBX 9 13 1 0
BITMAP
1C00
3600
0000
3E00
7F00
E380
C180
C180
C180
C180
E380
7F00
3E00
ENDCHAR
STARTCHAR Otilde
ENCODING 213
SWIDTH 684 0
DWIDTH 11 0
BBX 9 14 1 0
BITMAP
3300
3F00
6E00
0000
3E00
7F00
E380
C180
C180
C180
C180
E380
7F00
3E00
ENDCHAR
STARTCHAR Odieresis
ENCODING 214
SWIDTH 684 0
DWIDTH 11 0
BBX 9 13 1 0
BITMAP
3600
3600
0000
3E00
7F00
E380
C180
C180
C180
C180
E380
7F00
3E00
ENDCHAR
STARTCHAR multiply
ENCODING 215
SWIDTH 528 0
DWIDTH 8 0
BBX 7 7 1 2
BITMAP
84
CE
78
30
78
CC
86
ENDCHAR
STARTCHAR Oslash
ENCODING 216
SWIDTH 684 0
DWIDTH 11 0
BBX 10 12 1 -1
BITMAP
0100
3EC0
7F80
E380
C780
CD80
D980
F180
E380
7F00
FE00
8000
ENDCHAR
STARTCHAR Ugrave
ENCODING 217
SWIDTH 665 0
DWIDTH 11 0
BBX 8 14 1 0
BITMAP
20
38
0C
00
E3
E3
E3
E3
E3
E3
E3
E3
7F
3E
ENDCHAR
STARTCHAR Uacute
ENCODING 218
SWIDTH 665 0
DWIDTH 11 0
BBX 8 14 1 0
BITMAP
04
0E
18
00
E3
E3
E3
E3
E3
E3
E3
E3
7F
3E
ENDCHAR
STARTCHAR Ucircumflex
ENCODING 219
SWIDTH 665 0
DWIDTH 11 0
BBX 8 13 1 0
BITMAP
1C
26
00
E3
E3
E3
E3
E3
E3
E3
E3
7F
3E
ENDCHAR
STARTCHAR Udieresis
ENCODING 220
SWIDTH 665 0
DWIDTH 11 0
BBX 8 13 1 0
BITMAP
36
76
00
E3
E3
E3
E3
E3
E3
E3
E3
7F
3E
ENDCHAR
STARTCHAR Yacute
ENCODING 221
SWIDTH 525 0
DWIDTH 8 0
BBX 9 14 0 0
BITMAP
0400
0E00
1800
0000
E380
6700
6600
3600
3C00
1C00
1800
1800
1800
1800
ENDCHAR
STARTCHAR Thorn
ENCODING 222
SWIDTH 617 0
DWIDTH 10 0
BBX 8 10 1 0
BITMAP
E0
FE
FF
E3
E3
E7
FF
FC
E0
E0
ENDCHAR
STARTCHAR germandbls
ENCODING 223
SWIDTH 632 0
DWIDTH 10 0
BBX 9 11 1 0
BITMAP
3C00
7E00
E600
C600
CC00
CC00
CF00
C700
D180
CF00
DF00
ENDCHAR
STARTCHAR agrave
ENCODING 224
SWIDTH 527 0
DWIDTH 8 0
BBX 6 13 1 0
BITMAP
40
E0
70
10
00
78
FC
8C
3C
FC
CC
FC
FC
ENDCHAR
STARTCHAR aacute
ENCODING 225
SWIDTH 527 0
DWIDTH 8 0
BBX 6 13 1 0
BITMAP
08
0C
18
30
00
78
FC
8C
3C
FC
CC
FC
FC
ENDCHAR
STARTCHAR acircumflex
ENCODING 226
SWIDTH 527 0
DWIDTH 8 0
BBX 6 12 1 0
BITMAP
38
7C
C4
00
78
FC
8C
3C
FC
CC
FC
FC
ENDCHAR
STARTCHAR atilde
ENCODING 227
SWIDTH 527 0
DWIDTH 8 0
BBX 6 12 1 0
BITMAP
64
7C
DC
00
78
FC
8C
3C
FC
CC
FC
FC
ENDCHAR
STARTCHAR adieresis
ENCODING 228
SWIDTH 527 0
DWIDTH 8 0
BBX 6 11 1 0
BITMAP
6C
6C
00
78
FC
8C
3C
FC
CC
FC
FC
ENDCHAR
STARTCHAR aring
ENCODING 229
SWIDTH 527 0
DWIDTH 8 0
BBX 6 12 1 0
BITMAP
38
6C
38
00
78
FC
8C
3C
FC
CC
FC
FC
ENDCHAR
STARTCHAR ae
ENCODING 230
SWIDTH 786 0
DWIDTH 13 0
BBX 11 8 1 0
BITMAP
7BC0
FFC0
8C60
3FE0
FFE0
CE40
FFC0
73E0
ENDCHAR
STARTCHAR ccedilla
ENCODING 231
SWIDTH 467 0
DWIDTH 7 0
BBX 6 12 1 -4
BITMAP
38
FC
E0
C0
C0
E8
FC
78
10
38
18
30
ENDCHAR
STARTCHAR egrave
ENCODING 232
SWIDTH 518 0
DWIDTH 8 0
BBX 7 13 1 0
BITMAP
40
E0
70
10
00
78
FC
C6
FE
FE
C4
FC
7C
ENDCHAR
STARTCHAR eacute
ENCODING 233
SWIDTH 518 0
DWIDTH 8 0
BBX 7 13 1 0
BITMAP
08
1C
18
30
00
78
FC
C6
FE
FE
C4
FC
7C
ENDCHAR
STARTCHAR ecircumflex
ENCODING 234
SWIDTH 518 0
DWIDTH 8 0
BBX 7 12 1 0
BITMAP
38
7C
C4
00
78
FC
C6
FE
FE
C4
FC
7C
ENDCHAR
STARTCHAR edieresis
ENCODING 235
SWIDTH 518 0
DWIDTH 8 0
BBX 7 11 1 0
BITMAP
6C
EC
00
78
FC
C6
FE
FE
C4
FC
7C
ENDCHAR
STARTCHAR igrave
ENCODING 236
SWIDTH 276 0
DWIDTH 4 0
BBX 4 13 -1 0
BITMAP
40
E0
70
30
00
30
30
30
30
30
30
30
30
ENDCHAR
STARTCHAR iacute
ENCODING 237
SWIDTH 276 0
DWIDTH 4 0
BBX 4 13 1 0
BITMAP
20
70
60
C0
00
C0
C0
C0
C0
C0
C0
C0
C0
ENDCHAR
STARTCHAR icircumflex
ENCODING 238
SWIDTH 276 0
DWIDTH 4 0
BBX 6 12 -1 0
BITMAP
38
7C
C4
00
30
30
30
30
30
30
30
30
ENDCHAR
STARTCHAR idieresis
ENCODING 239
SWIDTH 276 0
DWIDTH 4 0
BBX 6 11 -1 0
BITMAP
CC
EC
00
30
30
30
30
30
30
30
30
ENDCHAR
STARTCHAR eth
ENCODING 240
SWIDTH 560 0
DWIDTH 9 0
BBX 7 11 1 0
BITMAP
64
7E
38
FC
0E
7E
FE
C6
C6
FC
78
ENDCHAR
STARTCHAR ntilde
ENCODING 241
SWIDTH 572 0
DWIDTH 9 0
BBX 7 12 1 0
BITMAP
36
7E
4E
00
DC
FE
E6
C6
C6
C6
C6
C6
ENDCHAR
STARTCHAR ograve
ENCODING 242
SWIDTH 555 0
DWIDTH 9 0
BBX 7 13 1 0
BITMAP
40
E0
30
10
00
78
FE
C6
C6
C6
C6
FE
78
ENDCHAR
STARTCHAR oacute
ENCODING 243
SWIDTH 555 0
DWIDTH 9 0
BBX 7 13 1 0
BITMAP
08
0C
1A
30
00
78
FE
C6
C6
C6
C6
FE
78
ENDCHAR
STARTCHAR ocircumflex
ENCODING 244
SWIDTH 555 0
DWIDTH 9 0
BBX 7 12 1 0
BITMAP
38
7C
44
00
78
FE
C6
C6
C6
C6
FE
78
ENDCHAR
STARTCHAR otilde
ENCODING 245
SWIDTH 555 0
DWIDTH 9 0
BBX 7 12 1 0
BITMAP
64
7C
DC
00
78
FE
C6
C6
C6
C6
FE
78
ENDCHAR
STARTCHAR odieresis
ENCODING 246
SWIDTH 555 0
DWIDTH 9 0
BBX 7 11 1 0
BITMAP
6C
6C
00
78
FE
C6
C6
C6
C6
FE
78
ENDCHAR
STARTCHAR divide
ENCODING 247
SWIDTH 528 0
DWIDTH 8 0
BBX 7 8 1 1
BITMAP
30
38
00
FE
FE
10
38
30
ENDCHAR
STARTCHAR oslash
ENCODING 248
SWIDTH 555 0
DWIDTH 9 0
BBX 7 8 1 0
BITMAP
7A
FE
CE
DE
F6
E6
FE
B8
ENDCHAR
STARTCHAR ugrave
ENCODING 249
SWIDTH 568 0
DWIDTH 9 0
BBX 7 13 1 0
BITMAP
20
60
B0
18
00
C6
C6
C6
C6
C6
CE
FE
76
ENDCHAR
STARTCHAR uacute
ENCODING 250
SWIDTH 568 0
DWIDTH 9 0
BBX 7 13 1 0
BITMAP
04
0E
18
10
00
C6
C6
C6
C6
C6
CE
FE
76
ENDCHAR
STARTCHAR ucircumflex
ENCODING 251
SWIDTH 568 0
DWIDTH 9 0
BBX 7 12 1 0
BITMAP
38
7C
44
00
C6
C6
C6
C6
C6
CE
FE
76
ENDCHAR
STARTCHAR udieresis
ENCODING 252
SWIDTH 568 0
DWIDTH 9 0
BBX 7 11 1 0
BITMAP
6C
6C
00
C6
C6
C6
C6
C6
CE
FE
76
ENDCHAR
STARTCHAR yacute
ENCODING 253
SWIDTH 521 0
DWIDTH 8 0
BBX 8 16 0 -3
BITMAP
04
0E
0C
18
00
E3
67
66
36
36
3C
1C
1C
18
78
70
ENDCHAR
STARTCHAR thorn
ENCODING 254
SWIDTH 573 0
DWIDTH 9 0
BBX 8 14 1 -3
BITMAP
C0
C0
C0
DC
FE
E6
C7
C7
E6
FE
DC
C0
C0
C0
ENDCHAR
STARTCHAR ydieresis
ENCODING 255
SWIDTH 521 0
DWIDTH 8 0
BBX 8 14 0 -3
BITMAP
76
76
00
E3
67
66
36
36
3C
1C
1C
18
78
70
ENDCHAR
STARTCHAR Amacron
ENCODING 256
SWIDTH 573 0
DWIDTH 9 0
BBX 9 13 0 0
BITMAP
3E00
3E00
0000
1C00
1C00
3600
3600
3600
7300
7F00
7F00
E380
C180
ENDCHAR
STARTCHAR amacron
ENCODING 257
SWIDTH 527 0
DWIDTH 8 0
BBX 6 10 1 0
BITMAP
7C
00
78
FC
8C
3C
FC
CC
FC
FC
ENDCHAR
STARTCHAR Abreve
ENCODING 258
SWIDTH 573 0
DWIDTH 9 0
BBX 9 13 0 0
BITMAP
2200
1C00
0000
1C00
1C00
3600
3600
3600
7300
7F00
7F00
E380
C180
ENDCHAR
STARTCHAR abreve
ENCODING 259
SWIDTH 527 0
DWIDTH 8 0
BBX 6 11 1 0
BITMAP
4C
78
00
78
FC
8C
3C
FC
CC
FC
FC
ENDCHAR
STARTCHAR Aogonek
ENCODING 260
SWIDTH 573 0
DWIDTH 9 0
BBX 10 14 0 -4
BITMAP
1C00
1C00
3600
3600
3600
7300
7F00
7F00
E380
C180
0100
0300
0380
01C0
ENDCHAR
STARTCHAR aogonek
ENCODING 261
SWIDTH 527 0
DWIDTH 8 0
BBX 7 11 1 -3
BITMAP
78
FC
8C
3C
FC
CC
FC
FC
0C
08
1E
ENDCHAR
STARTCHAR Cacute
ENCODING 262
SWIDTH 582 0
DWIDTH 9 0
BBX 8 14 1 0
BITMAP
04
0E
18
00
3E
7F
E2
C0
C0
C0
C0
E2
7F
3E
ENDCHAR
STARTCHAR cacute
ENCODING 263
SWIDTH 467 0
DWIDTH 7 0
BBX 7 13 1 0
BITMAP
04
0E
1C
10
00
38
FC
E0
C0
C0
E8
FC
78
ENDCHAR
STARTCHAR Ccircumflex
ENCODING 264
SWIDTH 582 0
DWIDTH 9 0
BBX 8 13 1 0
BITMAP
1C
36
00
3E
7F
E2
C0
C0
C0
C0
E2
7F
3E
ENDCHAR
STARTCHAR ccircumflex
ENCODING 265
SWIDTH 467 0
DWIDTH 7 0
BBX 7 12 1 0
BITMAP
38
7C
46
00
38
FC
E0
C0
C0
E8
FC
78
ENDCHAR
STARTCHAR Cdotaccent
ENCODING 266
SWIDTH 582 0
DWIDTH 9 0
BBX 8 13 1 0
BITMAP
1C
1C
00
3E
7F
E2
C0
C0
C0
C0
E2
7F
3E
ENDCHAR
STARTCHAR cdotaccent
ENCODING 267
SWIDTH 467 0
DWIDTH 7 0
BBX 6 11 1 0
BITMAP
38
38
00
38
FC
E0
C0
C0
E8
FC
78
ENDCHAR
STARTCHAR Ccaron
ENCODING 268
SWIDTH 582 0
DWIDTH 9 0
BBX 8 13 1 0
BITMAP
36
1C
00
3E
7F
E2
C0
C0
C0
C0
E2
7F
3E
ENDCHAR
STARTCHAR ccaron
ENCODING 269
SWIDTH 467 0
DWIDTH 7 0
BBX 7 12 1 0
BITMAP
44
7E
38
00
38
FC
E0
C0
C0
E8
FC
78
ENDCHAR
STARTCHAR Dcaron
ENCODING 270
SWIDTH 635 0
DWIDTH 10 0
BBX 8 13 1 0
BITMAP
66
3C
00
FC
FE
E7
E3
E3
E3
E3
E7
FE
FC
ENDCHAR
STARTCHAR dcaron
ENCODING 271
SWIDTH 614 0
DWIDTH 10 0
BBX 9 13 1 0
BITMAP
0080
0080
0680
0680
0600
7E00
FE00
C600
C600
C600
CE00
FE00
7600
ENDCHAR
STARTCHAR Dcroat
ENCODING 272
SWIDTH 660 0
DWIDTH 11 0
BBX 10 10 0 0
BITMAP
3E00
3F80
3380
FDC0
FDC0
31C0
31C0
3380
3F80
3E00
ENDCHAR
STARTCHAR dcroat
ENCODING 273
SWIDTH 573 0
DWIDTH 9 0
BBX 8 11 1 0
BITMAP
06
3F
3F
06
06
7E
FE
C6
C6
FE
7E
ENDCHAR
STARTCHAR Emacron
ENCODING 274
SWIDTH 548 0
DWIDTH 9 0
BBX 7 13 1 0
BITMAP
7C
7C
00
FE
FE
E0
E0
FC
FC
E0
E0
FE
FE
ENDCHAR
STARTCHAR emacron
ENCODING 275
SWIDTH 518 0
DWIDTH 8 0
BBX 7 10 1 0
BITMAP
7C
00
78
FC
C6
FE
FE
C4
FC
7C
ENDCHAR
STARTCHAR Ebreve
ENCODING 276
SWIDTH 548 0
DWIDTH 9 0
BBX 7 13 1 0
BITMAP
64
3C
00
FE
FE
E0
E0
FC
FC
E0
E0
FE
FE
ENDCHAR
STARTCHAR ebreve
ENCODING 277
SWIDTH 518 0
DWIDTH 8 0
BBX 7 11 1 0
BITMAP
4C
78
00
78
FC
C6
FE
FE
C4
FC
7C
ENDCHAR
STARTCHAR Edotaccent
ENCODING 278
SWIDTH 548 0
DWIDTH 9 0
BBX 7 13 1 0
BITMAP
38
38
00
FE
FE
E0
E0
FC
FC
E0
E0
FE
FE
ENDCHAR
STARTCHAR edotaccent
ENCODING 279
SWIDTH 518 0
DWIDTH 8 0
BBX 7 11 1 0
BITMAP
30
38
00
78
FC
C6
FE
FE
C4
FC
7C
ENDCHAR
STARTCHAR Eogonek
ENCODING 280
SWIDTH 548 0
DWIDTH 9 0
BBX 7 14 1 -4
BITMAP
FE
FE
E0
E0
FC
FC
E0
E0
FE
FE
0C
08
0E
0E
ENDCHAR
STARTCHAR eogonek
ENCODING 281
SWIDTH 518 0
DWIDTH 8 0
BBX 7 11 1 -3
BITMAP
78
FC
C6
FE
FE
C4
FC
7C
08
18
1C
ENDCHAR
STARTCHAR Ecaron
ENCODING 282
SWIDTH 548 0
DWIDTH 9 0
BBX 7 13 1 0
BITMAP
64
38
00
FE
FE
E0
E0
FC
FC
E0
E0
FE
FE
ENDCHAR
STARTCHAR ecaron
ENCODING 283
SWIDTH 518 0
DWIDTH 8 0
BBX 7 12 1 0
BITMAP
44
FC
38
00
78
FC
C6
FE
FE
C4
FC
7C
ENDCHAR
STARTCHAR Gcircumflex
ENCODING 284
SWIDTH 638 0
DWIDTH 10 0
BBX 8 13 1 0
BITMAP
1E
33
00
3E
7F
E2
C0
CF
CF
C3
E3
7F
3E
ENDCHAR
STARTCHAR gcircumflex
ENCODING 285
SWIDTH 534 0
DWIDTH 9 0
BBX 7 15 1 -3
BITMAP
38
6C
44
00
7E
FE
CC
FC
F8
C0
FE
7E
86
FE
FC
ENDCHAR
STARTCHAR Gbreve
ENCODING 286
SWIDTH 638 0
DWIDTH 10 0
BBX 8 13 1 0
BITMAP
32
1E
00
3E
7F
E2
C0
CF
CF
C3
E3
7F
3E
ENDCHAR
STARTCHAR gbreve
ENCODING 287
SWIDTH 534 0
DWIDTH 9 0
BBX 7 14 1 -3
BITMAP
44
38
00
7E
FE
CC
FC
F8
C0
FE
7E
86
FE
FC
ENDCHAR
STARTCHAR Gdotaccent
ENCODING 288
SWIDTH 638 0
DWIDTH 10 0
BBX 8 13 1 0
BITMAP
0C
0C
00
3E
7F
E2
C0
CF
CF
C3
E3
7F
3E
ENDCHAR
STARTCHAR gdotaccent
ENCODING 289
SWIDTH 534 0
DWIDTH 9 0
BBX 7 14 1 -3
BITMAP
38
38
00
7E
FE
CC
FC
F8
C0
FE
7E
86
FE
FC
ENDCHAR
STARTCHAR uni0122
ENCODING 290
SWIDTH 638 0
DWIDTH 10 0
BBX 8 14 1 -4
BITMAP
3E
7F
E2
C0
CF
CF
C3
E3
7F
3E
00
0C
04
1C
ENDCHAR
STARTCHAR uni0123
ENCODING 291
SWIDTH 534 0
DWIDTH 9 0
BBX 7 15 1 -3
BITMAP
18
30
38
00
7E
FE
CC
FC
F8
C0
FE
7E
86
FE
FC
ENDCHAR
STARTCHAR Hcircumflex
ENCODING 292
SWIDTH 674 0
DWIDTH 11 0
BBX 9 13 1 0
BITMAP
1C00
2600
0000
E380
E380
E380
E380
FF80
FF80
E380
E380
E380
E380
ENDCHAR
STARTCHAR hcircumflex
ENCODING 293
SWIDTH 571 0
DWIDTH 9 0
BBX 9 14 -1 0
BITMAP
7800
CC00
0000
3000
3000
3000
3700
3F80
3980
3180
3180
3180
3180
3180
ENDCHAR
STARTCHAR Hbar
ENCODING 294
SWIDTH 712 0
DWIDTH 11 0
BBX 11 10 0 0
BITMAP
31C0
FFE0
FFE0
31C0
3FC0
3FC0
31C0
31C0
31C0
31C0
ENDCHAR
STARTCHAR hbar
ENCODING 295
SWIDTH 571 0
DWIDTH 9 0
BBX 8 11 0 0
BITMAP
60
FC
FC
60
60
7F
7F
63
63
63
63
ENDCHAR
STARTCHAR Itilde
ENCODING 296
SWIDTH 301 0
DWIDTH 5 0
BBX 7 14 -1 0
BITMAP
66
FC
DC
00
38
38
38
38
38
38
38
38
38
38
ENDCHAR
STARTCHAR itilde
ENCODING 297
SWIDTH 276 0
DWIDTH 4 0
BBX 6 12 -1 0
BITMAP
64
FC
DC
00
30
30
30
30
30
30
30
30
ENDCHAR
STARTCHAR Imacron
ENCODING 298
SWIDTH 301 0
DWIDTH 5 0
BBX 5 13 0 0
BITMAP
F8
F8
00
70
70
70
70
70
70
70
70
70
70
ENDCHAR
STARTCHAR imacron
ENCODING 299
SWIDTH 276 0
DWIDTH 4 0
BBX 5 10 0 0
BITMAP
F8
00
60
60
60
60
60
60
60
60
ENDCHAR
STARTCHAR uni012C
ENCODING 300
SWIDTH 301 0
DWIDTH 5 0
BBX 5 13 0 0
BITMAP
88
70
00
70
70
70
70
70
70
70
70
70
70
ENDCHAR
STARTCHAR uni012D
ENCODING 301
SWIDTH 276 0
DWIDTH 4 0
BBX 6 11 -1 0
BITMAP
CC
78
00
30
30
30
30
30
30
30
30
ENDCHAR
STARTCHAR Iogonek
ENCODING 302
SWIDTH 301 0
DWIDTH 5 0
BBX 3 14 1 -4
BITMAP
E0
E0
E0
E0
E0
E0
E0
E0
E0
E0
C0
80
E0
E0
ENDCHAR
STARTCHAR iogonek
ENCODING 303
SWIDTH 276 0
DWIDTH 4 0
BBX 3 14 1 -3
BITMAP
C0
E0
00
C0
C0
C0
C0
C0
C0
C0
C0
C0
80
E0
ENDCHAR
STARTCHAR Idotaccent
ENCODING 304
SWIDTH 301 0
DWIDTH 5 0
BBX 3 13 1 0
BITMAP
E0
E0
00
E0
E0
E0
E0
E0
E0
E0
E0
E0
E0
ENDCHAR
STARTCHAR dotlessi
ENCODING 305
SWIDTH 276 0
DWIDTH 4 0
BBX 2 8 1 0
BITMAP
C0
C0
C0
C0
C0
C0
C0
C0
ENDCHAR
STARTCHAR uni0132
ENCODING 306
SWIDTH 602 0
DWIDTH 10 0
BBX 7 13 1 -3
BITMAP
E6
E6
E6
E6
E6
E6
E6
E6
E6
E6
06
1E
1C
ENDCHAR
STARTCHAR uni0133
ENCODING 307
SWIDTH 554 0
DWIDTH 9 0
BBX 7 15 1 -3
BITMAP
44
EE
C6
00
CE
CE
CE
CE
CE
CE
CE
CE
0E
1E
1C
ENDCHAR
STARTCHAR Jcircumflex
ENCODING 308
SWIDTH 509 0
DWIDTH 8 0
BBX 8 13 0 0
BITMAP
0F
19
00
06
06
06
06
06
06
06
4E
FE
3C
ENDCHAR
STARTCHAR jcircumflex
ENCODING 309
SWIDTH 278 0
DWIDTH 4 0
BBX 6 15 -1 -3
BITMAP
38
7C
C4
00
30
30
30
30
30
30
30
30
30
F0
E0
ENDCHAR
STARTCHAR uni0136
ENCODING 310
SWIDTH 614 0
DWIDTH 10 0
BBX 9 14 1 -4
BITMAP
E700
E600
EC00
FC00
FC00
FC00
EE00
E600
E700
E380
0000
1800
0C00
3800
ENDCHAR
STARTCHAR uni0137
ENCODING 311
SWIDTH 548 0
DWIDTH 9 0
BBX 8 15 1 -4
BITMAP
C0
C0
C0
C6
CC
D8
F8
F8
EC
CE
C6
01
18
08
38
ENDCHAR
STARTCHAR kgreenlandic
ENCODING 312
SWIDTH 548 0
DWIDTH 9 0
BBX 8 8 1 0
BITMAP
C6
CC
D8
F8
F8
EC
CE
C7
ENDCHAR
STARTCHAR Lacute
ENCODING 313
SWIDTH 518 0
DWIDTH 8 0
BBX 7 14 1 0
BITMAP
20
70
C0
00
E0
E0
E0
E0
E0
E0
E0
E0
FE
FE
ENDCHAR
STARTCHAR lacute
ENCODING 314
SWIDTH 286 0
DWIDTH 5 0
BBX 4 15 1 0
BITMAP
20
70
C0
00
C0
C0
C0
C0
C0
C0
C0
C0
C0
E0
60
ENDCHAR
STARTCHAR uni013B
ENCODING 315
SWIDTH 518 0
DWIDTH 8 0
BBX 7 14 1 -4
BITMAP
E0
E0
E0
E0
E0
E0
E0
E0
FE
FE
00
18
38
30
ENDCHAR
STARTCHAR uni013C
ENCODING 316
SWIDTH 286 0
DWIDTH 5 0
BBX 4 15 1 -4
BITMAP
C0
C0
C0
C0
C0
C0
C0
C0
C0
E0
60
00
60
30
E0
ENDCHAR
STARTCHAR Lcaron
ENCODING 317
SWIDTH 518 0
DWIDTH 8 0
BBX 7 12 1 0
BITMAP
04
04
E4
E4
E0
E0
E0
E0
E0
E0
FE
FE
ENDCHAR
STARTCHAR lcaron
ENCODING 318
SWIDTH 319 0
DWIDTH 5 0
BBX 5 13 1 0
BITMAP
18
10
D0
D0
C0
C0
C0
C0
C0
C0
C0
E0
60
ENDCHAR
STARTCHAR Ldot
ENCODING 319
SWIDTH 518 0
DWIDTH 8 0
BBX 7 10 1 0
BITMAP
E0
E0
E0
EE
EE
EE
E0
E0
FE
FE
ENDCHAR
STARTCHAR ldot
ENCODING 320
SWIDTH 453 0
DWIDTH 7 0
BBX 6 11 1 0
BITMAP
C0
C0
C0
C0
CC
DC
CC
C0
C0
E0
60
ENDCHAR
STARTCHAR Lslash
ENCODING 321
SWIDTH 524 0
DWIDTH 8 0
BBX 8 10 0 0
BITMAP
70
70
70
7E
7C
70
F0
F0
7F
7F
ENDCHAR
STARTCHAR lslash
ENCODING 322
SWIDTH 303 0
DWIDTH 5 0
BBX 5 11 0 0
BITMAP
70
70
70
70
78
F0
F0
70
70
70
38
ENDCHAR
STARTCHAR Nacute
ENCODING 323
SWIDTH 665 0
DWIDTH 11 0
BBX 8 14 1 0
BITMAP
04
0E
18
00
E3
E3
F3
DB
DB
CF
CF
C7
C7
C3
ENDCHAR
STARTCHAR nacute
ENCODING 324
SWIDTH 572 0
DWIDTH 9 0
BBX 7 13 1 0
BITMAP
04
0E
1C
08
00
DC
FE
E6
C6
C6
C6
C6
C6
ENDCHAR
STARTCHAR uni0145
ENCODING 325
SWIDTH 665 0
DWIDTH 11 0
BBX 8 14 1 -4
BITMAP
E3
E3
F3
DB
DB
CF
CF
C7
C7
C3
00
0C
1C
18
ENDCHAR
STARTCHAR uni0146
ENCODING 326
SWIDTH 572 0
DWIDTH 9 0
BBX 7 12 1 -4
BITMAP
DC
FE
E6
C6
C6
C6
C6
C6
00
18
38
30
ENDCHAR
STARTCHAR Ncaron
ENCODING 327
SWIDTH 665 0
DWIDTH 11 0
BBX 8 13 1 0
BITMAP
26
1C
00
E3
E3
F3
DB
DB
CF
CF
C7
C7
C3
ENDCHAR
STARTCHAR ncaron
ENCODING 328
SWIDTH 572 0
DWIDTH 9 0
BBX 7 12 1 0
BITMAP
64
3E
3C
00
DC
FE
E6
C6
C6
C6
C6
C6
ENDCHAR
STARTCHAR napostrophe
ENCODING 329
SWIDTH 852 0
DWIDTH 14 0
BBX 12 11 1 0
BITMAP
E000
E000
2000
4DE0
CFE0
0E70
0E70
0E70
0E70
0E70
0E70
ENDCHAR
STARTCHAR uni014A
ENCODING 330
SWIDTH 666 0
DWIDTH 11 0
BBX 9 10 1 0
BITMAP
FE00
FF00
E380
E380
E380
E380
E380
E380
EF00
EE00
ENDCHAR
STARTCHAR uni014B
ENCODING 331
SWIDTH 572 0
DWIDTH 9 0
BBX 7 11 1 -3
BITMAP
DC
FE
E6
C6
C6
C6
C6
C6
06
1E
1C
ENDCHAR
STARTCHAR Omacron
ENCODING 332
SWIDTH 684 0
DWIDTH 11 0
BBX 9 13 1 0
BITMAP
3E00
3E00
0000
3E00
7F00
E380
C180
C180
C180
C180
E380
7F00
3E00
ENDCHAR
STARTCHAR omacron
ENCODING 333
SWIDTH 555 0
DWIDTH 9 0
BBX 7 10 1 0
BITMAP
7C
00
78
FE
C6
C6
C6
C6
FE
78
ENDCHAR
STARTCHAR uni014E
ENCODING 334
SWIDTH 684 0
DWIDTH 11 0
BBX 9 13 1 0
BITMAP
2200
1C00
0000
3E00
7F00
E380
C180
C180
C180
C180
E380
7F00
3E00
ENDCHAR
STARTCHAR uni014F
ENCODING 335
SWIDTH 555 0
DWIDTH 9 0
BBX 7 11 1 0
BITMAP
44
38
00
78
FE
C6
C6
C6
C6
FE
78
ENDCHAR
STARTCHAR Ohungarumlaut
ENCODING 336
SWIDTH 684 0
DWIDTH 11 0
BBX 9 14 1 0
BITMAP
0900
1B00
3600
0000
3E00
7F00
E380
C180
C180
C180
C180
E380
7F00
3E00
ENDCHAR
STARTCHAR ohungarumlaut
ENCODING 337
SWIDTH 555 0
DWIDTH 9 0
BBX 7 13 1 0
BITMAP
04
36
34
6C
00
78
FE
C6
C6
C6
C6
FE
78
ENDCHAR
STARTCHAR OE
ENCODING 338
SWIDTH 871 0
DWIDTH 14 0
BBX 12 10 1 0
BITMAP
3FF0
7FF0
E300
C300
C3E0
C3E0
C300
E300
7FF0
3FF0
ENDCHAR
STARTCHAR oe
ENCODING 339
SWIDTH 822 0
DWIDTH 13 0
BBX 12 8 1 0
BITMAP
79C0
FFE0
CE60
C7F0
C7F0
CE40
FFE0
79E0
ENDCHAR
STARTCHAR Racute
ENCODING 340
SWIDTH 613 0
DWIDTH 10 0
BBX 9 14 1 0
BITMAP
0400
1E00
1800
0000
FE00
FF00
E300
E300
FF00
FC00
EE00
E600
E700
E380
ENDCHAR
STARTCHAR racute
ENCODING 341
SWIDTH 398 0
DWIDTH 6 0
BBX 6 13 1 0
BITMAP
08
1C
38
10
00
D8
F8
E0
C0
C0
C0
C0
C0
ENDCHAR
STARTCHAR uni0156
ENCODING 342
SWIDTH 613 0
DWIDTH 10 0
BBX 9 14 1 -4
BITMAP
FE00
FF00
E300
E300
FF00
FC00
EE00
E600
E700
E300
0080
1800
0C00
3800
ENDCHAR
STARTCHAR uni0157
ENCODING 343
SWIDTH 398 0
DWIDTH 6 0
BBX 6 12 0 -4
BITMAP
6C
7C
70
60
60
60
60
60
00
60
30
E0
ENDCHAR
STARTCHAR Rcaron
ENCODING 344
SWIDTH 613 0
DWIDTH 10 0
BBX 9 13 1 0
BITMAP
6600
3C00
0000
FE00
FF00
E300
E300
FF00
FC00
EE00
E600
E700
E380
ENDCHAR
STARTCHAR rcaron
ENCODING 345
SWIDTH 398 0
DWIDTH 6 0
BBX 6 12 1 0
BITMAP
CC
78
78
00
D8
F8
E0
C0
C0
C0
C0
C0
ENDCHAR
STARTCHAR Sacute
ENCODING 346
SWIDTH 556 0
DWIDTH 9 0
BBX 7 14 1 0
BITMAP
0C
1C
30
00
3C
FE
C4
E0
7C
3E
06
C6
FE
7C
ENDCHAR
STARTCHAR sacute
ENCODING 347
SWIDTH 443 0
DWIDTH 7 0
BBX 7 13 0 0
BITMAP
04
0E
1C
18
00
3C
7E
64
78
1C
4E
FC
78
ENDCHAR
STARTCHAR Scircumflex
ENCODING 348
SWIDTH 556 0
DWIDTH 9 0
BBX 7 13 1 0
BITMAP
38
64
00
3C
FE
C4
E0
7C
3E
06
C6
FE
7C
ENDCHAR
STARTCHAR scircumflex
ENCODING 349
SWIDTH 443 0
DWIDTH 7 0
BBX 7 12 0 0
BITMAP
38
7C
46
00
3C
7E
64
78
1C
4E
FC
78
ENDCHAR
STARTCHAR uni015E
ENCODING 350
SWIDTH 556 0
DWIDTH 9 0
BBX 7 14 1 -4
BITMAP
3C
FE
C4
E0
7C
3E
06
C6
FE
7C
10
38
18
30
ENDCHAR
STARTCHAR uni015F
ENCODING 351
SWIDTH 443 0
DWIDTH 7 0
BBX 7 12 0 -4
BITMAP
3C
7E
64
78
1C
4E
FC
78
10
18
28
38
ENDCHAR
STARTCHAR Scaron
ENCODING 352
SWIDTH 556 0
DWIDTH 9 0
BBX 7 13 1 0
BITMAP
64
38
00
3C
FE
C4
E0
7C
3E
06
C6
FE
7C
ENDCHAR
STARTCHAR scaron
ENCODING 353
SWIDTH 443 0
DWIDTH 7 0
BBX 7 12 0 0
BITMAP
44
7E
38
00
3C
7E
64
78
1C
4E
FC
78
ENDCHAR
STARTCHAR uni0162
ENCODING 354
SWIDTH 556 0
DWIDTH 9 0
BBX 9 14 0 -4
BITMAP
FF80
FF80
1C00
1C00
1C00
1C00
1C00
1C00
1C00
1C00
0800
1C00
0C00
1800
ENDCHAR
STARTCHAR uni0163
ENCODING 355
SWIDTH 383 0
DWIDTH 6 0
BBX 6 15 0 -4
BITMAP
30
30
30
FC
FC
70
70
70
70
3C
3C
10
18
28
38
ENDCHAR
STARTCHAR Tcaron
ENCODING 356
SWIDTH 556 0
DWIDTH 9 0
BBX 9 13 0 0
BITMAP
2600
1C00
0000
FF80
FF80
1C00
1C00
1C00
1C00
1C00
1C00
1C00
1C00
ENDCHAR
STARTCHAR tcaron
ENCODING 357
SWIDTH 383 0
DWIDTH 6 0
BBX 6 13 0 0
BITMAP
0C
0C
3C
3C
30
FC
FC
70
70
70
70
3C
3C
ENDCHAR
STARTCHAR uni0166
ENCODING 358
SWIDTH 556 0
DWIDTH 9 0
BBX 9 10 0 0
BITMAP
FF80
FF80
1C00
1C00
7F00
7F00
1C00
1C00
1C00
1C00
ENDCHAR
STARTCHAR uni0167
ENCODING 359
SWIDTH 383 0
DWIDTH 6 0
BBX 6 11 0 0
BITMAP
30
30
30
FC
FC
70
FC
FC
70
7C
3C
ENDCHAR
STARTCHAR Utilde
ENCODING 360
SWIDTH 665 0
DWIDTH 11 0
BBX 8 14 1 0
BITMAP
32
7E
6E
00
E3
E3
E3
E3
E3
E3
E3
E3
7F
3E
ENDCHAR
STARTCHAR utilde
ENCODING 361
SWIDTH 568 0
DWIDTH 9 0
BBX 7 12 1 0
BITMAP
76
7E
5C
00
C6
C6
C6
C6
C6
CE
FE
76
ENDCHAR
STARTCHAR Umacron
ENCODING 362
SWIDTH 665 0
DWIDTH 11 0
BBX 8 13 1 0
BITMAP
3E
3E
00
E3
E3
E3
E3
E3
E3
E3
E3
7F
3E
ENDCHAR
STARTCHAR umacron
ENCODING 363
SWIDTH 568 0
DWIDTH 9 0
BBX 7 10 1 0
BITMAP
7C
00
C6
C6
C6
C6
C6
CE
FE
76
ENDCHAR
STARTCHAR Ubreve
ENCODING 364
SWIDTH 665 0
DWIDTH 11 0
BBX 8 13 1 0
BITMAP
26
3C
00
E3
E3
E3
E3
E3
E3
E3
E3
7F
3E
ENDCHAR
STARTCHAR ubreve
ENCODING 365
SWIDTH 568 0
DWIDTH 9 0
BBX 7 11 1 0
BITMAP
44
38
00
C6
C6
C6
C6
C6
CE
FE
76
ENDCHAR
STARTCHAR Uring
ENCODING 366
SWIDTH 665 0
DWIDTH 11 0
BBX 8 14 1 0
BITMAP
1C
34
1C
00
E3
E3
E3
E3
E3
E3
E3
E3
7F
3E
ENDCHAR
STARTCHAR uring
ENCODING 367
SWIDTH 568 0
DWIDTH 9 0
BBX 7 12 1 0
BITMAP
38
6C
38
00
C6
C6
C6
C6
C6
CE
FE
76
ENDCHAR
STARTCHAR Uhungarumlaut
ENCODING 368
SWIDTH 665 0
DWIDTH 11 0
BBX 8 14 1 0
BITMAP
1B
1B
36
00
E3
E3
E3
E3
E3
E3
E3
E3
7F
3E
ENDCHAR
STARTCHAR uhungarumlaut
ENCODING 369
SWIDTH 568 0
DWIDTH 9 0
BBX 7 13 1 0
BITMAP
04
16
36
2C
40
C6
C6
C6
C6
C6
CE
FE
76
ENDCHAR
STARTCHAR Uogonek
ENCODING 370
SWIDTH 665 0
DWIDTH 11 0
BBX 8 14 1 -4
BITMAP
E3
E3
E3
E3
E3
E3
E3
E3
7F
3E
18
18
1C
1C
ENDCHAR
STARTCHAR uogonek
ENCODING 371
SWIDTH 568 0
DWIDTH 9 0
BBX 7 11 1 -3
BITMAP
C6
C6
C6
C6
C6
CE
FE
76
0C
0C
0E
ENDCHAR
STARTCHAR Wcircumflex
ENCODING 372
SWIDTH 813 0
DWIDTH 13 0
BBX 13 13 0 0
BITMAP
0700
0D80
0000
E738
6738
6730
6530
65B0
6DB0
7DB0
3DE0
38E0
38E0
ENDCHAR
STARTCHAR wcircumflex
ENCODING 373
SWIDTH 776 0
DWIDTH 12 0
BBX 12 12 0 0
BITMAP
0700
0F80
1880
0000
E630
6730
6760
6F60
3D60
3DE0
39C0
39C0
ENDCHAR
STARTCHAR Ycircumflex
ENCODING 374
SWIDTH 525 0
DWIDTH 8 0
BBX 9 13 0 0
BITMAP
3C00
6600
0000
E380
6700
6600
3600
3C00
1C00
1800
1800
1800
1800
ENDCHAR
STARTCHAR ycircumflex
ENCODING 375
SWIDTH 521 0
DWIDTH 8 0
BBX 8 15 0 -3
BITMAP
1C
3E
62
00
E3
67
66
36
36
3C
1C
1C
18
78
70
ENDCHAR
STARTCHAR Ydieresis
ENCODING 376
SWIDTH 525 0
DWIDTH 8 0
BBX 9 13 0 0
BITMAP
6600
7600
0000
E380
6700
6600
3600
3C00
1C00
1800
1800
1800
1800
ENDCHAR
STARTCHAR Zacute
ENCODING 377
SWIDTH 541 0
DWIDTH 9 0
BBX 7 14 1 0
BITMAP
0C
1C
30
00
FE
FE
0C
18
18
30
60
60
FE
FE
ENDCHAR
STARTCHAR zacute
ENCODING 378
SWIDTH 460 0
DWIDTH 7 0
BBX 6 13 1 0
BITMAP
08
1C
38
10
00
FC
FC
18
30
70
60
FC
FC
ENDCHAR
STARTCHAR Zdotaccent
ENCODING 379
SWIDTH 541 0
DWIDTH 9 0
BBX 7 13 1 0
BITMAP
38
38
00
FE
FE
0C
18
18
30
60
60
FE
FE
ENDCHAR
STARTCHAR zdotaccent
ENCODING 380
SWIDTH 460 0
DWIDTH 7 0
BBX 6 11 1 0
BITMAP
30
30
00
FC
FC
18
30
70
60
FC
FC
ENDCHAR
STARTCHAR Zcaron
ENCODING 381
SWIDTH 541 0
DWIDTH 9 0
BBX 7 13 1 0
BITMAP
6C
38
00
FE
FE
0C
18
18
30
60
60
FE
FE
ENDCHAR
STARTCHAR zcaron
ENCODING 382
SWIDTH 460 0
DWIDTH 7 0
BBX 6 12 1 0
BITMAP
C8
7C
78
00
FC
FC
18
30
70
60
FC
FC
ENDCHAR
STARTCHAR uni0180
ENCODING 384
SWIDTH 571 0
DWIDTH 9 0
BBX 9 11 0 0
BITMAP
6000
FC00
FC00
6000
6000
6E00
7F00
7380
7300
7F00
6E00
ENDCHAR
STARTCHAR uni018F
ENCODING 399
SWIDTH 675 0
DWIDTH 11 0
BBX 9 10 1 0
BITMAP
3E00
7F00
2380
0180
FF80
FF80
C180
E380
7F00
3E00
ENDCHAR
STARTCHAR uni0192
ENCODING 402
SWIDTH 528 0
DWIDTH 8 0
BBX 8 13 0 -2
BITMAP
07
0F
1C
1C
3E
3E
18
18
18
18
38
70
F0
ENDCHAR
STARTCHAR uni0193
ENCODING 403
SWIDTH 638 0
DWIDTH 10 0
BBX 9 13 1 0
BITMAP
0180
0380
0300
3F00
7F00
E200
C000
CF00
CF00
C300
E300
7F00
3E00
ENDCHAR
STARTCHAR Ohorn
ENCODING 416
SWIDTH 684 0
DWIDTH 11 0
BBX 10 12 1 0
BITMAP
01C0
00C0
3F80
7F00
E380
C180
C180
C180
C180
E380
7F00
3E00
ENDCHAR
STARTCHAR ohorn
ENCODING 417
SWIDTH 555 0
DWIDTH 9 0
BBX 8 11 1 0
BITMAP
01
03
03
7E
FC
C6
C6
C6
C6
FE
78
ENDCHAR
STARTCHAR Uhorn
ENCODING 431
SWIDTH 683 0
DWIDTH 11 0
BBX 11 13 1 0
BITMAP
0040
00E0
00C0
E3C0
E300
E300
E300
E300
E300
E300
E300
7F00
3E00
ENDCHAR
STARTCHAR uhorn
ENCODING 432
SWIDTH 568 0
DWIDTH 9 0
BBX 9 11 1 0
BITMAP
0180
0380
0380
C700
C600
C600
C600
C600
CE00
FE00
7600
ENDCHAR
STARTCHAR uni01C2
ENCODING 450
SWIDTH 330 0
DWIDTH 5 0
BBX 5 17 0 -4
BITMAP
20
20
20
20
20
20
F8
F8
20
F8
F8
20
20
20
20
20
20
ENDCHAR
STARTCHAR uni01CD
ENCODING 461
SWIDTH 573 0
DWIDTH 9 0
BBX 9 13 0 0
BITMAP
3600
1C00
0000
1C00
1C00
3600
3600
3600
7300
7F00
7F00
E380
C180
ENDCHAR
STARTCHAR uni01CE
ENCODING 462
SWIDTH 527 0
DWIDTH 8 0
BBX 6 12 1 0
BITMAP
44
FC
38
00
78
FC
8C
3C
FC
CC
FC
FC
ENDCHAR
STARTCHAR uni01CF
ENCODING 463
SWIDTH 301 0
DWIDTH 5 0
BBX 5 13 0 0
BITMAP
98
70
00
70
70
70
70
70
70
70
70
70
70
ENDCHAR
STARTCHAR uni01D0
ENCODING 464
SWIDTH 276 0
DWIDTH 4 0
BBX 6 12 -1 0
BITMAP
44
FC
38
00
30
30
30
30
30
30
30
30
ENDCHAR
STARTCHAR uni01D1
ENCODING 465
SWIDTH 684 0
DWIDTH 11 0
BBX 9 13 1 0
BITMAP
3600
1C00
0000
3E00
7F00
E380
C180
C180
C180
C180
E380
7F00
3E00
ENDCHAR
STARTCHAR uni01D2
ENCODING 466
SWIDTH 555 0
DWIDTH 9 0
BBX 7 12 1 0
BITMAP
44
7C
38
00
78
FE
C6
C6
C6
C6
FE
78
ENDCHAR
STARTCHAR uni01D3
ENCODING 467
SWIDTH 665 0
DWIDTH 11 0
BBX 8 13 1 0
BITMAP
26
1C
00
E3
E3
E3
E3
E3
E3
E3
E3
7F
3E
ENDCHAR
STARTCHAR uni01D4
ENCODING 468
SWIDTH 568 0
DWIDTH 9 0
BBX 7 12 1 0
BITMAP
44
7C
38
00
C6
C6
C6
C6
C6
CE
FE
76
ENDCHAR
STARTCHAR uni01D5
ENCODING 469
SWIDTH 665 0
DWIDTH 11 0
BBX 8 15 1 0
BITMAP
3E
00
26
36
00
E3
E3
E3
E3
E3
E3
E3
E3
7F
3E
ENDCHAR
STARTCHAR uni01D6
ENCODING 470
SWIDTH 568 0
DWIDTH 9 0
BBX 7 13 1 0
BITMAP
7C
00
6C
6C
00
C6
C6
C6
C6
C6
CE
FE
76
ENDCHAR
STARTCHAR uni01D7
ENCODING 471
SWIDTH 665 0
DWIDTH 11 0
BBX 8 16 1 0
BITMAP
04
0C
18
26
36
00
E3
E3
E3
E3
E3
E3
E3
E3
7F
3E
ENDCHAR
STARTCHAR uni01D8
ENCODING 472
SWIDTH 568 0
DWIDTH 9 0
BBX 7 14 1 0
BITMAP
08
18
10
6C
6C
00
C6
C6
C6
C6
C6
CE
FE
76
ENDCHAR
STARTCHAR uni01D9
ENCODING 473
SWIDTH 665 0
DWIDTH 11 0
BBX 8 17 1 0
BITMAP
24
36
1C
00
26
36
00
E3
E3
E3
E3
E3
E3
E3
E3
7F
3E
ENDCHAR
STARTCHAR uni01DA
ENCODING 474
SWIDTH 568 0
DWIDTH 9 0
BBX 7 15 1 0
BITMAP
48
2C
38
00
6C
6C
00
C6
C6
C6
C6
C6
CE
FE
76
ENDCHAR
STARTCHAR uni01DB
ENCODING 475
SWIDTH 665 0
DWIDTH 11 0
BBX 8 16 1 0
BITMAP
10
38
08
26
36
00
E3
E3
E3
E3
E3
E3
E3
E3
7F
3E
ENDCHAR
STARTCHAR uni01DC
ENCODING 476
SWIDTH 568 0
DWIDTH 9 0
BBX 7 14 1 0
BITMAP
20
30
10
6C
6C
00
C6
C6
C6
C6
C6
CE
FE
76
ENDCHAR
STARTCHAR uni01E2
ENCODING 482
SWIDTH 845 0
DWIDTH 14 0
BBX 13 13 0 0
BITMAP
03E0
03E0
0000
0FF8
0FF8
1F80
1B80
1BF0
33F0
3F80
7F80
63F8
E3F8
ENDCHAR
STARTCHAR uni01E3
ENCODING 483
SWIDTH 786 0
DWIDTH 13 0
BBX 11 10 1 0
BITMAP
1F00
0000
7BC0
FFC0
8C60
3FE0
FFE0
CE40
FFC0
73E0
ENDCHAR
STARTCHAR Gcaron
ENCODING 486
SWIDTH 638 0
DWIDTH 10 0
BBX 8 13 1 0
BITMAP
33
1E
00
3E
7F
E2
C0
CF
CF
C3
E3
7F
3E
ENDCHAR
STARTCHAR gcaron
ENCODING 487
SWIDTH 534 0
DWIDTH 9 0
BBX 7 15 1 -3
BITMAP
44
6C
38
00
7E
FE
CC
FC
F8
C0
FE
7E
86
FE
FC
ENDCHAR
STARTCHAR uni01EA
ENCODING 490
SWIDTH 684 0
DWIDTH 11 0
BBX 9 14 1 -4
BITMAP
3E00
7F00
E380
C180
C180
C180
C180
E380
7F00
3E00
0800
1800
1C00
0E00
ENDCHAR
STARTCHAR uni01EB
ENCODING 491
SWIDTH 555 0
DWIDTH 9 0
BBX 7 11 1 -3
BITMAP
38
FE
C6
C6
C6
C6
FE
78
30
30
38
ENDCHAR
STARTCHAR uni01F4
ENCODING 500
SWIDTH 638 0
DWIDTH 10 0
BBX 8 14 1 0
BITMAP
02
0F
0C
00
3E
7F
E2
C0
CF
CF
C3
E3
7F
3E
ENDCHAR
STARTCHAR uni01F5
ENCODING 501
SWIDTH 534 0
DWIDTH 9 0
BBX 7 16 1 -3
BITMAP
08
0C
1A
30
00
7E
FE
CC
FC
F8
C0
FE
7E
86
FE
FC
ENDCHAR
STARTCHAR uni01F8
ENCODING 504
SWIDTH 665 0
DWIDTH 11 0
BBX 8 14 1 0
BITMAP
30
38
0C
00
E3
E3
F3
DB
DB
CF
CF
C7
C7
C3
ENDCHAR
STARTCHAR uni01F9
ENCODING 505
SWIDTH 572 0
DWIDTH 9 0
BBX 7 13 1 0
BITMAP
20
70
38
10
00
DC
FE
E6
C6
C6
C6
C6
C6
ENDCHAR
STARTCHAR uni01FC
ENCODING 508
SWIDTH 845 0
DWIDTH 14 0
BBX 13 14 0 0
BITMAP
0060
00E0
0180
0000
0FF8
0FF8
1F80
1B80
1BF0
33F0
3F80
7F80
63F8
E3F8
ENDCHAR
STARTCHAR uni01FD
ENCODING 509
SWIDTH 786 0
DWIDTH 13 0
BBX 11 13 1 0
BITMAP
0100
0380
0700
0400
0000
7BC0
FFC0
8C60
3FE0
FFE0
CE40
FFC0
73E0
ENDCHAR
STARTCHAR uni0218
ENCODING 536
SWIDTH 556 0
DWIDTH 9 0
BBX 7 14 1 -4
BITMAP
3C
FE
C4
E0
7C
3E
06
C6
FE
7C
00
18
38
30
ENDCHAR
STARTCHAR uni0219
ENCODING 537
SWIDTH 443 0
DWIDTH 7 0
BBX 7 12 0 -4
BITMAP
3C
7E
64
78
1C
4E
FC
78
00
18
08
38
ENDCHAR
STARTCHAR uni021A
ENCODING 538
SWIDTH 556 0
DWIDTH 9 0
BBX 9 14 0 -4
BITMAP
FF80
FF80
1C00
1C00
1C00
1C00
1C00
1C00
1C00
1C00
0000
1C00
0C00
1800
ENDCHAR
STARTCHAR uni021B
ENCODING 539
SWIDTH 383 0
DWIDTH 6 0
BBX 6 15 0 -4
BITMAP
30
30
30
FC
FC
70
70
70
70
3C
3C
00
18
08
38
ENDCHAR
STARTCHAR uni0237
ENCODING 567
SWIDTH 278 0
DWIDTH 4 0
BBX 4 11 -1 -3
BITMAP
30
30
30
30
30
30
30
30
30
F0
E0
ENDCHAR
STARTCHAR uni0243
ENCODING 579
SWIDTH 628 0
DWIDTH 10 0
BBX 10 10 0 0
BITMAP
3F00
3F80
3180
3F00
3F80
3180
FDC0
3180
3F80
3F00
ENDCHAR
STARTCHAR uni0250
ENCODING 592
SWIDTH 534 0
DWIDTH 9 0
BBX 7 8 1 0
BITMAP
DC
FE
EE
FC
F8
C4
FC
7E
ENDCHAR
STARTCHAR uni0251
ENCODING 593
SWIDTH 573 0
DWIDTH 9 0
BBX 7 8 1 0
BITMAP
7E
FE
CE
C6
C6
CE
FE
76
ENDCHAR
STARTCHAR uni0252
ENCODING 594
SWIDTH 573 0
DWIDTH 9 0
BBX 8 8 1 0
BITMAP
DC
FE
E6
C7
C7
E6
FE
DC
ENDCHAR
STARTCHAR uni0253
ENCODING 595
SWIDTH 573 0
DWIDTH 9 0
BBX 8 11 1 0
BITMAP
78
F8
E0
DC
FE
E6
C7
C7
E6
FE
DC
ENDCHAR
STARTCHAR uni0254
ENCODING 596
SWIDTH 467 0
DWIDTH 7 0
BBX 7 8 0 0
BITMAP
78
FC
0E
0E
0E
8E
7C
F8
ENDCHAR
STARTCHAR uni0255
ENCODING 597
SWIDTH 467 0
DWIDTH 7 0
BBX 7 9 0 -1
BITMAP
1C
7E
60
6E
7E
72
7E
7C
C0
ENDCHAR
STARTCHAR uni0256
ENCODING 598
SWIDTH 573 0
DWIDTH 9 0
BBX 9 14 1 -3
BITMAP
0600
0600
0600
7E00
FE00
C600
C600
C600
C600
FE00
7600
0600
0700
0380
ENDCHAR
STARTCHAR uni0257
ENCODING 599
SWIDTH 573 0
DWIDTH 9 0
BBX 9 11 1 0
BITMAP
0380
0700
0600
7E00
FE00
C600
C600
C600
CE00
FE00
7600
ENDCHAR
STARTCHAR uni0258
ENCODING 600
SWIDTH 518 0
DWIDTH 8 0
BBX 7 8 1 0
BITMAP
78
FC
CC
FE
FE
8C
FC
78
ENDCHAR
STARTCHAR uni0259
ENCODING 601
SWIDTH 518 0
DWIDTH 8 0
BBX 7 8 1 0
BITMAP
78
FC
8C
FE
FE
CC
FC
78
ENDCHAR
STARTCHAR uni025A
ENCODING 602
SWIDTH 707 0
DWIDTH 11 0
BBX 11 8 1 0
BITMAP
7900
FF80
9F80
7EE0
E600
CC00
FC00
7800
ENDCHAR
STARTCHAR uni025B
ENCODING 603
SWIDTH 462 0
DWIDTH 7 0
BBX 6 8 1 0
BITMAP
78
FC
C0
78
F8
C8
FC
78
ENDCHAR
STARTCHAR uni025C
ENCODING 604
SWIDTH 476 0
DWIDTH 8 0
BBX 6 8 1 0
BITMAP
F8
F8
1C
78
78
8C
FC
F8
ENDCHAR
STARTCHAR uni025E
ENCODING 606
SWIDTH 566 0
DWIDTH 9 0
BBX 8 8 1 0
BITMAP
78
FE
C6
76
F7
C6
FE
7C
ENDCHAR
STARTCHAR uni025F
ENCODING 607
SWIDTH 321 0
DWIDTH 5 0
BBX 6 11 -1 -3
BITMAP
38
38
38
7C
7C
38
38
38
38
78
F0
ENDCHAR
STARTCHAR uni0260
ENCODING 608
SWIDTH 583 0
DWIDTH 9 0
BBX 9 14 1 -3
BITMAP
0380
0780
0600
7E00
FE00
E600
C600
C600
C600
FE00
7E00
8600
FE00
7C00
ENDCHAR
STARTCHAR uni0261
ENCODING 609
SWIDTH 583 0
DWIDTH 9 0
BBX 7 11 1 -3
BITMAP
7E
FE
E6
C6
C6
C6
FE
7E
86
FE
7C
ENDCHAR
STARTCHAR uni0262
ENCODING 610
SWIDTH 517 0
DWIDTH 8 0
BBX 7 8 1 0
BITMAP
3C
FC
E8
DE
DE
C6
FE
3C
ENDCHAR
STARTCHAR uni0263
ENCODING 611
SWIDTH 523 0
DWIDTH 8 0
BBX 8 11 0 -3
BITMAP
E3
67
66
36
3C
3C
1C
3C
36
3E
1C
ENDCHAR
STARTCHAR uni0264
ENCODING 612
SWIDTH 569 0
DWIDTH 9 0
BBX 9 8 0 0
BITMAP
F780
7F00
1C00
3E00
3700
7700
3E00
1E00
ENDCHAR
STARTCHAR uni0265
ENCODING 613
SWIDTH 572 0
DWIDTH 9 0
BBX 7 11 1 -3
BITMAP
C6
C6
C6
C6
C6
CE
FE
76
06
06
06
ENDCHAR
STARTCHAR uni0266
ENCODING 614
SWIDTH 571 0
DWIDTH 9 0
BBX 7 11 1 0
BITMAP
78
F8
E0
DC
FE
E6
C6
C6
C6
C6
C6
ENDCHAR
STARTCHAR uni0267
ENCODING 615
SWIDTH 571 0
DWIDTH 9 0
BBX 7 14 1 -3
BITMAP
78
F8
E0
DC
FE
E6
C6
C6
C6
C6
C6
06
1E
1C
ENDCHAR
STARTCHAR uni0268
ENCODING 616
SWIDTH 321 0
DWIDTH 5 0
BBX 5 11 0 0
BITMAP
70
70
00
70
70
70
F8
F8
70
70
70
ENDCHAR
STARTCHAR uni026A
ENCODING 618
SWIDTH 395 0
DWIDTH 6 0
BBX 4 8 1 0
BITMAP
F0
F0
60
60
60
60
F0
F0
ENDCHAR
STARTCHAR uni026C
ENCODING 620
SWIDTH 377 0
DWIDTH 6 0
BBX 6 11 0 0
BITMAP
38
38
38
F8
B8
FC
38
38
38
38
1C
ENDCHAR
STARTCHAR uni026D
ENCODING 621
SWIDTH 286 0
DWIDTH 5 0
BBX 4 14 1 -3
BITMAP
C0
C0
C0
C0
C0
C0
C0
C0
C0
C0
C0
C0
F0
70
ENDCHAR
STARTCHAR uni026E
ENCODING 622
SWIDTH 640 0
DWIDTH 10 0
BBX 9 14 1 -3
BITMAP
C000
C000
C000
FF80
FF00
C700
C600
CE00
DF00
D380
C180
2380
3F00
1E00
ENDCHAR
STARTCHAR uni026F
ENCODING 623
SWIDTH 857 0
DWIDTH 14 0
BBX 12 8 1 0
BITMAP
C670
C670
C670
C670
C670
CE70
FFF0
73B0
ENDCHAR
STARTCHAR uni0270
ENCODING 624
SWIDTH 857 0
DWIDTH 14 0
BBX 12 11 1 -3
BITMAP
C670
C670
C670
C670
C670
CE70
FFF0
73F0
0070
0070
0070
ENDCHAR
STARTCHAR uni0271
ENCODING 625
SWIDTH 857 0
DWIDTH 14 0
BBX 12 11 1 -3
BITMAP
DCE0
FFE0
E770
C670
C670
C670
C670
C670
0070
00E0
00E0
ENDCHAR
STARTCHAR uni0272
ENCODING 626
SWIDTH 572 0
DWIDTH 9 0
BBX 9 11 -1 -3
BITMAP
3700
3F80
3980
3180
3180
3180
3180
3180
3000
7000
E000
ENDCHAR
STARTCHAR uni0273
ENCODING 627
SWIDTH 572 0
DWIDTH 9 0
BBX 9 11 1 -3
BITMAP
DC00
FE00
E600
C600
C600
C600
C600
C600
0600
0700
0380
ENDCHAR
STARTCHAR uni0274
ENCODING 628
SWIDTH 561 0
DWIDTH 9 0
BBX 7 8 1 0
BITMAP
C6
E6
F6
F6
DE
DE
CE
CE
ENDCHAR
STARTCHAR uni0275
ENCODING 629
SWIDTH 555 0
DWIDTH 9 0
BBX 7 8 1 0
BITMAP
78
FE
C6
FE
FE
C6
FE
78
ENDCHAR
STARTCHAR uni0276
ENCODING 630
SWIDTH 726 0
DWIDTH 12 0
BBX 10 8 1 0
BITMAP
3FC0
FFC0
EE00
CFC0
CFC0
CE00
FFC0
3FC0
ENDCHAR
STARTCHAR uni0278
ENCODING 632
SWIDTH 738 0
DWIDTH 12 0
BBX 10 14 1 -3
BITMAP
0C00
0C00
0C00
3F00
FF80
EDC0
CCC0
CCC0
EDC0
FF80
3F00
0C00
0C00
0C00
ENDCHAR
STARTCHAR uni0279
ENCODING 633
SWIDTH 398 0
DWIDTH 6 0
BBX 5 8 0 0
BITMAP
18
18
18
18
18
38
F8
D8
ENDCHAR
STARTCHAR uni027A
ENCODING 634
SWIDTH 398 0
DWIDTH 6 0
BBX 5 11 0 0
BITMAP
18
18
18
18
18
18
18
18
38
F8
D8
ENDCHAR
STARTCHAR uni027B
ENCODING 635
SWIDTH 398 0
DWIDTH 6 0
BBX 7 11 0 -3
BITMAP
18
18
18
18
18
38
F8
D8
18
1E
0E
ENDCHAR
STARTCHAR uni027D
ENCODING 637
SWIDTH 398 0
DWIDTH 6 0
BBX 5 11 1 -3
BITMAP
D8
F8
E0
C0
C0
C0
C0
C0
C0
F0
70
ENDCHAR
STARTCHAR uni027E
ENCODING 638
SWIDTH 380 0
DWIDTH 6 0
BBX 5 8 1 0
BITMAP
78
F8
E0
C0
C0
C0
C0
C0
ENDCHAR
STARTCHAR uni0280
ENCODING 640
SWIDTH 532 0
DWIDTH 9 0
BBX 7 8 1 0
BITMAP
F8
CC
CE
CE
FC
F8
CC
CE
ENDCHAR
STARTCHAR uni0281
ENCODING 641
SWIDTH 532 0
DWIDTH 9 0
BBX 7 8 0 0
BITMAP
E6
76
3E
7E
66
66
7E
3E
ENDCHAR
STARTCHAR uni0282
ENCODING 642
SWIDTH 443 0
DWIDTH 7 0
BBX 7 11 0 -3
BITMAP
3C
7E
64
78
1C
4E
7C
F8
E0
70
70
ENDCHAR
STARTCHAR uni0283
ENCODING 643
SWIDTH 278 0
DWIDTH 4 0
BBX 6 14 -1 -3
BITMAP
1C
3C
38
30
30
30
30
30
30
30
30
30
F0
E0
ENDCHAR
STARTCHAR uni0284
ENCODING 644
SWIDTH 321 0
DWIDTH 5 0
BBX 7 14 -1 -3
BITMAP
1E
1C
38
38
38
38
7C
38
38
38
38
38
70
F0
ENDCHAR
STARTCHAR uni0288
ENCODING 648
SWIDTH 383 0
DWIDTH 6 0
BBX 6 13 0 -3
BITMAP
30
30
FC
FC
70
70
70
70
70
70
70
3C
3C
ENDCHAR
STARTCHAR uni0289
ENCODING 649
SWIDTH 617 0
DWIDTH 10 0
BBX 10 8 0 0
BITMAP
7380
7380
7380
FFC0
7380
7380
3F80
3D80
ENDCHAR
STARTCHAR uni028A
ENCODING 650
SWIDTH 558 0
DWIDTH 9 0
BBX 8 8 0 0
BITMAP
F7
F7
67
63
63
63
7F
3E
ENDCHAR
STARTCHAR uni028B
ENCODING 651
SWIDTH 552 0
DWIDTH 9 0
BBX 7 8 1 0
BITMAP
DC
CE
C6
C6
C6
EE
FC
78
ENDCHAR
STARTCHAR uni028C
ENCODING 652
SWIDTH 523 0
DWIDTH 8 0
BBX 8 8 0 0
BITMAP
1C
3C
3C
36
66
66
67
E3
ENDCHAR
STARTCHAR uni028D
ENCODING 653
SWIDTH 776 0
DWIDTH 12 0
BBX 12 8 0 0
BITMAP
39C0
39C0
3D60
6D60
6F60
6760
6770
E630
ENDCHAR
STARTCHAR uni028E
ENCODING 654
SWIDTH 521 0
DWIDTH 8 0
BBX 8 11 0 0
BITMAP
07
0E
1C
18
18
3C
3C
66
66
67
E3
ENDCHAR
STARTCHAR uni028F
ENCODING 655
SWIDTH 466 0
DWIDTH 7 0
BBX 8 8 0 0
BITMAP
E7
66
6C
3C
38
18
18
18
ENDCHAR
STARTCHAR uni0290
ENCODING 656
SWIDTH 460 0
DWIDTH 7 0
BBX 7 11 1 -3
BITMAP
FC
FC
18
30
70
E0
FC
FC
1C
0E
0E
ENDCHAR
STARTCHAR uni0291
ENCODING 657
SWIDTH 503 0
DWIDTH 8 0
BBX 7 9 1 -1
BITMAP
FC
F8
18
30
6E
6A
FE
FC
30
ENDCHAR
STARTCHAR uni0292
ENCODING 658
SWIDTH 460 0
DWIDTH 7 0
BBX 7 11 0 -3
BITMAP
7E
7C
18
18
3C
7E
0E
06
4E
FC
78
ENDCHAR
STARTCHAR uni0294
ENCODING 660
SWIDTH 448 0
DWIDTH 7 0
BBX 7 11 0 0
BITMAP
78
FC
4E
06
0E
1C
38
30
30
30
30
ENDCHAR
STARTCHAR uni0295
ENCODING 661
SWIDTH 506 0
DWIDTH 8 0
BBX 7 11 1 0
BITMAP
78
FE
C4
C0
C0
60
38
38
38
38
38
ENDCHAR
STARTCHAR uni0298
ENCODING 664
SWIDTH 556 0
DWIDTH 9 0
BBX 7 11 1 0
BITMAP
38
7C
EE
C6
D6
F6
C6
C6
EE
7C
38
ENDCHAR
STARTCHAR uni0299
ENCODING 665
SWIDTH 528 0
DWIDTH 8 0
BBX 7 8 1 0
BITMAP
FC
FE
CE
FC
FC
C6
FE
FC
ENDCHAR
STARTCHAR uni029C
ENCODING 668
SWIDTH 582 0
DWIDTH 9 0
BBX 7 8 1 0
BITMAP
C6
C6
C6
FE
FE
C6
C6
C6
ENDCHAR
STARTCHAR uni029D
ENCODING 669
SWIDTH 360 0
DWIDTH 6 0
BBX 8 15 -1 -4
BITMAP
1C
1C
00
1C
1C
1C
1C
1C
1C
7C
FC
DC
FE
76
03
ENDCHAR
STARTCHAR uni029F
ENCODING 671
SWIDTH 432 0
DWIDTH 7 0
BBX 6 8 1 0
BITMAP
C0
C0
C0
C0
C0
C0
FC
FC
ENDCHAR
STARTCHAR uni02A1
ENCODING 673
SWIDTH 476 0
DWIDTH 8 0
BBX 7 11 0 0
BITMAP
7C
FE
46
06
0E
1C
FE
FE
38
38
38
ENDCHAR
STARTCHAR uni02A2
ENCODING 674
SWIDTH 476 0
DWIDTH 8 0
BBX 7 11 0 0
BITMAP
3C
7E
62
E0
60
30
FE
FE
18
18
18
ENDCHAR
STARTCHAR h.sups
ENCODING 688
SWIDTH 384 0
DWIDTH 6 0
BBX 5 7 1 6
BITMAP
80
80
B0
D0
98
98
98
ENDCHAR
STARTCHAR j.sups
ENCODING 690
SWIDTH 190 0
DWIDTH 3 0
BBX 3 10 -1 4
BITMAP
20
20
00
20
20
20
20
20
20
E0
ENDCHAR
STARTCHAR r.sups
ENCODING 691
SWIDTH 272 0
DWIDTH 4 0
BBX 3 5 1 6
BITMAP
A0
C0
80
80
80
ENDCHAR
STARTCHAR w.sups
ENCODING 695
SWIDTH 523 0
DWIDTH 8 0
BBX 8 5 0 6
BITMAP
DB
5B
5E
76
76
ENDCHAR
STARTCHAR y.sups
ENCODING 696
SWIDTH 353 0
DWIDTH 6 0
BBX 6 7 0 4
BITMAP
CC
48
78
30
30
30
60
ENDCHAR
STARTCHAR uni02B9
ENCODING 697
SWIDTH 300 0
DWIDTH 5 0
BBX 3 5 1 6
BITMAP
60
60
C0
C0
C0
ENDCHAR
STARTCHAR uni02BB
ENCODING 699
SWIDTH 300 0
DWIDTH 5 0
BBX 3 5 1 6
BITMAP
40
E0
80
C0
E0
ENDCHAR
STARTCHAR uni02BC
ENCODING 700
SWIDTH 300 0
DWIDTH 5 0
BBX 3 5 1 6
BITMAP
E0
E0
20
40
C0
ENDCHAR
STARTCHAR uni02BE
ENCODING 702
SWIDTH 176 0
DWIDTH 3 0
BBX 3 3 0 9
BITMAP
C0
60
C0
ENDCHAR
STARTCHAR uni02BF
ENCODING 703
SWIDTH 176 0
DWIDTH 3 0
BBX 2 3 0 9
BITMAP
40
80
40
ENDCHAR
STARTCHAR uni02C1
ENCODING 705
SWIDTH 343 0
DWIDTH 5 0
BBX 5 8 0 6
BITMAP
30
78
D0
40
60
30
30
30
ENDCHAR
STARTCHAR circumflex
ENCODING 710
SWIDTH 555 0
DWIDTH 9 0
BBX 5 3 2 9
BITMAP
70
D8
88
ENDCHAR
STARTCHAR caron
ENCODING 711
SWIDTH 555 0
DWIDTH 9 0
BBX 5 3 2 9
BITMAP
88
D8
70
ENDCHAR
STARTCHAR uni02C8
ENCODING 712
SWIDTH 147 0
DWIDTH 2 0
BBX 2 3 0 9
BITMAP
C0
C0
C0
ENDCHAR
STARTCHAR uni02C9
ENCODING 713
SWIDTH 308 0
DWIDTH 5 0
BBX 5 1 0 9
BITMAP
F8
ENDCHAR
STARTCHAR uni02CA
ENCODING 714
SWIDTH 236 0
DWIDTH 4 0
BBX 4 4 1 9
BITMAP
20
70
E0
40
ENDCHAR
STARTCHAR uni02CB
ENCODING 715
SWIDTH 236 0
DWIDTH 4 0
BBX 4 4 -1 9
BITMAP
40
E0
70
20
ENDCHAR
STARTCHAR uni02CC
ENCODING 716
SWIDTH 147 0
DWIDTH 2 0
BBX 2 3 0 -4
BITMAP
C0
C0
C0
ENDCHAR
STARTCHAR uni02D0
ENCODING 720
SWIDTH 300 0
DWIDTH 5 0
BBX 3 8 1 0
BITMAP
E0
40
00
00
00
00
40
E0
ENDCHAR
STARTCHAR uni02D1
ENCODING 721
SWIDTH 300 0
DWIDTH 5 0
BBX 3 2 1 6
BITMAP
E0
40
ENDCHAR
STARTCHAR breve
ENCODING 728
SWIDTH 555 0
DWIDTH 9 0
BBX 5 2 2 9
BITMAP
88
70
ENDCHAR
STARTCHAR dotaccent
ENCODING 729
SWIDTH 555 0
DWIDTH 9 0
BBX 3 2 3 9
BITMAP
E0
E0
ENDCHAR
STARTCHAR ring
ENCODING 730
SWIDTH 555 0
DWIDTH 9 0
BBX 5 3 2 9
BITMAP
70
D8
70
ENDCHAR
STARTCHAR ogonek
ENCODING 731
SWIDTH 555 0
DWIDTH 9 0
BBX 3 3 3 -3
BITMAP
60
C0
E0
ENDCHAR
STARTCHAR tilde
ENCODING 732
SWIDTH 555 0
DWIDTH 9 0
BBX 7 3 1 9
BITMAP
66
7C
DC
ENDCHAR
STARTCHAR hungarumlaut
ENCODING 733
SWIDTH 555 0
DWIDTH 9 0
BBX 6 4 2 9
BITMAP
08
2C
68
D8
ENDCHAR
STARTCHAR uni02DE
ENCODING 734
SWIDTH 189 0
DWIDTH 3 0
BBX 5 4 -2 3
BITMAP
60
F0
B8
18
ENDCHAR
STARTCHAR uni02E0
ENCODING 736
SWIDTH 353 0
DWIDTH 6 0
BBX 6 7 0 4
BITMAP
CC
58
78
30
30
78
30
ENDCHAR
STARTCHAR l.sups
ENCODING 737
SWIDTH 194 0
DWIDTH 3 0
BBX 2 7 1 6
BITMAP
80
80
80
80
80
80
C0
ENDCHAR
STARTCHAR s.sups
ENCODING 738
SWIDTH 297 0
DWIDTH 5 0
BBX 5 5 0 6
BITMAP
70
C0
70
98
F0
ENDCHAR
STARTCHAR x.sups
ENCODING 739
SWIDTH 348 0
DWIDTH 6 0
BBX 5 5 0 6
BITMAP
D8
70
30
70
D8
ENDCHAR
STARTCHAR uni0300
ENCODING 768
SWIDTH 0 0
DWIDTH 0 0
BBX 4 4 -3 9
BITMAP
40
E0
70
20
ENDCHAR
STARTCHAR uni0301
ENCODING 769
SWIDTH 0 0
DWIDTH 0 0
BBX 4 4 -1 9
BITMAP
20
70
E0
40
ENDCHAR
STARTCHAR uni0302
ENCODING 770
SWIDTH 0 0
DWIDTH 0 0
BBX 6 3 -3 9
BITMAP
78
78
CC
ENDCHAR
STARTCHAR uni0303
ENCODING 771
SWIDTH 0 0
DWIDTH 0 0
BBX 6 3 -3 9
BITMAP
64
FC
DC
ENDCHAR
STARTCHAR uni0304
ENCODING 772
SWIDTH 0 0
DWIDTH 0 0
BBX 4 1 -2 9
BITMAP
F0
ENDCHAR
STARTCHAR uni0305
ENCODING 773
SWIDTH 0 0
DWIDTH 0 0
BBX 4 1 -2 9
BITMAP
F0
ENDCHAR
STARTCHAR uni0306
ENCODING 774
SWIDTH 0 0
DWIDTH 0 0
BBX 6 2 -3 9
BITMAP
CC
78
ENDCHAR
STARTCHAR uni0307
ENCODING 775
SWIDTH 0 0
DWIDTH 0 0
BBX 2 2 -1 9
BITMAP
C0
C0
ENDCHAR
STARTCHAR uni0308
ENCODING 776
SWIDTH 0 0
DWIDTH 0 0
BBX 6 2 -3 9
BITMAP
CC
CC
ENDCHAR
STARTCHAR uni0309
ENCODING 777
SWIDTH 0 0
DWIDTH 0 0
BBX 3 4 -1 9
BITMAP
C0
C0
60
C0
ENDCHAR
STARTCHAR uni030A
ENCODING 778
SWIDTH 0 0
DWIDTH 0 0
BBX 4 3 -2 9
BITMAP
F0
90
F0
ENDCHAR
STARTCHAR uni030B
ENCODING 779
SWIDTH 0 0
DWIDTH 0 0
BBX 6 4 -2 9
BITMAP
10
6C
D8
D0
ENDCHAR
STARTCHAR uni030C
ENCODING 780
SWIDTH 0 0
DWIDTH 0 0
BBX 6 3 -3 9
BITMAP
CC
78
78
ENDCHAR
STARTCHAR uni030F
ENCODING 783
SWIDTH 0 0
DWIDTH 0 0
BBX 6 3 -4 9
BITMAP
58
EC
2C
ENDCHAR
STARTCHAR uni0311
ENCODING 785
SWIDTH 0 0
DWIDTH 0 0
BBX 6 2 -3 9
BITMAP
78
CC
ENDCHAR
STARTCHAR uni0312
ENCODING 786
SWIDTH 0 0
DWIDTH 0 0
BBX 2 4 -1 9
BITMAP
40
80
C0
C0
ENDCHAR
STARTCHAR uni0313
ENCODING 787
SWIDTH 0 0
DWIDTH 0 0
BBX 2 4 -1 9
BITMAP
C0
C0
40
80
ENDCHAR
STARTCHAR uni0318
ENCODING 792
SWIDTH 0 0
DWIDTH 0 0
BBX 3 4 -1 -4
BITMAP
60
E0
E0
60
ENDCHAR
STARTCHAR uni0319
ENCODING 793
SWIDTH 0 0
DWIDTH 0 0
BBX 3 4 -2 -4
BITMAP
C0
E0
E0
C0
ENDCHAR
STARTCHAR uni031A
ENCODING 794
SWIDTH 0 0
DWIDTH 0 0
BBX 3 3 -1 8
BITMAP
E0
E0
60
ENDCHAR
STARTCHAR uni031B
ENCODING 795
SWIDTH 0 0
DWIDTH 0 0
BBX 3 4 0 7
BITMAP
20
60
60
C0
ENDCHAR
STARTCHAR uni031C
ENCODING 796
SWIDTH 0 0
DWIDTH 0 0
BBX 2 3 -1 -4
BITMAP
C0
80
C0
ENDCHAR
STARTCHAR uni031D
ENCODING 797
SWIDTH 0 0
DWIDTH 0 0
BBX 4 4 -2 -4
BITMAP
60
60
F0
F0
ENDCHAR
STARTCHAR uni031E
ENCODING 798
SWIDTH 0 0
DWIDTH 0 0
BBX 4 4 -2 -5
BITMAP
F0
F0
60
60
ENDCHAR
STARTCHAR uni031F
ENCODING 799
SWIDTH 0 0
DWIDTH 0 0
BBX 4 4 -2 -4
BITMAP
60
F0
F0
60
ENDCHAR
STARTCHAR uni0320
ENCODING 800
SWIDTH 0 0
DWIDTH 0 0
BBX 4 2 -2 -3
BITMAP
F0
F0
ENDCHAR
STARTCHAR uni0323
ENCODING 803
SWIDTH 0 0
DWIDTH 0 0
BBX 2 2 -1 -4
BITMAP
C0
C0
ENDCHAR
STARTCHAR uni0324
ENCODING 804
SWIDTH 0 0
DWIDTH 0 0
BBX 6 2 -3 -4
BITMAP
CC
CC
ENDCHAR
STARTCHAR uni0325
ENCODING 805
SWIDTH 0 0
DWIDTH 0 0
BBX 4 3 -2 -4
BITMAP
F0
90
F0
ENDCHAR
STARTCHAR uni0326
ENCODING 806
SWIDTH 0 0
DWIDTH 0 0
BBX 4 3 -2 -4
BITMAP
60
30
E0
ENDCHAR
STARTCHAR uni0327
ENCODING 807
SWIDTH 0 0
DWIDTH 0 0
BBX 4 4 -2 -4
BITMAP
60
60
30
E0
ENDCHAR
STARTCHAR uni0328
ENCODING 808
SWIDTH 0 0
DWIDTH 0 0
BBX 3 3 -1 -3
BITMAP
C0
80
E0
ENDCHAR
STARTCHAR uni0329
ENCODING 809
SWIDTH 0 0
DWIDTH 0 0
BBX 2 3 -1 -4
BITMAP
C0
C0
C0
ENDCHAR
STARTCHAR uni032A
ENCODING 810
SWIDTH 0 0
DWIDTH 0 0
BBX 4 3 -2 -4
BITMAP
F0
F0
90
ENDCHAR
STARTCHAR uni032C
ENCODING 812
SWIDTH 0 0
DWIDTH 0 0
BBX 6 3 -3 -4
BITMAP
CC
78
78
ENDCHAR
STARTCHAR uni032E
ENCODING 814
SWIDTH 0 0
DWIDTH 0 0
BBX 6 2 -3 -4
BITMAP
CC
78
ENDCHAR
STARTCHAR uni032F
ENCODING 815
SWIDTH 0 0
DWIDTH 0 0
BBX 6 2 -3 -4
BITMAP
78
CC
ENDCHAR
STARTCHAR uni0330
ENCODING 816
SWIDTH 0 0
DWIDTH 0 0
BBX 6 3 -3 -4
BITMAP
64
FC
DC
ENDCHAR
STARTCHAR uni0331
ENCODING 817
SWIDTH 0 0
DWIDTH 0 0
BBX 4 1 -2 -3
BITMAP
F0
ENDCHAR
STARTCHAR uni0334
ENCODING 820
SWIDTH 0 0
DWIDTH 0 0
BBX 6 3 -3 3
BITMAP
64
FC
DC
ENDCHAR
STARTCHAR uni0339
ENCODING 825
SWIDTH 0 0
DWIDTH 0 0
BBX 2 3 -1 -4
BITMAP
C0
40
C0
ENDCHAR
STARTCHAR uni033A
ENCODING 826
SWIDTH 0 0
DWIDTH 0 0
BBX 4 3 -2 -3
BITMAP
90
F0
F0
ENDCHAR
STARTCHAR uni033B
ENCODING 827
SWIDTH 0 0
DWIDTH 0 0
BBX 4 3 -2 -4
BITMAP
F0
90
F0
ENDCHAR
STARTCHAR uni033C
ENCODING 828
SWIDTH 0 0
DWIDTH 0 0
BBX 6 3 -3 -4
BITMAP
78
FC
B4
ENDCHAR
STARTCHAR uni033D
ENCODING 829
SWIDTH 0 0
DWIDTH 0 0
BBX 4 3 -2 9
BITMAP
60
F0
F0
ENDCHAR
STARTCHAR uni0342
ENCODING 834
SWIDTH 0 0
DWIDTH 0 0
BBX 6 3 -3 9
BITMAP
64
FC
DC
ENDCHAR
STARTCHAR uni0345
ENCODING 837
SWIDTH 0 0
DWIDTH 0 0
BBX 3 2 -1 -3
BITMAP
C0
E0
ENDCHAR
STARTCHAR uni0361
ENCODING 865
SWIDTH 0 0
DWIDTH 0 0
BBX 14 4 -7 8
BITMAP
0FC0
7FF8
E01C
8004
ENDCHAR
STARTCHAR uni0374
ENCODING 884
SWIDTH 300 0
DWIDTH 5 0
BBX 3 5 1 6
BITMAP
60
60
C0
C0
C0
ENDCHAR
STARTCHAR uni0375
ENCODING 885
SWIDTH 300 0
DWIDTH 5 0
BBX 2 5 1 0
BITMAP
40
40
C0
C0
C0
ENDCHAR
STARTCHAR uni037A
ENCODING 890
SWIDTH 555 0
DWIDTH 9 0
BBX 2 2 4 -3
BITMAP
80
C0
ENDCHAR
STARTCHAR uni037E
ENCODING 894
SWIDTH 300 0
DWIDTH 5 0
BBX 3 11 1 -3
BITMAP
C0
E0
C0
00
00
00
E0
E0
60
60
C0
ENDCHAR
STARTCHAR tonos
ENCODING 900
SWIDTH 555 0
DWIDTH 9 0
BBX 2 4 4 9
BITMAP
C0
C0
C0
80
ENDCHAR
STARTCHAR dieresistonos
ENCODING 901
SWIDTH 555 0
DWIDTH 9 0
BBX 7 4 1 9
BITMAP
18
18
54
D6
ENDCHAR
STARTCHAR Alphatonos
ENCODING 902
SWIDTH 622 0
DWIDTH 10 0
BBX 10 10 0 0
BITMAP
CE00
DE00
DB00
9B00
3B00
3380
3F80
3F80
71C0
61C0
ENDCHAR
STARTCHAR anoteleia
ENCODING 903
SWIDTH 300 0
DWIDTH 5 0
BBX 3 3 1 5
BITMAP
C0
E0
C0
ENDCHAR
STARTCHAR Epsilontonos
ENCODING 904
SWIDTH 667 0
DWIDTH 11 0
BBX 10 10 0 0
BITMAP
DFC0
DFC0
D800
9800
1F80
1F80
1800
1800
1FC0
1FC0
ENDCHAR
STARTCHAR Etatonos
ENCODING 905
SWIDTH 792 0
DWIDTH 13 0
BBX 11 10 0 0
BITMAP
D860
D860
D860
9860
1FE0
1FE0
1860
1860
1860
1860
ENDCHAR
STARTCHAR Iotatonos
ENCODING 906
SWIDTH 420 0
DWIDTH 7 0
BBX 5 10 0 0
BITMAP
D8
D8
D8
98
18
18
18
18
18
18
ENDCHAR
STARTCHAR Omicrontonos
ENCODING 908
SWIDTH 777 0
DWIDTH 12 0
BBX 12 10 0 0
BITMAP
C780
DFE0
DCE0
B870
3870
3870
3870
1CE0
1FE0
0780
ENDCHAR
STARTCHAR Upsilontonos
ENCODING 910
SWIDTH 704 0
DWIDTH 11 0
BBX 11 10 0 0
BITMAP
D860
DCE0
CCC0
8EC0
0780
0780
0300
0300
0300
0300
ENDCHAR
STARTCHAR Omegatonos
ENCODING 911
SWIDTH 803 0
DWIDTH 13 0
BBX 12 10 0 0
BITMAP
C780
DFE0
DC60
9870
3870
1870
1860
0CE0
3CF0
3CF0
ENDCHAR
STARTCHAR iotadieresistonos
ENCODING 912
SWIDTH 301 0
DWIDTH 5 0
BBX 6 13 -1 0
BITMAP
18
10
D4
FC
00
30
30
30
30
30
30
3C
1C
ENDCHAR
STARTCHAR Alpha
ENCODING 913
SWIDTH 573 0
DWIDTH 9 0
BBX 9 10 0 0
BITMAP
1C00
1C00
3600
3600
3600
7300
7F00
7F00
E380
C180
ENDCHAR
STARTCHAR Beta
ENCODING 914
SWIDTH 605 0
DWIDTH 10 0
BBX 8 10 1 0
BITMAP
FC
FE
E7
E6
FE
FF
E3
E3
FF
FE
ENDCHAR
STARTCHAR Gamma
ENCODING 915
SWIDTH 521 0
DWIDTH 8 0
BBX 7 10 1 0
BITMAP
FE
FE
E0
E0
E0
E0
E0
E0
E0
E0
ENDCHAR
STARTCHAR uni0394
ENCODING 916
SWIDTH 640 0
DWIDTH 10 0
BBX 9 10 1 0
BITMAP
1C00
3C00
3C00
7600
6600
6700
E300
C300
FF80
FF80
ENDCHAR
STARTCHAR Epsilon
ENCODING 917
SWIDTH 548 0
DWIDTH 9 0
BBX 7 10 1 0
BITMAP
FE
FE
E0
E0
FC
FC
E0
E0
FE
FE
ENDCHAR
STARTCHAR Zeta
ENCODING 918
SWIDTH 541 0
DWIDTH 9 0
BBX 7 10 1 0
BITMAP
FE
FE
0C
18
18
30
60
60
FE
FE
ENDCHAR
STARTCHAR Eta
ENCODING 919
SWIDTH 674 0
DWIDTH 11 0
BBX 9 10 1 0
BITMAP
E380
E380
E380
E380
FF80
FF80
E380
E380
E380
E380
ENDCHAR
STARTCHAR Theta
ENCODING 920
SWIDTH 684 0
DWIDTH 11 0
BBX 9 10 1 0
BITMAP
3E00
7F00
E380
C180
DD80
DD80
C180
E380
7F00
3E00
ENDCHAR
STARTCHAR Iota
ENCODING 921
SWIDTH 301 0
DWIDTH 5 0
BBX 3 10 1 0
BITMAP
E0
E0
E0
E0
E0
E0
E0
E0
E0
E0
ENDCHAR
STARTCHAR Kappa
ENCODING 922
SWIDTH 614 0
DWIDTH 10 0
BBX 9 10 1 0
BITMAP
E700
E600
EC00
FC00
FC00
FC00
EE00
E600
E700
E380
ENDCHAR
STARTCHAR Lambda
ENCODING 923
SWIDTH 556 0
DWIDTH 9 0
BBX 9 10 0 0
BITMAP
1C00
1C00
3600
3600
3600
6700
6300
6300
E380
C380
ENDCHAR
STARTCHAR Mu
ENCODING 924
SWIDTH 762 0
DWIDTH 12 0
BBX 10 10 1 0
BITMAP
E1C0
E1C0
F3C0
F3C0
DAC0
DEC0
DEC0
CCC0
CCC0
C0C0
ENDCHAR
STARTCHAR Nu
ENCODING 925
SWIDTH 665 0
DWIDTH 11 0
BBX 8 10 1 0
BITMAP
E3
E3
F3
DB
DB
CF
CF
C7
C7
C3
ENDCHAR
STARTCHAR Xi
ENCODING 926
SWIDTH 571 0
DWIDTH 9 0
BBX 7 10 1 0
BITMAP
FE
FE
00
00
7C
7C
00
00
FE
FE
ENDCHAR
STARTCHAR Omicron
ENCODING 927
SWIDTH 684 0
DWIDTH 11 0
BBX 9 10 1 0
BITMAP
3E00
7F00
E380
C180
C180
C180
C180
E380
7F00
3E00
ENDCHAR
STARTCHAR Pi
ENCODING 928
SWIDTH 663 0
DWIDTH 11 0
BBX 8 10 1 0
BITMAP
FF
FF
E3
E3
E3
E3
E3
E3
E3
E3
ENDCHAR
STARTCHAR Rho
ENCODING 929
SWIDTH 596 0
DWIDTH 10 0
BBX 8 10 1 0
BITMAP
FC
FE
E7
E3
E7
FE
FC
E0
E0
E0
ENDCHAR
STARTCHAR Sigma
ENCODING 931
SWIDTH 549 0
DWIDTH 9 0
BBX 7 10 1 0
BITMAP
FE
FE
60
30
38
38
70
60
FE
FE
ENDCHAR
STARTCHAR Tau
ENCODING 932
SWIDTH 556 0
DWIDTH 9 0
BBX 9 10 0 0
BITMAP
FF80
FF80
1C00
1C00
1C00
1C00
1C00
1C00
1C00
1C00
ENDCHAR
STARTCHAR Upsilon
ENCODING 933
SWIDTH 525 0
DWIDTH 8 0
BBX 9 10 0 0
BITMAP
E380
6700
6600
3600
3C00
1C00
1800
1800
1800
1800
ENDCHAR
STARTCHAR Phi
ENCODING 934
SWIDTH 760 0
DWIDTH 12 0
BBX 10 11 1 0
BITMAP
0C00
3F00
7F80
EDC0
CCC0
CCC0
CCC0
EDC0
7F80
3F00
0C00
ENDCHAR
STARTCHAR Chi
ENCODING 935
SWIDTH 567 0
DWIDTH 9 0
BBX 9 10 0 0
BITMAP
E380
7300
3600
3E00
1C00
1C00
3600
3600
6300
E380
ENDCHAR
STARTCHAR Psi
ENCODING 936
SWIDTH 752 0
DWIDTH 12 0
BBX 10 10 1 0
BITMAP
CCC0
CCC0
CCC0
CCC0
EDC0
7F80
3F00
0C00
0C00
0C00
ENDCHAR
STARTCHAR uni03A9
ENCODING 937
SWIDTH 711 0
DWIDTH 11 0
BBX 10 10 1 0
BITMAP
3E00
7F00
E380
E180
C180
C180
E180
6300
F7C0
F7C0
ENDCHAR
STARTCHAR Iotadieresis
ENCODING 938
SWIDTH 301 0
DWIDTH 5 0
BBX 5 13 0 0
BITMAP
D8
D8
00
70
70
70
70
70
70
70
70
70
70
ENDCHAR
STARTCHAR Upsilondieresis
ENCODING 939
SWIDTH 525 0
DWIDTH 8 0
BBX 9 13 0 0
BITMAP
6600
7600
0000
E380
6700
6600
3600
3C00
1C00
1800
1800
1800
1800
ENDCHAR
STARTCHAR alphatonos
ENCODING 940
SWIDTH 595 0
DWIDTH 10 0
BBX 8 13 1 0
BITMAP
18
1C
18
18
00
7B
FF
CE
C6
C6
CE
FF
77
ENDCHAR
STARTCHAR epsilontonos
ENCODING 941
SWIDTH 471 0
DWIDTH 8 0
BBX 6 13 1 0
BITMAP
18
18
30
30
00
78
FC
C8
70
F0
C8
FC
78
ENDCHAR
STARTCHAR etatonos
ENCODING 942
SWIDTH 562 0
DWIDTH 9 0
BBX 7 15 1 -2
BITMAP
08
1C
18
18
00
DC
FE
E6
C6
C6
C6
C6
C6
06
06
ENDCHAR
STARTCHAR iotatonos
ENCODING 943
SWIDTH 301 0
DWIDTH 5 0
BBX 4 13 1 0
BITMAP
60
60
40
C0
00
C0
C0
C0
C0
C0
C0
F0
70
ENDCHAR
STARTCHAR upsilondieresistonos
ENCODING 944
SWIDTH 532 0
DWIDTH 9 0
BBX 7 13 1 0
BITMAP
18
10
D4
FC
00
CC
CE
CE
CE
CE
CE
FC
78
ENDCHAR
STARTCHAR alpha
ENCODING 945
SWIDTH 595 0
DWIDTH 10 0
BBX 8 8 1 0
BITMAP
7B
FF
CE
C6
C6
CE
FF
77
ENDCHAR
STARTCHAR beta
ENCODING 946
SWIDTH 600 0
DWIDTH 10 0
BBX 8 13 1 -2
BITMAP
3C
7E
E6
C6
DC
DE
C7
C3
E7
FF
DE
C0
C0
ENDCHAR
STARTCHAR gamma
ENCODING 947
SWIDTH 533 0
DWIDTH 9 0
BBX 8 10 0 -2
BITMAP
E3
63
73
36
36
1C
1C
18
18
18
ENDCHAR
STARTCHAR delta
ENCODING 948
SWIDTH 548 0
DWIDTH 9 0
BBX 7 11 1 0
BITMAP
7C
FE
64
70
3C
EE
C6
C6
C6
FE
78
ENDCHAR
STARTCHAR epsilon
ENCODING 949
SWIDTH 471 0
DWIDTH 8 0
BBX 6 8 1 0
BITMAP
78
FC
C8
70
F0
C8
FC
78
ENDCHAR
STARTCHAR zeta
ENCODING 950
SWIDTH 466 0
DWIDTH 7 0
BBX 6 13 1 -2
BITMAP
FC
FC
18
30
60
E0
C0
C0
E0
FC
7C
0C
1C
ENDCHAR
STARTCHAR eta
ENCODING 951
SWIDTH 562 0
DWIDTH 9 0
BBX 7 10 1 -2
BITMAP
DC
FE
E6
C6
C6
C6
C6
C6
06
06
ENDCHAR
STARTCHAR theta
ENCODING 952
SWIDTH 549 0
DWIDTH 9 0
BBX 7 11 1 0
BITMAP
38
7C
CE
C6
FE
FE
C6
C6
EE
7C
38
ENDCHAR
STARTCHAR iota
ENCODING 953
SWIDTH 301 0
DWIDTH 5 0
BBX 4 8 1 0
BITMAP
C0
C0
C0
C0
C0
C0
F0
70
ENDCHAR
STARTCHAR kappa
ENCODING 954
SWIDTH 546 0
DWIDTH 9 0
BBX 8 8 1 0
BITMAP
C6
CE
DC
F8
F8
EC
CE
C7
ENDCHAR
STARTCHAR lambda
ENCODING 955
SWIDTH 552 0
DWIDTH 9 0
BBX 9 11 0 0
BITMAP
F000
7800
1C00
0C00
1C00
1E00
3600
3700
7700
6300
E380
ENDCHAR
STARTCHAR uni03BC
ENCODING 956
SWIDTH 594 0
DWIDTH 10 0
BBX 8 10 1 -2
BITMAP
C6
C6
C6
C6
C6
EE
FF
F7
C0
C0
ENDCHAR
STARTCHAR nu
ENCODING 957
SWIDTH 523 0
DWIDTH 8 0
BBX 8 8 0 0
BITMAP
E3
63
77
36
36
34
1C
18
ENDCHAR
STARTCHAR xi
ENCODING 958
SWIDTH 469 0
DWIDTH 8 0
BBX 7 13 0 -2
BITMAP
FE
FE
30
70
3C
3C
70
60
70
7E
3E
06
0E
ENDCHAR
STARTCHAR omicron
ENCODING 959
SWIDTH 553 0
DWIDTH 9 0
BBX 7 8 1 0
BITMAP
78
FC
CE
C6
C6
CE
FC
78
ENDCHAR
STARTCHAR pi
ENCODING 960
SWIDTH 635 0
DWIDTH 10 0
BBX 10 8 0 0
BITMAP
FFC0
FFC0
3300
3300
3300
3300
33C0
71C0
ENDCHAR
STARTCHAR rho
ENCODING 961
SWIDTH 569 0
DWIDTH 9 0
BBX 7 10 1 -2
BITMAP
3C
7E
E6
C6
C6
C6
FE
DC
C0
C0
ENDCHAR
STARTCHAR uni03C2
ENCODING 962
SWIDTH 446 0
DWIDTH 7 0
BBX 6 10 1 -2
BITMAP
38
FC
C0
C0
C0
E0
F8
7C
18
18
ENDCHAR
STARTCHAR sigma
ENCODING 963
SWIDTH 573 0
DWIDTH 9 0
BBX 8 8 1 0
BITMAP
7F
FF
CC
C6
C6
CE
FC
78
ENDCHAR
STARTCHAR tau
ENCODING 964
SWIDTH 492 0
DWIDTH 8 0
BBX 7 8 0 0
BITMAP
FE
FE
18
18
18
18
1E
1E
ENDCHAR
STARTCHAR upsilon
ENCODING 965
SWIDTH 532 0
DWIDTH 9 0
BBX 7 8 1 0
BITMAP
CC
CE
CE
CE
CE
CE
FC
78
ENDCHAR
STARTCHAR phi
ENCODING 966
SWIDTH 738 0
DWIDTH 12 0
BBX 10 13 1 -2
BITMAP
0C00
0C00
0C00
3F00
FF80
EDC0
CCC0
CCC0
EDC0
FF80
3F00
0C00
0C00
ENDCHAR
STARTCHAR chi
ENCODING 967
SWIDTH 526 0
DWIDTH 8 0
BBX 9 11 0 -3
BITMAP
E300
6600
3600
3C00
1C00
1C00
3C00
3600
6700
E300
0280
ENDCHAR
STARTCHAR psi
ENCODING 968
SWIDTH 752 0
DWIDTH 12 0
BBX 10 13 1 -2
BITMAP
0C00
0C00
0C00
CDC0
CCC0
CCC0
CCC0
CCC0
EDC0
7F80
3F00
0C00
0C00
ENDCHAR
STARTCHAR omega
ENCODING 969
SWIDTH 746 0
DWIDTH 12 0
BBX 10 8 1 0
BITMAP
4080
E1C0
CCC0
CCC0
CCC0
CCC0
FFC0
7380
ENDCHAR
STARTCHAR iotadieresis
ENCODING 970
SWIDTH 301 0
DWIDTH 5 0
BBX 6 11 -1 0
BITMAP
CC
EC
00
30
30
30
30
30
30
3C
1C
ENDCHAR
STARTCHAR upsilondieresis
ENCODING 971
SWIDTH 532 0
DWIDTH 9 0
BBX 7 11 1 0
BITMAP
CC
EC
00
CC
CE
CE
CE
CE
CE
FC
78
ENDCHAR
STARTCHAR omicrontonos
ENCODING 972
SWIDTH 553 0
DWIDTH 9 0
BBX 7 13 1 0
BITMAP
18
18
18
10
00
78
FC
CE
C6
C6
CE
FC
78
ENDCHAR
STARTCHAR upsilontonos
ENCODING 973
SWIDTH 532 0
DWIDTH 9 0
BBX 7 13 1 0
BITMAP
18
18
10
30
00
CC
CE
CE
CE
CE
CE
FC
78
ENDCHAR
STARTCHAR omegatonos
ENCODING 974
SWIDTH 746 0
DWIDTH 12 0
BBX 10 13 1 0
BITMAP
0400
0E00
0C00
0C00
0000
4080
E1C0
CCC0
CCC0
CCC0
CCC0
FFC0
7380
ENDCHAR
STARTCHAR uni03D0
ENCODING 976
SWIDTH 592 0
DWIDTH 9 0
BBX 8 11 1 0
BITMAP
3C
7E
E6
CE
FC
FE
C7
C3
E7
7E
3C
ENDCHAR
STARTCHAR uni03D1
ENCODING 977
SWIDTH 549 0
DWIDTH 9 0
BBX 7 11 1 0
BITMAP
78
FC
CE
C6
FE
7E
C6
C6
EE
7C
78
ENDCHAR
STARTCHAR uni03D5
ENCODING 981
SWIDTH 738 0
DWIDTH 12 0
BBX 10 10 1 -2
BITMAP
4780
EFC0
CCC0
CCC0
CCC0
EDC0
FF80
3F00
0C00
0C00
ENDCHAR
STARTCHAR uni03D7
ENCODING 983
SWIDTH 546 0
DWIDTH 9 0
BBX 8 11 1 -3
BITMAP
C6
CE
DC
F8
F8
EC
CE
C6
07
0E
1C
ENDCHAR
STARTCHAR uni03D9
ENCODING 985
SWIDTH 553 0
DWIDTH 9 0
BBX 7 10 1 -2
BITMAP
78
FC
CE
C6
C6
CE
FE
7C
38
38
ENDCHAR
STARTCHAR uni03DB
ENCODING 987
SWIDTH 490 0
DWIDTH 8 0
BBX 6 10 1 -2
BITMAP
3C
FC
C0
C0
C0
E0
F8
3C
0C
18
ENDCHAR
STARTCHAR uni03DD
ENCODING 989
SWIDTH 433 0
DWIDTH 7 0
BBX 6 10 1 -2
BITMAP
FC
FC
C0
C0
F8
F8
C0
C0
C0
C0
ENDCHAR
STARTCHAR uni03E1
ENCODING 993
SWIDTH 536 0
DWIDTH 9 0
BBX 8 14 0 -3
BITMAP
20
78
38
1C
0E
3E
FF
63
0F
3F
33
23
03
03
ENDCHAR
STARTCHAR uni0400
ENCODING 1024
SWIDTH 548 0
DWIDTH 9 0
BBX 7 14 1 0
BITMAP
20
70
18
00
FE
FE
E0
E0
FC
FC
E0
E0
FE
FE
ENDCHAR
STARTCHAR uni0401
ENCODING 1025
SWIDTH 548 0
DWIDTH 9 0
BBX 7 13 1 0
BITMAP
6C
6E
00
FE
FE
E0
E0
FC
FC
E0
E0
FE
FE
ENDCHAR
STARTCHAR uni0402
ENCODING 1026
SWIDTH 701 0
DWIDTH 11 0
BBX 11 10 0 0
BITMAP
FF80
FF80
1800
1F80
1FC0
18C0
18E0
18E0
19C0
1B80
ENDCHAR
STARTCHAR uni0403
ENCODING 1027
SWIDTH 521 0
DWIDTH 8 0
BBX 7 14 1 0
BITMAP
04
1C
30
00
FE
FE
E0
E0
E0
E0
E0
E0
E0
E0
ENDCHAR
STARTCHAR uni0404
ENCODING 1028
SWIDTH 582 0
DWIDTH 9 0
BBX 8 10 1 0
BITMAP
3E
7F
E2
C0
FC
FC
C0
E2
7F
3E
ENDCHAR
STARTCHAR uni0405
ENCODING 1029
SWIDTH 556 0
DWIDTH 9 0
BBX 7 10 1 0
BITMAP
3C
FE
C4
E0
7C
3E
06
C6
FE
7C
ENDCHAR
STARTCHAR uni0406
ENCODING 1030
SWIDTH 301 0
DWIDTH 5 0
BBX 3 10 1 0
BITMAP
E0
E0
E0
E0
E0
E0
E0
E0
E0
E0
ENDCHAR
STARTCHAR uni0407
ENCODING 1031
SWIDTH 301 0
DWIDTH 5 0
BBX 5 13 0 0
BITMAP
D8
D8
00
70
70
70
70
70
70
70
70
70
70
ENDCHAR
STARTCHAR uni0408
ENCODING 1032
SWIDTH 509 0
DWIDTH 8 0
BBX 7 10 0 0
BITMAP
06
06
06
06
06
06
06
4E
FE
3C
ENDCHAR
STARTCHAR uni0409
ENCODING 1033
SWIDTH 920 0
DWIDTH 15 0
BBX 14 10 0 0
BITMAP
1F80
1F80
1980
19F8
19FC
399C
318C
319C
F1FC
E1F0
ENDCHAR
STARTCHAR uni040A
ENCODING 1034
SWIDTH 933 0
DWIDTH 15 0
BBX 13 10 1 0
BITMAP
E300
E300
E300
E3F0
FFF8
FF18
E318
E318
E3F8
E3F0
ENDCHAR
STARTCHAR uni040B
ENCODING 1035
SWIDTH 718 0
DWIDTH 11 0
BBX 11 10 0 0
BITMAP
FF80
FF80
1800
1F80
1FC0
18C0
18E0
18E0
18E0
18E0
ENDCHAR
STARTCHAR uni040C
ENCODING 1036
SWIDTH 622 0
DWIDTH 10 0
BBX 9 14 1 0
BITMAP
0400
0E00
1800
0000
E380
E700
E600
EC00
FC00
FC00
EE00
E600
E700
E380
ENDCHAR
STARTCHAR uni040D
ENCODING 1037
SWIDTH 676 0
DWIDTH 11 0
BBX 9 14 1 0
BITMAP
3000
3800
0C00
0000
E380
E780
E780
EF80
EF80
DB80
DB80
F380
F380
E380
ENDCHAR
STARTCHAR uni040E
ENCODING 1038
SWIDTH 555 0
DWIDTH 9 0
BBX 9 13 0 0
BITMAP
3600
3E00
0000
E380
6300
7300
3600
3600
1E00
1C00
1C00
7800
7000
ENDCHAR
STARTCHAR uni040F
ENCODING 1039
SWIDTH 663 0
DWIDTH 11 0
BBX 8 13 1 -3
BITMAP
E3
E3
E3
E3
E3
E3
E3
E3
FF
FF
1C
18
18
ENDCHAR
STARTCHAR uni0410
ENCODING 1040
SWIDTH 573 0
DWIDTH 9 0
BBX 9 10 0 0
BITMAP
1C00
1C00
3600
3600
3600
7300
7F00
7F00
E380
C180
ENDCHAR
STARTCHAR uni0411
ENCODING 1041
SWIDTH 600 0
DWIDTH 10 0
BBX 8 10 1 0
BITMAP
FE
FE
E0
E0
FE
FF
E3
E7
FF
FC
ENDCHAR
STARTCHAR uni0412
ENCODING 1042
SWIDTH 605 0
DWIDTH 10 0
BBX 8 10 1 0
BITMAP
FC
FE
E7
E6
FE
FF
E3
E3
FF
FE
ENDCHAR
STARTCHAR uni0413
ENCODING 1043
SWIDTH 521 0
DWIDTH 8 0
BBX 7 10 1 0
BITMAP
FE
FE
E0
E0
E0
E0
E0
E0
E0
E0
ENDCHAR
STARTCHAR uni0414
ENCODING 1044
SWIDTH 670 0
DWIDTH 11 0
BBX 11 13 0 -3
BITMAP
1F80
1F80
1980
3980
3180
3180
3180
6180
FFE0
FFE0
E0C0
E0C0
E0C0
ENDCHAR
STARTCHAR uni0415
ENCODING 1045
SWIDTH 548 0
DWIDTH 9 0
BBX 7 10 1 0
BITMAP
FE
FE
E0
E0
FC
FC
E0
E0
FE
FE
ENDCHAR
STARTCHAR uni0416
ENCODING 1046
SWIDTH 868 0
DWIDTH 14 0
BBX 14 10 0 0
BITMAP
E31C
F338
3330
3B60
1FE0
1FE0
3370
3330
6318
E31C
ENDCHAR
STARTCHAR uni0417
ENCODING 1047
SWIDTH 564 0
DWIDTH 9 0
BBX 8 10 1 0
BITMAP
7C
FE
46
06
3C
3E
06
87
FE
7C
ENDCHAR
STARTCHAR uni0418
ENCODING 1048
SWIDTH 676 0
DWIDTH 11 0
BBX 9 10 1 0
BITMAP
E380
E780
E780
EF80
EF80
DB80
DB80
F380
F380
E380
ENDCHAR
STARTCHAR uni0419
ENCODING 1049
SWIDTH 676 0
DWIDTH 11 0
BBX 9 13 1 0
BITMAP
3600
3E00
0000
E380
E780
E780
EF80
EF80
DB80
DB80
F380
F380
E380
ENDCHAR
STARTCHAR uni041A
ENCODING 1050
SWIDTH 622 0
DWIDTH 10 0
BBX 9 10 1 0
BITMAP
E380
E700
E600
EC00
FC00
FC00
EE00
E600
E700
E380
ENDCHAR
STARTCHAR uni041B
ENCODING 1051
SWIDTH 657 0
DWIDTH 11 0
BBX 9 10 0 0
BITMAP
1F80
1F80
1980
1980
3980
3180
3180
7180
E180
E180
ENDCHAR
STARTCHAR uni041C
ENCODING 1052
SWIDTH 762 0
DWIDTH 12 0
BBX 10 10 1 0
BITMAP
E1C0
E1C0
F3C0
F3C0
DAC0
DEC0
DEC0
CCC0
CCC0
C0C0
ENDCHAR
STARTCHAR uni041D
ENCODING 1053
SWIDTH 674 0
DWIDTH 11 0
BBX 9 10 1 0
BITMAP
E380
E380
E380
E380
FF80
FF80
E380
E380
E380
E380
ENDCHAR
STARTCHAR uni041E
ENCODING 1054
SWIDTH 684 0
DWIDTH 11 0
BBX 9 10 1 0
BITMAP
3E00
7F00
E380
C180
C180
C180
C180
E380
7F00
3E00
ENDCHAR
STARTCHAR uni041F
ENCODING 1055
SWIDTH 663 0
DWIDTH 11 0
BBX 8 10 1 0
BITMAP
FF
FF
E3
E3
E3
E3
E3
E3
E3
E3
ENDCHAR
STARTCHAR uni0420
ENCODING 1056
SWIDTH 596 0
DWIDTH 10 0
BBX 8 10 1 0
BITMAP
FC
FE
E7
E3
E7
FE
FC
E0
E0
E0
ENDCHAR
STARTCHAR uni0421
ENCODING 1057
SWIDTH 582 0
DWIDTH 9 0
BBX 8 10 1 0
BITMAP
3E
7F
E2
C0
C0
C0
C0
E2
7F
3E
ENDCHAR
STARTCHAR uni0422
ENCODING 1058
SWIDTH 556 0
DWIDTH 9 0
BBX 9 10 0 0
BITMAP
FF80
FF80
1C00
1C00
1C00
1C00
1C00
1C00
1C00
1C00
ENDCHAR
STARTCHAR uni0423
ENCODING 1059
SWIDTH 555 0
DWIDTH 9 0
BBX 9 10 0 0
BITMAP
E380
6300
7300
3600
3600
1E00
1C00
1C00
7800
7000
ENDCHAR
STARTCHAR uni0424
ENCODING 1060
SWIDTH 764 0
DWIDTH 12 0
BBX 11 10 1 0
BITMAP
0C00
3F00
7FC0
ECC0
CCC0
CCE0
ECC0
7FC0
3F00
0C00
ENDCHAR
STARTCHAR uni0425
ENCODING 1061
SWIDTH 567 0
DWIDTH 9 0
BBX 9 10 0 0
BITMAP
E380
7300
3600
3E00
1C00
1C00
3600
3600
6300
E380
ENDCHAR
STARTCHAR uni0426
ENCODING 1062
SWIDTH 669 0
DWIDTH 11 0
BBX 10 13 1 -3
BITMAP
E300
E300
E300
E300
E300
E300
E300
E300
FFC0
FFC0
0180
0180
0180
ENDCHAR
STARTCHAR uni0427
ENCODING 1063
SWIDTH 630 0
DWIDTH 10 0
BBX 8 10 1 0
BITMAP
C7
C7
C7
E7
FF
7F
07
07
07
07
ENDCHAR
STARTCHAR uni0428
ENCODING 1064
SWIDTH 910 0
DWIDTH 15 0
BBX 12 10 1 0
BITMAP
E630
E630
E630
E630
E630
E630
E630
E630
FFF0
FFF0
ENDCHAR
STARTCHAR uni0429
ENCODING 1065
SWIDTH 926 0
DWIDTH 15 0
BBX 14 13 1 -3
BITMAP
E630
E630
E630
E630
E630
E630
E630
E630
FFFC
FFFC
001C
0018
0018
ENDCHAR
STARTCHAR uni042A
ENCODING 1066
SWIDTH 730 0
DWIDTH 12 0
BBX 11 10 0 0
BITMAP
FC00
FC00
1C00
1F80
1FE0
1CE0
1C60
1CE0
1FE0
1F80
ENDCHAR
STARTCHAR uni042B
ENCODING 1067
SWIDTH 853 0
DWIDTH 14 0
BBX 11 10 1 0
BITMAP
E060
E060
E060
FC60
FE60
E760
E760
E760
FE60
FC60
ENDCHAR
STARTCHAR uni042C
ENCODING 1068
SWIDTH 600 0
DWIDTH 10 0
BBX 8 10 1 0
BITMAP
E0
E0
E0
FC
FF
E7
E3
E7
FE
FC
ENDCHAR
STARTCHAR uni042D
ENCODING 1069
SWIDTH 582 0
DWIDTH 9 0
BBX 9 10 0 0
BITMAP
3C00
7E00
4700
0300
1F80
1F80
0300
4700
FE00
3C00
ENDCHAR
STARTCHAR uni042E
ENCODING 1070
SWIDTH 950 0
DWIDTH 15 0
BBX 13 10 1 0
BITMAP
E1E0
E7F0
E638
EE18
FE18
FE18
EE18
E738
E7F0
E1E0
ENDCHAR
STARTCHAR uni042F
ENCODING 1071
SWIDTH 617 0
DWIDTH 10 0
BBX 9 10 0 0
BITMAP
3F80
7F80
6380
6380
7F80
1F80
3B80
3380
7380
E380
ENDCHAR
STARTCHAR uni0430
ENCODING 1072
SWIDTH 527 0
DWIDTH 8 0
BBX 6 8 1 0
BITMAP
78
FC
8C
3C
FC
CC
FC
FC
ENDCHAR
STARTCHAR uni0431
ENCODING 1073
SWIDTH 561 0
DWIDTH 9 0
BBX 7 11 1 0
BITMAP
1E
7E
E0
DC
FE
C6
C6
C6
C6
7E
38
ENDCHAR
STARTCHAR uni0432
ENCODING 1074
SWIDTH 528 0
DWIDTH 8 0
BBX 7 8 1 0
BITMAP
FC
FE
CE
FC
FC
C6
FE
FC
ENDCHAR
STARTCHAR uni0433
ENCODING 1075
SWIDTH 432 0
DWIDTH 7 0
BBX 6 8 1 0
BITMAP
FC
FC
C0
C0
C0
C0
C0
C0
ENDCHAR
STARTCHAR uni0434
ENCODING 1076
SWIDTH 584 0
DWIDTH 9 0
BBX 9 10 0 -2
BITMAP
3F00
3F00
3300
3300
7300
6300
FF80
FF80
C180
C180
ENDCHAR
STARTCHAR uni0435
ENCODING 1077
SWIDTH 518 0
DWIDTH 8 0
BBX 7 8 1 0
BITMAP
78
FC
C6
FE
FE
C4
FC
7C
ENDCHAR
STARTCHAR uni0436
ENCODING 1078
SWIDTH 761 0
DWIDTH 12 0
BBX 12 8 0 0
BITMAP
6670
7660
36C0
3FC0
3FC0
36E0
6660
E670
ENDCHAR
STARTCHAR uni0437
ENCODING 1079
SWIDTH 476 0
DWIDTH 8 0
BBX 7 8 0 0
BITMAP
7C
7E
46
3C
3E
46
7E
FC
ENDCHAR
STARTCHAR uni0438
ENCODING 1080
SWIDTH 583 0
DWIDTH 9 0
BBX 7 8 1 0
BITMAP
C6
CE
CE
DE
F6
F6
E6
C6
ENDCHAR
STARTCHAR uni0439
ENCODING 1081
SWIDTH 583 0
DWIDTH 9 0
BBX 7 11 1 0
BITMAP
64
3C
00
C6
CE
CE
DE
F6
F6
E6
C6
ENDCHAR
STARTCHAR uni043A
ENCODING 1082
SWIDTH 546 0
DWIDTH 9 0
BBX 8 8 1 0
BITMAP
C6
CE
DC
F8
F8
CC
CE
C7
ENDCHAR
STARTCHAR uni043B
ENCODING 1083
SWIDTH 573 0
DWIDTH 9 0
BBX 8 8 0 0
BITMAP
3F
3F
33
33
33
33
E3
E3
ENDCHAR
STARTCHAR uni043C
ENCODING 1084
SWIDTH 660 0
DWIDTH 11 0
BBX 9 8 1 0
BITMAP
E380
E780
F780
F580
DD80
DF80
DB80
C380
ENDCHAR
STARTCHAR uni043D
ENCODING 1085
SWIDTH 582 0
DWIDTH 9 0
BBX 7 8 1 0
BITMAP
C6
C6
C6
FE
FE
C6
C6
C6
ENDCHAR
STARTCHAR uni043E
ENCODING 1086
SWIDTH 555 0
DWIDTH 9 0
BBX 7 8 1 0
BITMAP
78
FE
C6
C6
C6
C6
FE
78
ENDCHAR
STARTCHAR uni043F
ENCODING 1087
SWIDTH 574 0
DWIDTH 9 0
BBX 7 8 1 0
BITMAP
FE
FE
C6
C6
C6
C6
C6
C6
ENDCHAR
STARTCHAR uni0440
ENCODING 1088
SWIDTH 573 0
DWIDTH 9 0
BBX 8 11 1 -3
BITMAP
DC
FE
E6
C7
C7
E6
FE
DC
C0
C0
C0
ENDCHAR
STARTCHAR uni0441
ENCODING 1089
SWIDTH 467 0
DWIDTH 7 0
BBX 6 8 1 0
BITMAP
38
FC
E0
C0
C0
E8
FC
78
ENDCHAR
STARTCHAR uni0442
ENCODING 1090
SWIDTH 492 0
DWIDTH 8 0
BBX 7 8 0 0
BITMAP
FE
FE
18
18
18
18
18
18
ENDCHAR
STARTCHAR uni0443
ENCODING 1091
SWIDTH 521 0
DWIDTH 8 0
BBX 8 11 0 -3
BITMAP
E3
67
66
36
36
3C
1C
1C
18
78
70
ENDCHAR
STARTCHAR uni0444
ENCODING 1092
SWIDTH 779 0
DWIDTH 12 0
BBX 11 14 1 -3
BITMAP
0C00
0C00
0C00
7F80
FFC0
CCE0
CCE0
CCE0
CCE0
FFC0
7F80
0C00
0C00
0C00
ENDCHAR
STARTCHAR uni0445
ENCODING 1093
SWIDTH 514 0
DWIDTH 8 0
BBX 8 8 0 0
BITMAP
E7
76
3C
3C
3C
3C
66
E7
ENDCHAR
STARTCHAR uni0446
ENCODING 1094
SWIDTH 595 0
DWIDTH 10 0
BBX 8 10 1 -2
BITMAP
C6
C6
C6
C6
C6
C6
FF
FF
03
03
ENDCHAR
STARTCHAR uni0447
ENCODING 1095
SWIDTH 550 0
DWIDTH 9 0
BBX 7 8 1 0
BITMAP
CE
CE
CE
FE
7E
0E
0E
0E
ENDCHAR
STARTCHAR uni0448
ENCODING 1096
SWIDTH 803 0
DWIDTH 13 0
BBX 11 8 1 0
BITMAP
CEE0
CEE0
CEE0
CEE0
CEE0
CEE0
FFE0
FFE0
ENDCHAR
STARTCHAR uni0449
ENCODING 1097
SWIDTH 829 0
DWIDTH 13 0
BBX 12 10 1 -2
BITMAP
CEE0
CEE0
CEE0
CEE0
CEE0
CEE0
FFF0
FFF0
0030
0030
ENDCHAR
STARTCHAR uni044A
ENCODING 1098
SWIDTH 623 0
DWIDTH 10 0
BBX 9 8 0 0
BITMAP
F800
F800
1F00
1F80
1980
1980
1F80
1F00
ENDCHAR
STARTCHAR uni044B
ENCODING 1099
SWIDTH 739 0
DWIDTH 12 0
BBX 10 8 1 0
BITMAP
C1C0
C1C0
F9C0
FDC0
CDC0
CDC0
FDC0
F9C0
ENDCHAR
STARTCHAR uni044C
ENCODING 1100
SWIDTH 516 0
DWIDTH 8 0
BBX 7 8 1 0
BITMAP
C0
C0
F8
FC
CE
CE
FC
F8
ENDCHAR
STARTCHAR uni044D
ENCODING 1101
SWIDTH 467 0
DWIDTH 7 0
BBX 7 8 0 0
BITMAP
78
FC
0E
3E
3E
8E
7C
F8
ENDCHAR
STARTCHAR uni044E
ENCODING 1102
SWIDTH 776 0
DWIDTH 12 0
BBX 11 8 1 0
BITMAP
C780
CFC0
CCE0
FCE0
FCE0
CCE0
CFC0
C780
ENDCHAR
STARTCHAR uni044F
ENCODING 1103
SWIDTH 544 0
DWIDTH 9 0
BBX 8 8 0 0
BITMAP
3F
7F
67
67
7F
3F
77
E7
ENDCHAR
STARTCHAR uni0450
ENCODING 1104
SWIDTH 518 0
DWIDTH 8 0
BBX 7 13 1 0
BITMAP
40
E0
70
10
00
78
FC
C6
FE
FE
C4
FC
7C
ENDCHAR
STARTCHAR uni0451
ENCODING 1105
SWIDTH 518 0
DWIDTH 8 0
BBX 7 11 1 0
BITMAP
6C
EC
00
78
FC
C6
FE
FE
C4
FC
7C
ENDCHAR
STARTCHAR uni0452
ENCODING 1106
SWIDTH 572 0
DWIDTH 9 0
BBX 9 14 0 -3
BITMAP
6000
FC00
6000
6000
6E00
7F00
7300
6380
6380
6380
6300
0300
0F00
0E00
ENDCHAR
STARTCHAR uni0453
ENCODING 1107
SWIDTH 432 0
DWIDTH 7 0
BBX 6 13 1 0
BITMAP
08
1C
38
10
00
FC
FC
C0
C0
C0
C0
C0
C0
ENDCHAR
STARTCHAR uni0454
ENCODING 1108
SWIDTH 467 0
DWIDTH 7 0
BBX 6 8 1 0
BITMAP
38
FC
C8
F8
F8
C8
FC
78
ENDCHAR
STARTCHAR uni0455
ENCODING 1109
SWIDTH 443 0
DWIDTH 7 0
BBX 7 8 0 0
BITMAP
3C
7E
64
78
1C
4E
FC
78
ENDCHAR
STARTCHAR uni0456
ENCODING 1110
SWIDTH 276 0
DWIDTH 4 0
BBX 3 11 1 0
BITMAP
E0
C0
00
C0
C0
C0
C0
C0
C0
C0
C0
ENDCHAR
STARTCHAR uni0457
ENCODING 1111
SWIDTH 276 0
DWIDTH 4 0
BBX 6 11 -1 0
BITMAP
CC
EC
00
30
30
30
30
30
30
30
30
ENDCHAR
STARTCHAR uni0458
ENCODING 1112
SWIDTH 278 0
DWIDTH 4 0
BBX 5 14 -1 -3
BITMAP
38
30
00
30
30
30
30
30
30
30
30
30
F0
E0
ENDCHAR
STARTCHAR uni0459
ENCODING 1113
SWIDTH 780 0
DWIDTH 12 0
BBX 12 8 0 0
BITMAP
3F00
3F00
33E0
33F0
3330
3330
F3F0
E3E0
ENDCHAR
STARTCHAR uni045A
ENCODING 1114
SWIDTH 788 0
DWIDTH 13 0
BBX 11 8 1 0
BITMAP
C600
C600
C7C0
FFE0
FE60
C660
C7E0
C7C0
ENDCHAR
STARTCHAR uni045B
ENCODING 1115
SWIDTH 571 0
DWIDTH 9 0
BBX 8 11 0 0
BITMAP
60
FC
FC
60
60
7F
7F
63
63
63
63
ENDCHAR
STARTCHAR uni045C
ENCODING 1116
SWIDTH 546 0
DWIDTH 9 0
BBX 8 13 1 0
BITMAP
04
0E
1C
10
00
C6
CE
DC
F8
F8
CC
CE
C7
ENDCHAR
STARTCHAR uni045D
ENCODING 1117
SWIDTH 583 0
DWIDTH 9 0
BBX 7 13 1 0
BITMAP
20
70
30
18
00
C6
CE
CE
DE
F6
F6
E6
C6
ENDCHAR
STARTCHAR uni045E
ENCODING 1118
SWIDTH 521 0
DWIDTH 8 0
BBX 8 14 0 -3
BITMAP
66
3C
00
E3
67
66
36
36
3C
1C
1C
18
78
70
ENDCHAR
STARTCHAR uni045F
ENCODING 1119
SWIDTH 578 0
DWIDTH 9 0
BBX 7 10 1 -2
BITMAP
C6
C6
C6
C6
C6
C6
FE
FE
38
18
ENDCHAR
STARTCHAR uni0462
ENCODING 1122
SWIDTH 624 0
DWIDTH 10 0
BBX 9 12 0 0
BITMAP
3800
3800
FF00
FF00
3800
3800
3F00
3F80
3980
3980
3F80
3F00
ENDCHAR
STARTCHAR uni0463
ENCODING 1123
SWIDTH 600 0
DWIDTH 10 0
BBX 9 10 0 0
BITMAP
3800
FF00
FF00
3800
3F00
3F80
3980
3980
3F80
3F00
ENDCHAR
STARTCHAR uni0472
ENCODING 1138
SWIDTH 684 0
DWIDTH 11 0
BBX 9 10 1 0
BITMAP
3E00
7F00
E380
C180
FF80
FF80
C180
E380
7F00
3E00
ENDCHAR
STARTCHAR uni0473
ENCODING 1139
SWIDTH 555 0
DWIDTH 9 0
BBX 7 8 1 0
BITMAP
78
FE
C6
FE
FE
C6
FE
78
ENDCHAR
STARTCHAR uni0474
ENCODING 1140
SWIDTH 574 0
DWIDTH 9 0
BBX 10 10 0 0
BITMAP
E1C0
E380
6300
6300
7700
3600
3600
3600
1C00
1C00
ENDCHAR
STARTCHAR uni0475
ENCODING 1141
SWIDTH 533 0
DWIDTH 9 0
BBX 9 8 0 0
BITMAP
E380
6380
6600
6600
3600
3C00
3C00
1C00
ENDCHAR
STARTCHAR uni0490
ENCODING 1168
SWIDTH 521 0
DWIDTH 8 0
BBX 7 14 1 0
BITMAP
06
06
06
06
FE
FE
E0
E0
E0
E0
E0
E0
E0
E0
ENDCHAR
STARTCHAR uni0491
ENCODING 1169
SWIDTH 433 0
DWIDTH 7 0
BBX 6 11 1 0
BITMAP
0C
0C
1C
FC
FC
C0
C0
C0
C0
C0
C0
ENDCHAR
STARTCHAR uni0492
ENCODING 1170
SWIDTH 546 0
DWIDTH 9 0
BBX 8 10 0 0
BITMAP
3F
3F
30
30
FC
FC
30
30
30
30
ENDCHAR
STARTCHAR uni0493
ENCODING 1171
SWIDTH 457 0
DWIDTH 7 0
BBX 7 8 0 0
BITMAP
7E
7E
70
FC
FC
70
70
70
ENDCHAR
STARTCHAR uni0496
ENCODING 1174
SWIDTH 905 0
DWIDTH 14 0
BBX 14 13 0 -3
BITMAP
E31C
F338
3330
3B60
1FE0
1FE0
3370
3330
631C
E31C
000C
000C
000C
ENDCHAR
STARTCHAR uni0497
ENCODING 1175
SWIDTH 803 0
DWIDTH 13 0
BBX 13 10 0 -2
BITMAP
6670
7660
36C0
3FC0
3FC0
36E0
6678
E678
0038
0030
ENDCHAR
STARTCHAR uni0498
ENCODING 1176
SWIDTH 564 0
DWIDTH 9 0
BBX 8 13 1 -3
BITMAP
7C
FE
46
06
3C
3E
06
87
FE
7C
38
38
38
ENDCHAR
STARTCHAR uni0499
ENCODING 1177
SWIDTH 476 0
DWIDTH 8 0
BBX 7 10 0 -2
BITMAP
7C
7E
46
3C
3E
46
7E
FC
18
18
ENDCHAR
STARTCHAR uni049A
ENCODING 1178
SWIDTH 667 0
DWIDTH 11 0
BBX 9 13 1 -3
BITMAP
E380
E700
E600
EC00
FC00
FC00
EE00
E600
E780
E380
0180
0180
0180
ENDCHAR
STARTCHAR uni049B
ENCODING 1179
SWIDTH 588 0
DWIDTH 9 0
BBX 8 10 1 -2
BITMAP
C6
CE
DC
F8
F8
CC
CF
C7
03
03
ENDCHAR
STARTCHAR uni04A0
ENCODING 1184
SWIDTH 749 0
DWIDTH 12 0
BBX 12 10 0 0
BITMAP
FC70
FCE0
1CC0
1D80
1F80
1F80
1DC0
1CC0
1CE0
1C70
ENDCHAR
STARTCHAR uni04A1
ENCODING 1185
SWIDTH 656 0
DWIDTH 11 0
BBX 10 8 0 0
BITMAP
F9C0
F9C0
1B00
1F00
1F00
1B80
1980
18C0
ENDCHAR
STARTCHAR uni04A2
ENCODING 1186
SWIDTH 689 0
DWIDTH 11 0
BBX 10 13 1 -3
BITMAP
E380
E380
E380
E380
FF80
FF80
E380
E380
E3C0
E3C0
00C0
00C0
00C0
ENDCHAR
STARTCHAR uni04A3
ENCODING 1187
SWIDTH 608 0
DWIDTH 10 0
BBX 9 10 1 -2
BITMAP
C600
C600
C600
FE00
FE00
C600
C780
C780
0300
0300
ENDCHAR
STARTCHAR uni04AA
ENCODING 1194
SWIDTH 582 0
DWIDTH 9 0
BBX 8 13 1 -3
BITMAP
3E
7F
E2
C0
C0
C0
C0
E2
7F
3E
1C
1C
1C
ENDCHAR
STARTCHAR uni04AB
ENCODING 1195
SWIDTH 467 0
DWIDTH 7 0
BBX 6 10 1 -2
BITMAP
38
FC
E0
C0
C0
E8
FC
7C
38
30
ENDCHAR
STARTCHAR uni04AE
ENCODING 1198
SWIDTH 525 0
DWIDTH 8 0
BBX 9 10 0 0
BITMAP
E380
6700
6600
3600
3C00
1C00
1800
1800
1800
1800
ENDCHAR
STARTCHAR uni04AF
ENCODING 1199
SWIDTH 523 0
DWIDTH 8 0
BBX 8 11 0 -3
BITMAP
E3
67
66
76
36
3C
1C
1C
18
18
18
ENDCHAR
STARTCHAR uni04B0
ENCODING 1200
SWIDTH 525 0
DWIDTH 8 0
BBX 9 10 0 0
BITMAP
E380
6700
6600
7600
3C00
3C00
7F00
7F00
1800
1800
ENDCHAR
STARTCHAR uni04B1
ENCODING 1201
SWIDTH 523 0
DWIDTH 8 0
BBX 8 11 0 -3
BITMAP
E3
67
66
76
36
3C
1C
7F
18
18
18
ENDCHAR
STARTCHAR uni04B2
ENCODING 1202
SWIDTH 605 0
DWIDTH 10 0
BBX 9 13 0 -3
BITMAP
E380
7300
3600
3E00
1C00
1C00
3600
3700
6380
E380
0180
0180
0180
ENDCHAR
STARTCHAR uni04B3
ENCODING 1203
SWIDTH 548 0
DWIDTH 9 0
BBX 9 10 0 -2
BITMAP
E700
7600
3C00
3C00
3C00
3C00
6780
6780
8300
0300
ENDCHAR
STARTCHAR uni04B6
ENCODING 1206
SWIDTH 645 0
DWIDTH 10 0
BBX 9 13 1 -3
BITMAP
C700
C700
C700
E700
FF00
7F00
0700
0700
0780
0780
0180
0180
0180
ENDCHAR
STARTCHAR uni04B7
ENCODING 1207
SWIDTH 575 0
DWIDTH 9 0
BBX 8 11 1 -3
BITMAP
CE
CE
CE
FE
7E
0E
0F
0F
03
03
03
ENDCHAR
STARTCHAR uni04BA
ENCODING 1210
SWIDTH 630 0
DWIDTH 10 0
BBX 8 10 1 0
BITMAP
E0
E0
E0
FE
FF
E7
E3
E3
E3
E3
ENDCHAR
STARTCHAR uni04BB
ENCODING 1211
SWIDTH 571 0
DWIDTH 9 0
BBX 7 11 1 0
BITMAP
C0
C0
C0
DC
FE
E6
C6
C6
C6
C6
C6
ENDCHAR
STARTCHAR uni04C0
ENCODING 1216
SWIDTH 301 0
DWIDTH 5 0
BBX 3 10 1 0
BITMAP
E0
E0
E0
E0
E0
E0
E0
E0
E0
E0
ENDCHAR
STARTCHAR uni04C1
ENCODING 1217
SWIDTH 868 0
DWIDTH 14 0
BBX 14 13 0 0
BITMAP
0CC0
0780
0000
E31C
F338
3330
3B60
1FE0
1FE0
3370
3330
6318
E31C
ENDCHAR
STARTCHAR uni04C2
ENCODING 1218
SWIDTH 761 0
DWIDTH 12 0
BBX 12 11 0 0
BITMAP
1980
0F00
0000
6670
7660
36C0
3FC0
3FC0
36E0
6660
E670
ENDCHAR
STARTCHAR uni04CF
ENCODING 1231
SWIDTH 286 0
DWIDTH 5 0
BBX 3 11 1 0
BITMAP
C0
C0
C0
C0
C0
C0
C0
C0
C0
E0
60
ENDCHAR
STARTCHAR uni04D0
ENCODING 1232
SWIDTH 573 0
DWIDTH 9 0
BBX 9 13 0 0
BITMAP
3600
3E00
0000
1C00
1C00
3600
3600
3600
7300
7F00
7F00
E380
C180
ENDCHAR
STARTCHAR uni04D1
ENCODING 1233
SWIDTH 527 0
DWIDTH 8 0
BBX 6 11 1 0
BITMAP
6C
78
00
78
FC
8C
3C
FC
CC
FC
FC
ENDCHAR
STARTCHAR uni04D4
ENCODING 1236
SWIDTH 845 0
DWIDTH 14 0
BBX 13 10 0 0
BITMAP
0FF8
0FF8
1F80
1B80
1BF0
33F0
3F80
7F80
63F8
E3F8
ENDCHAR
STARTCHAR uni04D5
ENCODING 1237
SWIDTH 786 0
DWIDTH 13 0
BBX 11 8 1 0
BITMAP
7BC0
FFC0
8C60
3FE0
FFE0
CE40
FFC0
73E0
ENDCHAR
STARTCHAR uni04D6
ENCODING 1238
SWIDTH 548 0
DWIDTH 9 0
BBX 7 13 1 0
BITMAP
6C
3C
00
FE
FE
E0
E0
FC
FC
E0
E0
FE
FE
ENDCHAR
STARTCHAR uni04D7
ENCODING 1239
SWIDTH 518 0
DWIDTH 8 0
BBX 7 11 1 0
BITMAP
4C
78
00
78
FC
C6
FE
FE
C4
FC
7C
ENDCHAR
STARTCHAR uni04D8
ENCODING 1240
SWIDTH 675 0
DWIDTH 11 0
BBX 9 10 1 0
BITMAP
3E00
7F00
2380
0180
FF80
FF80
C180
E380
7F00
3E00
ENDCHAR
STARTCHAR uni04D9
ENCODING 1241
SWIDTH 518 0
DWIDTH 8 0
BBX 7 8 1 0
BITMAP
78
FC
8C
FE
FE
CC
FC
78
ENDCHAR
STARTCHAR uni04E2
ENCODING 1250
SWIDTH 676 0
DWIDTH 11 0
BBX 9 13 1 0
BITMAP
3E00
3E00
0000
E380
E780
E780
EF80
EF80
DB80
DB80
F380
F380
E380
ENDCHAR
STARTCHAR uni04E3
ENCODING 1251
SWIDTH 583 0
DWIDTH 9 0
BBX 7 10 1 0
BITMAP
7C
00
C6
CE
CE
DE
F6
F6
E6
C6
ENDCHAR
STARTCHAR uni04E6
ENCODING 1254
SWIDTH 684 0
DWIDTH 11 0
BBX 9 13 1 0
BITMAP
3600
3600
0000
3E00
7F00
E380
C180
C180
C180
C180
E380
7F00
3E00
ENDCHAR
STARTCHAR uni04E7
ENCODING 1255
SWIDTH 555 0
DWIDTH 9 0
BBX 7 11 1 0
BITMAP
6C
6C
00
78
FE
C6
C6
C6
C6
FE
78
ENDCHAR
STARTCHAR uni04E8
ENCODING 1256
SWIDTH 684 0
DWIDTH 11 0
BBX 9 10 1 0
BITMAP
3E00
7F00
E380
C180
FF80
FF80
C180
E380
7F00
3E00
ENDCHAR
STARTCHAR uni04E9
ENCODING 1257
SWIDTH 555 0
DWIDTH 9 0
BBX 7 8 1 0
BITMAP
78
FE
C6
FE
FE
C6
FE
78
ENDCHAR
STARTCHAR uni04EE
ENCODING 1262
SWIDTH 555 0
DWIDTH 9 0
BBX 9 13 0 0
BITMAP
3E00
3E00
0000
E380
6300
7300
3600
3600
1E00
1C00
1C00
7800
7000
ENDCHAR
STARTCHAR uni04EF
ENCODING 1263
SWIDTH 521 0
DWIDTH 8 0
BBX 8 13 0 -3
BITMAP
3E
00
E3
67
66
36
36
3C
1C
1C
18
78
70
ENDCHAR
STARTCHAR uni04F2
ENCODING 1266
SWIDTH 555 0
DWIDTH 9 0
BBX 9 14 0 0
BITMAP
0900
1F80
3600
0000
E380
6300
7300
3600
3600
1E00
1C00
1C00
7800
7000
ENDCHAR
STARTCHAR uni04F3
ENCODING 1267
SWIDTH 521 0
DWIDTH 8 0
BBX 8 16 0 -3
BITMAP
04
1B
1E
36
00
E3
67
66
36
36
3C
1C
1C
18
78
70
ENDCHAR
STARTCHAR a.sups
ENCODING 7491
SWIDTH 359 0
DWIDTH 6 0
BBX 5 5 0 6
BITMAP
78
18
78
D8
78
ENDCHAR
STARTCHAR b.sups
ENCODING 7495
SWIDTH 385 0
DWIDTH 6 0
BBX 5 7 1 6
BITMAP
80
80
F0
98
98
98
F0
ENDCHAR
STARTCHAR d.sups
ENCODING 7496
SWIDTH 385 0
DWIDTH 6 0
BBX 6 7 0 6
BITMAP
0C
0C
7C
4C
CC
4C
7C
ENDCHAR
STARTCHAR e.sups
ENCODING 7497
SWIDTH 346 0
DWIDTH 6 0
BBX 5 5 0 6
BITMAP
70
48
F8
40
78
ENDCHAR
STARTCHAR g.sups
ENCODING 7501
SWIDTH 361 0
DWIDTH 6 0
BBX 6 7 0 4
BITMAP
7C
D8
70
40
78
CC
78
ENDCHAR
STARTCHAR k.sups
ENCODING 7503
SWIDTH 371 0
DWIDTH 6 0
BBX 5 7 1 6
BITMAP
80
80
98
A0
E0
F0
98
ENDCHAR
STARTCHAR m.sups
ENCODING 7504
SWIDTH 577 0
DWIDTH 9 0
BBX 8 5 1 6
BITMAP
F6
9B
93
93
93
ENDCHAR
STARTCHAR o.sups
ENCODING 7506
SWIDTH 373 0
DWIDTH 6 0
BBX 6 5 0 6
BITMAP
78
48
CC
48
78
ENDCHAR
STARTCHAR p.sups
ENCODING 7510
SWIDTH 385 0
DWIDTH 6 0
BBX 5 7 1 4
BITMAP
F0
98
98
98
F0
80
80
ENDCHAR
STARTCHAR t.sups
ENCODING 7511
SWIDTH 259 0
DWIDTH 4 0
BBX 4 6 0 6
BITMAP
60
F0
60
60
60
70
ENDCHAR
STARTCHAR u.sups
ENCODING 7512
SWIDTH 383 0
DWIDTH 6 0
BBX 4 5 1 6
BITMAP
90
90
90
90
F0
ENDCHAR
STARTCHAR v.sups
ENCODING 7515
SWIDTH 355 0
DWIDTH 6 0
BBX 6 5 0 6
BITMAP
CC
48
58
70
30
ENDCHAR
STARTCHAR c.sups
ENCODING 7580
SWIDTH 313 0
DWIDTH 5 0
BBX 5 5 0 6
BITMAP
78
40
C0
40
78
ENDCHAR
STARTCHAR f.sups
ENCODING 7584
SWIDTH 232 0
DWIDTH 4 0
BBX 4 8 0 6
BITMAP
30
60
60
F0
60
60
60
60
ENDCHAR
STARTCHAR z.sups
ENCODING 7611
SWIDTH 312 0
DWIDTH 5 0
BBX 5 5 0 6
BITMAP
78
30
70
60
F8
ENDCHAR
STARTCHAR uni1E06
ENCODING 7686
SWIDTH 605 0
DWIDTH 10 0
BBX 8 13 1 -3
BITMAP
FC
FE
E7
E6
FE
FF
E3
E3
FF
FE
00
00
3C
ENDCHAR
STARTCHAR uni1E07
ENCODING 7687
SWIDTH 573 0
DWIDTH 9 0
BBX 8 14 1 -3
BITMAP
C0
C0
C0
DC
FE
E6
C7
C7
E6
FE
DC
00
00
7C
ENDCHAR
STARTCHAR uni1E0C
ENCODING 7692
SWIDTH 635 0
DWIDTH 10 0
BBX 8 14 1 -4
BITMAP
FC
FE
E7
E3
E3
E3
E3
E7
FE
FC
00
00
18
18
ENDCHAR
STARTCHAR uni1E0D
ENCODING 7693
SWIDTH 573 0
DWIDTH 9 0
BBX 7 15 1 -4
BITMAP
06
06
06
7E
FE
C6
C6
C6
CE
FE
76
00
00
18
18
ENDCHAR
STARTCHAR uni1E0E
ENCODING 7694
SWIDTH 635 0
DWIDTH 10 0
BBX 8 13 1 -3
BITMAP
FC
FE
E7
E3
E3
E3
E3
E7
FE
FC
00
00
3C
ENDCHAR
STARTCHAR uni1E0F
ENCODING 7695
SWIDTH 573 0
DWIDTH 9 0
BBX 7 14 1 -3
BITMAP
06
06
06
7E
FE
C6
C6
C6
CE
FE
76
00
00
3C
ENDCHAR
STARTCHAR uni1E16
ENCODING 7702
SWIDTH 548 0
DWIDTH 9 0
BBX 7 17 1 0
BITMAP
08
1C
30
00
7C
7C
00
FE
FE
E0
E0
FC
FC
E0
E0
FE
FE
ENDCHAR
STARTCHAR uni1E17
ENCODING 7703
SWIDTH 518 0
DWIDTH 8 0
BBX 7 15 1 0
BITMAP
08
18
30
00
7C
00
00
78
FC
C6
FE
FE
C4
FC
7C
ENDCHAR
STARTCHAR uni1E20
ENCODING 7712
SWIDTH 638 0
DWIDTH 10 0
BBX 8 13 1 0
BITMAP
3E
3E
00
3E
7F
E2
C0
CF
CF
C3
E3
7F
3E
ENDCHAR
STARTCHAR uni1E21
ENCODING 7713
SWIDTH 534 0
DWIDTH 9 0
BBX 7 13 1 -3
BITMAP
7C
00
7E
FE
CC
FC
F8
C0
FE
7E
86
FE
FC
ENDCHAR
STARTCHAR uni1E24
ENCODING 7716
SWIDTH 674 0
DWIDTH 11 0
BBX 9 14 1 -4
BITMAP
E380
E380
E380
E380
FF80
FF80
E380
E380
E380
E380
0000
0000
1C00
1C00
ENDCHAR
STARTCHAR uni1E25
ENCODING 7717
SWIDTH 571 0
DWIDTH 9 0
BBX 7 15 1 -4
BITMAP
C0
C0
C0
DC
FE
E6
C6
C6
C6
C6
C6
00
00
18
38
ENDCHAR
STARTCHAR uni1E2A
ENCODING 7722
SWIDTH 674 0
DWIDTH 11 0
BBX 9 14 1 -4
BITMAP
E380
E380
E380
E380
FF80
FF80
E380
E380
E380
E380
0000
0000
2600
3C00
ENDCHAR
STARTCHAR uni1E2B
ENCODING 7723
SWIDTH 571 0
DWIDTH 9 0
BBX 7 15 1 -4
BITMAP
C0
C0
C0
DC
FE
E6
C6
C6
C6
C6
C6
00
00
64
3C
ENDCHAR
STARTCHAR uni1E32
ENCODING 7730
SWIDTH 614 0
DWIDTH 10 0
BBX 9 14 1 -4
BITMAP
E700
E600
EC00
FC00
FC00
FC00
EE00
E600
E700
E380
0000
0000
1800
1C00
ENDCHAR
STARTCHAR uni1E33
ENCODING 7731
SWIDTH 548 0
DWIDTH 9 0
BBX 8 15 1 -4
BITMAP
C0
C0
C0
C6
CC
D8
F8
F8
EC
CE
C6
01
00
18
38
ENDCHAR
STARTCHAR uni1E34
ENCODING 7732
SWIDTH 614 0
DWIDTH 10 0
BBX 9 13 1 -3
BITMAP
E700
E600
EC00
FC00
FC00
FC00
EE00
E600
E700
E380
0000
0000
3E00
ENDCHAR
STARTCHAR uni1E35
ENCODING 7733
SWIDTH 548 0
DWIDTH 9 0
BBX 8 14 1 -3
BITMAP
C0
C0
C0
C6
CC
D8
F8
F8
EC
CE
C6
01
00
7C
ENDCHAR
STARTCHAR uni1E36
ENCODING 7734
SWIDTH 518 0
DWIDTH 8 0
BBX 7 14 1 -4
BITMAP
E0
E0
E0
E0
E0
E0
E0
E0
FE
FE
00
00
38
38
ENDCHAR
STARTCHAR uni1E37
ENCODING 7735
SWIDTH 286 0
DWIDTH 5 0
BBX 3 15 1 -4
BITMAP
C0
C0
C0
C0
C0
C0
C0
C0
C0
E0
60
00
00
60
60
ENDCHAR
STARTCHAR uni1E38
ENCODING 7736
SWIDTH 518 0
DWIDTH 8 0
BBX 8 17 0 -4
BITMAP
F8
F8
00
70
70
70
70
70
70
70
70
7F
7F
00
00
1C
1C
ENDCHAR
STARTCHAR uni1E39
ENCODING 7737
SWIDTH 286 0
DWIDTH 5 0
BBX 5 17 0 -4
BITMAP
F8
00
60
60
60
60
60
60
60
60
60
70
30
00
00
30
30
ENDCHAR
STARTCHAR uni1E3A
ENCODING 7738
SWIDTH 518 0
DWIDTH 8 0
BBX 7 13 1 -3
BITMAP
E0
E0
E0
E0
E0
E0
E0
E0
FE
FE
00
00
7C
ENDCHAR
STARTCHAR uni1E3B
ENCODING 7739
SWIDTH 286 0
DWIDTH 5 0
BBX 4 14 1 -3
BITMAP
C0
C0
C0
C0
C0
C0
C0
C0
C0
E0
60
00
00
F0
ENDCHAR
STARTCHAR uni1E3E
ENCODING 7742
SWIDTH 762 0
DWIDTH 12 0
BBX 10 14 1 0
BITMAP
0200
0700
0C00
0000
E1C0
E1C0
F3C0
F3C0
DAC0
DEC0
DEC0
CCC0
CCC0
C0C0
ENDCHAR
STARTCHAR uni1E3F
ENCODING 7743
SWIDTH 857 0
DWIDTH 14 0
BBX 12 13 1 0
BITMAP
0100
0380
0700
0200
0000
DCE0
FFE0
E770
C670
C670
C670
C670
C670
ENDCHAR
STARTCHAR uni1E40
ENCODING 7744
SWIDTH 762 0
DWIDTH 12 0
BBX 10 13 1 0
BITMAP
0C00
0C00
0000
E1C0
E1C0
F3C0
F3C0
DAC0
DEC0
DEC0
CCC0
CCC0
C0C0
ENDCHAR
STARTCHAR uni1E41
ENCODING 7745
SWIDTH 857 0
DWIDTH 14 0
BBX 12 11 1 0
BITMAP
0600
0600
0000
DCE0
FFE0
E770
C670
C670
C670
C670
C670
ENDCHAR
STARTCHAR uni1E42
ENCODING 7746
SWIDTH 762 0
DWIDTH 12 0
BBX 10 14 1 -4
BITMAP
E1C0
E1C0
F3C0
F3C0
DAC0
DEC0
DEC0
CCC0
CCC0
C0C0
0000
0000
0C00
0C00
ENDCHAR
STARTCHAR uni1E43
ENCODING 7747
SWIDTH 857 0
DWIDTH 14 0
BBX 12 12 1 -4
BITMAP
DCE0
FFE0
E770
C670
C670
C670
C670
C670
0000
0000
0600
0600
ENDCHAR
STARTCHAR uni1E44
ENCODING 7748
SWIDTH 665 0
DWIDTH 11 0
BBX 8 13 1 0
BITMAP
1C
1C
00
E3
E3
F3
DB
DB
CF
CF
C7
C7
C3
ENDCHAR
STARTCHAR uni1E45
ENCODING 7749
SWIDTH 572 0
DWIDTH 9 0
BBX 7 11 1 0
BITMAP
18
18
00
DC
FE
E6
C6
C6
C6
C6
C6
ENDCHAR
STARTCHAR uni1E46
ENCODING 7750
SWIDTH 665 0
DWIDTH 11 0
BBX 8 14 1 -4
BITMAP
E3
E3
F3
DB
DB
CF
CF
C7
C7
C3
00
00
1C
1C
ENDCHAR
STARTCHAR uni1E47
ENCODING 7751
SWIDTH 572 0
DWIDTH 9 0
BBX 7 12 1 -4
BITMAP
DC
FE
E6
C6
C6
C6
C6
C6
00
00
18
38
ENDCHAR
STARTCHAR uni1E48
ENCODING 7752
SWIDTH 665 0
DWIDTH 11 0
BBX 8 13 1 -3
BITMAP
E3
E3
F3
DB
DB
CF
CF
C7
C7
C3
00
00
3E
ENDCHAR
STARTCHAR uni1E49
ENCODING 7753
SWIDTH 572 0
DWIDTH 9 0
BBX 7 11 1 -3
BITMAP
DC
FE
E6
C6
C6
C6
C6
C6
00
00
7C
ENDCHAR
STARTCHAR uni1E52
ENCODING 7762
SWIDTH 684 0
DWIDTH 11 0
BBX 9 17 1 0
BITMAP
0400
0E00
1800
0000
3E00
3E00
0000
3E00
7F00
E380
C180
C180
C180
C180
E380
7F00
3E00
ENDCHAR
STARTCHAR uni1E53
ENCODING 7763
SWIDTH 555 0
DWIDTH 9 0
BBX 7 15 1 0
BITMAP
08
18
30
00
7C
00
00
78
FE
C6
C6
C6
C6
FE
78
ENDCHAR
STARTCHAR uni1E58
ENCODING 7768
SWIDTH 613 0
DWIDTH 10 0
BBX 9 13 1 0
BITMAP
1800
1800
0000
FE00
FF00
E300
E300
FF00
FC00
EE00
E600
E700
E380
ENDCHAR
STARTCHAR uni1E59
ENCODING 7769
SWIDTH 398 0
DWIDTH 6 0
BBX 5 11 1 0
BITMAP
30
30
00
D8
F8
E0
C0
C0
C0
C0
C0
ENDCHAR
STARTCHAR uni1E5A
ENCODING 7770
SWIDTH 613 0
DWIDTH 10 0
BBX 9 14 1 -4
BITMAP
FE00
FF00
E300
E300
FF00
FC00
EE00
E600
E700
E300
0080
0000
1800
1C00
ENDCHAR
STARTCHAR uni1E5B
ENCODING 7771
SWIDTH 398 0
DWIDTH 6 0
BBX 5 12 1 -4
BITMAP
D8
F8
E0
C0
C0
C0
C0
C0
00
00
C0
E0
ENDCHAR
STARTCHAR uni1E5C
ENCODING 7772
SWIDTH 613 0
DWIDTH 10 0
BBX 9 17 1 -4
BITMAP
7C00
7C00
0000
FE00
FF00
E300
E300
FF00
FC00
EE00
E600
E700
E300
0080
0000
1800
1C00
ENDCHAR
STARTCHAR uni1E5D
ENCODING 7773
SWIDTH 398 0
DWIDTH 6 0
BBX 5 14 1 -4
BITMAP
78
00
D8
F8
E0
C0
C0
C0
C0
C0
00
00
C0
E0
ENDCHAR
STARTCHAR uni1E5E
ENCODING 7774
SWIDTH 613 0
DWIDTH 10 0
BBX 9 13 1 -3
BITMAP
FE00
FF00
E300
E300
FF00
FC00
EE00
E600
E700
E300
0080
0000
3E00
ENDCHAR
STARTCHAR uni1E5F
ENCODING 7775
SWIDTH 398 0
DWIDTH 6 0
BBX 6 11 0 -3
BITMAP
6C
7C
70
60
60
60
60
60
00
00
F8
ENDCHAR
STARTCHAR uni1E60
ENCODING 7776
SWIDTH 556 0
DWIDTH 9 0
BBX 7 13 1 0
BITMAP
38
38
00
3C
FE
C4
E0
7C
3E
06
C6
FE
7C
ENDCHAR
STARTCHAR uni1E61
ENCODING 7777
SWIDTH 443 0
DWIDTH 7 0
BBX 7 11 0 0
BITMAP
18
38
00
3C
7E
64
78
1C
4E
FC
78
ENDCHAR
STARTCHAR uni1E62
ENCODING 7778
SWIDTH 556 0
DWIDTH 9 0
BBX 7 14 1 -4
BITMAP
3C
FE
C4
E0
7C
3E
06
C6
FE
7C
00
00
38
38
ENDCHAR
STARTCHAR uni1E63
ENCODING 7779
SWIDTH 443 0
DWIDTH 7 0
BBX 7 12 0 -4
BITMAP
3C
7E
64
78
1C
4E
FC
78
00
00
18
38
ENDCHAR
STARTCHAR uni1E6C
ENCODING 7788
SWIDTH 556 0
DWIDTH 9 0
BBX 9 14 0 -4
BITMAP
FF80
FF80
1C00
1C00
1C00
1C00
1C00
1C00
1C00
1C00
0000
0000
1C00
1C00
ENDCHAR
STARTCHAR uni1E6D
ENCODING 7789
SWIDTH 383 0
DWIDTH 6 0
BBX 6 15 0 -4
BITMAP
30
30
30
FC
FC
70
70
70
70
3C
3C
00
00
18
38
ENDCHAR
STARTCHAR uni1E6E
ENCODING 7790
SWIDTH 556 0
DWIDTH 9 0
BBX 9 13 0 -3
BITMAP
FF80
FF80
1C00
1C00
1C00
1C00
1C00
1C00
1C00
1C00
0000
0000
3E00
ENDCHAR
STARTCHAR uni1E6F
ENCODING 7791
SWIDTH 383 0
DWIDTH 6 0
BBX 6 14 0 -3
BITMAP
30
30
30
FC
FC
70
70
70
70
3C
3C
00
00
7C
ENDCHAR
STARTCHAR Wgrave
ENCODING 7808
SWIDTH 813 0
DWIDTH 13 0
BBX 13 14 0 0
BITMAP
0400
0E00
0300
0000
E738
6738
6730
6530
65B0
6DB0
7DB0
3DE0
38E0
38E0
ENDCHAR
STARTCHAR wgrave
ENCODING 7809
SWIDTH 776 0
DWIDTH 12 0
BBX 12 13 0 0
BITMAP
0800
1C00
0E00
0600
0000
E630
6730
6760
6F60
3D60
3DE0
39C0
39C0
ENDCHAR
STARTCHAR Wacute
ENCODING 7810
SWIDTH 813 0
DWIDTH 13 0
BBX 13 14 0 0
BITMAP
0100
0380
0600
0000
E738
6738
6730
6530
65B0
6DB0
7DB0
3DE0
38E0
38E0
ENDCHAR
STARTCHAR wacute
ENCODING 7811
SWIDTH 776 0
DWIDTH 12 0
BBX 12 13 0 0
BITMAP
0100
0380
0300
0600
0000
E630
6730
6760
6F60
3D60
3DE0
39C0
39C0
ENDCHAR
STARTCHAR Wdieresis
ENCODING 7812
SWIDTH 813 0
DWIDTH 13 0
BBX 13 13 0 0
BITMAP
0D80
0D80
0000
E738
6738
6730
6530
65B0
6DB0
7DB0
3DE0
38E0
38E0
ENDCHAR
STARTCHAR wdieresis
ENCODING 7813
SWIDTH 776 0
DWIDTH 12 0
BBX 12 11 0 0
BITMAP
1980
1D80
0000
E630
6730
6760
6F60
3D60
3DE0
39C0
39C0
ENDCHAR
STARTCHAR uni1E8E
ENCODING 7822
SWIDTH 525 0
DWIDTH 8 0
BBX 9 13 0 0
BITMAP
1800
1C00
0000
E380
6700
6600
3600
3C00
1C00
1800
1800
1800
1800
ENDCHAR
STARTCHAR uni1E8F
ENCODING 7823
SWIDTH 521 0
DWIDTH 8 0
BBX 8 14 0 -3
BITMAP
18
1C
00
E3
67
66
36
36
3C
1C
1C
18
78
70
ENDCHAR
STARTCHAR uni1E92
ENCODING 7826
SWIDTH 541 0
DWIDTH 9 0
BBX 7 14 1 -4
BITMAP
FE
FE
0C
18
18
30
60
60
FE
FE
00
00
38
38
ENDCHAR
STARTCHAR uni1E93
ENCODING 7827
SWIDTH 460 0
DWIDTH 7 0
BBX 6 12 1 -4
BITMAP
FC
FC
18
30
70
60
FC
FC
00
00
30
30
ENDCHAR
STARTCHAR uni1E94
ENCODING 7828
SWIDTH 541 0
DWIDTH 9 0
BBX 7 13 1 -3
BITMAP
FE
FE
0C
18
18
30
60
60
FE
FE
00
00
7C
ENDCHAR
STARTCHAR uni1E95
ENCODING 7829
SWIDTH 460 0
DWIDTH 7 0
BBX 6 11 1 -3
BITMAP
FC
FC
18
30
70
60
FC
FC
00
00
78
ENDCHAR
STARTCHAR uni1E96
ENCODING 7830
SWIDTH 571 0
DWIDTH 9 0
BBX 7 14 1 -3
BITMAP
C0
C0
C0
DC
FE
E6
C6
C6
C6
C6
C6
00
00
7C
ENDCHAR
STARTCHAR uni1E97
ENCODING 7831
SWIDTH 383 0
DWIDTH 6 0
BBX 6 13 0 0
BITMAP
D8
DC
30
30
30
FC
FC
70
70
70
70
3C
3C
ENDCHAR
STARTCHAR uni1E9E
ENCODING 7838
SWIDTH 705 0
DWIDTH 11 0
BBX 10 10 1 0
BITMAP
3E00
7F00
E380
E300
E700
E780
E1C0
E9C0
EF80
FF00
ENDCHAR
STARTCHAR uni1EA0
ENCODING 7840
SWIDTH 573 0
DWIDTH 9 0
BBX 9 14 0 -4
BITMAP
1C00
1C00
3600
3600
3600
7300
7F00
7F00
E380
C180
0000
0000
1C00
1C00
ENDCHAR
STARTCHAR uni1EA1
ENCODING 7841
SWIDTH 527 0
DWIDTH 8 0
BBX 6 12 1 -4
BITMAP
78
FC
8C
3C
FC
CC
FC
FC
00
00
30
30
ENDCHAR
STARTCHAR uni1EA2
ENCODING 7842
SWIDTH 573 0
DWIDTH 9 0
BBX 9 15 0 0
BITMAP
1800
1C00
0C00
0800
0000
1C00
1C00
3600
3600
3600
7300
7F00
7F00
E380
C180
ENDCHAR
STARTCHAR uni1EA3
ENCODING 7843
SWIDTH 527 0
DWIDTH 8 0
BBX 6 13 1 0
BITMAP
30
38
18
18
00
78
FC
8C
3C
FC
CC
FC
FC
ENDCHAR
STARTCHAR uni1EA4
ENCODING 7844
SWIDTH 573 0
DWIDTH 9 0
BBX 9 14 0 0
BITMAP
0100
1F80
3600
2400
1C00
1C00
3600
3600
3600
7300
7F00
7F00
E380
C180
ENDCHAR
STARTCHAR uni1EA5
ENCODING 7845
SWIDTH 527 0
DWIDTH 8 0
BBX 8 13 1 0
BITMAP
02
03
3E
68
4C
78
FC
8C
3C
FC
CC
FC
FC
ENDCHAR
STARTCHAR uni1EA6
ENCODING 7846
SWIDTH 573 0
DWIDTH 9 0
BBX 9 14 0 0
BITMAP
4000
FC00
3600
2400
1C00
1C00
3600
3600
3600
7300
7F00
7F00
E380
C180
ENDCHAR
STARTCHAR uni1EA7
ENCODING 7847
SWIDTH 527 0
DWIDTH 8 0
BBX 7 13 0 0
BITMAP
80
C0
5C
34
26
3C
7E
46
1E
7E
66
7E
7E
ENDCHAR
STARTCHAR uni1EA8
ENCODING 7848
SWIDTH 573 0
DWIDTH 9 0
BBX 9 15 0 0
BITMAP
0300
0180
1D00
3600
2400
1C00
1C00
3600
3600
3600
7300
7F00
7F00
E380
C180
ENDCHAR
STARTCHAR uni1EA9
ENCODING 7849
SWIDTH 527 0
DWIDTH 8 0
BBX 7 13 1 0
BITMAP
06
02
3E
68
4C
78
FC
8C
3C
FC
CC
FC
FC
ENDCHAR
STARTCHAR uni1EAA
ENCODING 7850
SWIDTH 573 0
DWIDTH 9 0
BBX 9 16 0 0
BITMAP
0200
3E00
2000
1C00
3600
2400
1C00
1C00
3600
3600
3600
7300
7F00
7F00
E380
C180
ENDCHAR
STARTCHAR uni1EAB
ENCODING 7851
SWIDTH 527 0
DWIDTH 8 0
BBX 6 14 1 0
BITMAP
04
78
40
38
68
4C
78
FC
8C
3C
FC
CC
FC
FC
ENDCHAR
STARTCHAR uni1EAC
ENCODING 7852
SWIDTH 573 0
DWIDTH 9 0
BBX 9 17 0 -4
BITMAP
1C00
3600
0000
1C00
1C00
3600
3600
3600
7300
7F00
7F00
E380
C180
0000
0000
1C00
1C00
ENDCHAR
STARTCHAR uni1EAD
ENCODING 7853
SWIDTH 527 0
DWIDTH 8 0
BBX 6 16 1 -4
BITMAP
38
7C
C4
00
78
FC
8C
3C
FC
CC
FC
FC
00
00
30
30
ENDCHAR
STARTCHAR uni1EAE
ENCODING 7854
SWIDTH 573 0
DWIDTH 9 0
BBX 9 16 0 0
BITMAP
0400
0E00
0800
2200
1C00
0000
1C00
1C00
3600
3600
3600
7300
7F00
7F00
E380
C180
ENDCHAR
STARTCHAR uni1EAF
ENCODING 7855
SWIDTH 527 0
DWIDTH 8 0
BBX 6 14 1 0
BITMAP
08
18
10
44
78
00
78
FC
8C
3C
FC
CC
FC
FC
ENDCHAR
STARTCHAR uni1EB0
ENCODING 7856
SWIDTH 573 0
DWIDTH 9 0
BBX 9 16 0 0
BITMAP
1000
3800
0800
2200
1C00
0000
1C00
1C00
3600
3600
3600
7300
7F00
7F00
E380
C180
ENDCHAR
STARTCHAR uni1EB1
ENCODING 7857
SWIDTH 527 0
DWIDTH 8 0
BBX 6 14 1 0
BITMAP
20
70
10
44
78
00
78
FC
8C
3C
FC
CC
FC
FC
ENDCHAR
STARTCHAR uni1EB2
ENCODING 7858
SWIDTH 573 0
DWIDTH 9 0
BBX 9 16 0 0
BITMAP
1800
0C00
0800
2200
1C00
0000
1C00
1C00
3600
3600
3600
7300
7F00
7F00
E380
C180
ENDCHAR
STARTCHAR uni1EB3
ENCODING 7859
SWIDTH 527 0
DWIDTH 8 0
BBX 6 14 1 0
BITMAP
30
18
10
44
78
00
78
FC
8C
3C
FC
CC
FC
FC
ENDCHAR
STARTCHAR uni1EB4
ENCODING 7860
SWIDTH 573 0
DWIDTH 9 0
BBX 9 16 0 0
BITMAP
0200
3E00
2000
2200
1C00
0000
1C00
1C00
3600
3600
3600
7300
7F00
7F00
E380
C180
ENDCHAR
STARTCHAR uni1EB5
ENCODING 7861
SWIDTH 527 0
DWIDTH 8 0
BBX 6 14 1 0
BITMAP
04
78
40
4C
38
00
78
FC
8C
3C
FC
CC
FC
FC
ENDCHAR
STARTCHAR uni1EB6
ENCODING 7862
SWIDTH 573 0
DWIDTH 9 0
BBX 9 17 0 -4
BITMAP
2200
1C00
0000
1C00
1C00
3600
3600
3600
7300
7F00
7F00
E380
C180
0000
0000
1C00
1C00
ENDCHAR
STARTCHAR uni1EB7
ENCODING 7863
SWIDTH 527 0
DWIDTH 8 0
BBX 6 15 1 -4
BITMAP
4C
78
00
78
FC
8C
3C
FC
CC
FC
FC
00
00
30
30
ENDCHAR
STARTCHAR uni1EB8
ENCODING 7864
SWIDTH 548 0
DWIDTH 9 0
BBX 7 14 1 -4
BITMAP
FE
FE
E0
E0
FC
FC
E0
E0
FE
FE
00
00
18
38
ENDCHAR
STARTCHAR uni1EB9
ENCODING 7865
SWIDTH 518 0
DWIDTH 8 0
BBX 7 12 1 -4
BITMAP
78
FC
C6
FE
FE
C4
FC
7C
00
00
30
38
ENDCHAR
STARTCHAR uni1EBA
ENCODING 7866
SWIDTH 548 0
DWIDTH 9 0
BBX 7 15 1 0
BITMAP
30
38
18
10
00
FE
FE
E0
E0
FC
FC
E0
E0
FE
FE
ENDCHAR
STARTCHAR uni1EBB
ENCODING 7867
SWIDTH 518 0
DWIDTH 8 0
BBX 7 13 1 0
BITMAP
30
38
18
30
00
78
FC
C6
FE
FE
C4
FC
7C
ENDCHAR
STARTCHAR uni1EBC
ENCODING 7868
SWIDTH 548 0
DWIDTH 9 0
BBX 7 14 1 0
BITMAP
76
7E
DC
00
FE
FE
E0
E0
FC
FC
E0
E0
FE
FE
ENDCHAR
STARTCHAR uni1EBD
ENCODING 7869
SWIDTH 518 0
DWIDTH 8 0
BBX 7 12 1 0
BITMAP
64
FC
DC
00
78
FC
C6
FE
FE
C4
FC
7C
ENDCHAR
STARTCHAR uni1EBE
ENCODING 7870
SWIDTH 548 0
DWIDTH 9 0
BBX 8 14 1 0
BITMAP
02
3F
2C
48
FE
FE
E0
E0
FC
FC
E0
E0
FE
FE
ENDCHAR
STARTCHAR uni1EBF
ENCODING 7871
SWIDTH 518 0
DWIDTH 8 0
BBX 8 13 1 0
BITMAP
02
03
3E
68
4C
78
FC
C6
FE
FE
C4
FC
7C
ENDCHAR
STARTCHAR uni1EC0
ENCODING 7872
SWIDTH 548 0
DWIDTH 9 0
BBX 7 14 1 0
BITMAP
80
F8
2C
48
FE
FE
E0
E0
FC
FC
E0
E0
FE
FE
ENDCHAR
STARTCHAR uni1EC1
ENCODING 7873
SWIDTH 518 0
DWIDTH 8 0
BBX 8 13 0 0
BITMAP
80
C0
5C
34
26
3C
7E
63
7F
7F
62
7E
3E
ENDCHAR
STARTCHAR uni1EC2
ENCODING 7874
SWIDTH 548 0
DWIDTH 9 0
BBX 8 15 1 0
BITMAP
06
03
3A
2C
48
FE
FE
E0
E0
FC
FC
E0
E0
FE
FE
ENDCHAR
STARTCHAR uni1EC3
ENCODING 7875
SWIDTH 518 0
DWIDTH 8 0
BBX 7 13 1 0
BITMAP
06
02
3E
68
4C
78
FC
C6
FE
FE
C4
FC
7C
ENDCHAR
STARTCHAR uni1EC4
ENCODING 7876
SWIDTH 548 0
DWIDTH 9 0
BBX 7 16 1 0
BITMAP
04
7C
40
38
2C
48
FE
FE
E0
E0
FC
FC
E0
E0
FE
FE
ENDCHAR
STARTCHAR uni1EC5
ENCODING 7877
SWIDTH 518 0
DWIDTH 8 0
BBX 7 14 1 0
BITMAP
04
78
40
38
68
4C
78
FC
C6
FE
FE
C4
FC
7C
ENDCHAR
STARTCHAR uni1EC6
ENCODING 7878
SWIDTH 548 0
DWIDTH 9 0
BBX 7 17 1 -4
BITMAP
38
64
00
FE
FE
E0
E0
FC
FC
E0
E0
FE
FE
00
00
18
38
ENDCHAR
STARTCHAR uni1EC7
ENCODING 7879
SWIDTH 518 0
DWIDTH 8 0
BBX 7 16 1 -4
BITMAP
38
7C
C4
00
78
FC
C6
FE
FE
C4
FC
7C
00
00
30
38
ENDCHAR
STARTCHAR uni1EC8
ENCODING 7880
SWIDTH 301 0
DWIDTH 5 0
BBX 3 15 1 0
BITMAP
C0
E0
60
40
00
E0
E0
E0
E0
E0
E0
E0
E0
E0
E0
ENDCHAR
STARTCHAR uni1EC9
ENCODING 7881
SWIDTH 276 0
DWIDTH 4 0
BBX 3 13 1 0
BITMAP
C0
E0
60
C0
00
C0
C0
C0
C0
C0
C0
C0
C0
ENDCHAR
STARTCHAR uni1ECA
ENCODING 7882
SWIDTH 301 0
DWIDTH 5 0
BBX 3 14 1 -4
BITMAP
E0
E0
E0
E0
E0
E0
E0
E0
E0
E0
00
00
E0
E0
ENDCHAR
STARTCHAR uni1ECB
ENCODING 7883
SWIDTH 276 0
DWIDTH 4 0
BBX 3 15 1 -4
BITMAP
E0
C0
00
C0
C0
C0
C0
C0
C0
C0
C0
00
00
C0
E0
ENDCHAR
STARTCHAR uni1ECC
ENCODING 7884
SWIDTH 684 0
DWIDTH 11 0
BBX 9 14 1 -4
BITMAP
3E00
7F00
E380
C180
C180
C180
C180
E380
7F00
3E00
0000
0000
1C00
1C00
ENDCHAR
STARTCHAR uni1ECD
ENCODING 7885
SWIDTH 555 0
DWIDTH 9 0
BBX 7 12 1 -4
BITMAP
78
FE
C6
C6
C6
C6
FE
78
00
00
38
38
ENDCHAR
STARTCHAR uni1ECE
ENCODING 7886
SWIDTH 684 0
DWIDTH 11 0
BBX 9 15 1 0
BITMAP
1800
1C00
0C00
0800
0000
3E00
7F00
E380
C180
C180
C180
C180
E380
7F00
3E00
ENDCHAR
STARTCHAR uni1ECF
ENCODING 7887
SWIDTH 555 0
DWIDTH 9 0
BBX 7 13 1 0
BITMAP
30
38
18
18
00
78
FE
C6
C6
C6
C6
FE
78
ENDCHAR
STARTCHAR uni1ED0
ENCODING 7888
SWIDTH 684 0
DWIDTH 11 0
BBX 9 14 1 0
BITMAP
0100
1F80
3600
2400
3E00
7F00
E380
C180
C180
C180
C180
E380
7F00
3E00
ENDCHAR
STARTCHAR uni1ED1
ENCODING 7889
SWIDTH 555 0
DWIDTH 9 0
BBX 8 13 1 0
BITMAP
02
03
3E
68
4C
78
FE
C6
C6
C6
C6
FE
78
ENDCHAR
STARTCHAR uni1ED2
ENCODING 7890
SWIDTH 684 0
DWIDTH 11 0
BBX 9 14 1 0
BITMAP
4000
FC00
3600
2400
3E00
7F00
E380
C180
C180
C180
C180
E380
7F00
3E00
ENDCHAR
STARTCHAR uni1ED3
ENCODING 7891
SWIDTH 555 0
DWIDTH 9 0
BBX 8 13 0 0
BITMAP
80
C0
7C
34
26
3C
7F
63
63
63
63
7F
3C
ENDCHAR
STARTCHAR uni1ED4
ENCODING 7892
SWIDTH 684 0
DWIDTH 11 0
BBX 9 15 1 0
BITMAP
0300
0180
1F00
3600
2400
3E00
7F00
E380
C180
C180
C180
C180
E380
7F00
3E00
ENDCHAR
STARTCHAR uni1ED5
ENCODING 7893
SWIDTH 555 0
DWIDTH 9 0
BBX 8 13 1 0
BITMAP
06
03
3E
68
4C
78
FE
C6
C6
C6
C6
FE
78
ENDCHAR
STARTCHAR uni1ED6
ENCODING 7894
SWIDTH 684 0
DWIDTH 11 0
BBX 9 16 1 0
BITMAP
0200
3E00
2000
1C00
3600
2400
3E00
7F00
E380
C180
C180
C180
C180
E380
7F00
3E00
ENDCHAR
STARTCHAR uni1ED7
ENCODING 7895
SWIDTH 555 0
DWIDTH 9 0
BBX 7 14 1 0
BITMAP
04
78
40
38
68
4C
78
FE
C6
C6
C6
C6
FE
78
ENDCHAR
STARTCHAR uni1ED8
ENCODING 7896
SWIDTH 684 0
DWIDTH 11 0
BBX 9 17 1 -4
BITMAP
1C00
3600
0000
3E00
7F00
E380
C180
C180
C180
C180
E380
7F00
3E00
0000
0000
1C00
1C00
ENDCHAR
STARTCHAR uni1ED9
ENCODING 7897
SWIDTH 555 0
DWIDTH 9 0
BBX 7 16 1 -4
BITMAP
38
7C
44
00
78
FE
C6
C6
C6
C6
FE
78
00
00
38
38
ENDCHAR
STARTCHAR uni1EDA
ENCODING 7898
SWIDTH 684 0
DWIDTH 11 0
BBX 10 14 1 0
BITMAP
0400
0E00
19C0
00C0
3F80
7F00
E380
C180
C180
C180
C180
E380
7F00
3E00
ENDCHAR
STARTCHAR uni1EDB
ENCODING 7899
SWIDTH 555 0
DWIDTH 9 0
BBX 8 13 1 0
BITMAP
08
0C
1B
33
03
7E
FC
C6
C6
C6
C6
FE
78
ENDCHAR
STARTCHAR uni1EDC
ENCODING 7900
SWIDTH 684 0
DWIDTH 11 0
BBX 10 14 1 0
BITMAP
3000
3800
0DC0
00C0
3F80
7F00
E380
C180
C180
C180
C180
E380
7F00
3E00
ENDCHAR
STARTCHAR uni1EDD
ENCODING 7901
SWIDTH 555 0
DWIDTH 9 0
BBX 8 13 1 0
BITMAP
40
E0
31
13
03
7E
FC
C6
C6
C6
C6
FE
78
ENDCHAR
STARTCHAR uni1EDE
ENCODING 7902
SWIDTH 684 0
DWIDTH 11 0
BBX 10 15 1 0
BITMAP
1800
1C00
0C00
09C0
00C0
3F80
7F00
E380
C180
C180
C180
C180
E380
7F00
3E00
ENDCHAR
STARTCHAR uni1EDF
ENCODING 7903
SWIDTH 555 0
DWIDTH 9 0
BBX 8 13 1 0
BITMAP
30
38
19
1B
03
7E
FC
C6
C6
C6
C6
FE
78
ENDCHAR
STARTCHAR uni1EE0
ENCODING 7904
SWIDTH 684 0
DWIDTH 11 0
BBX 10 14 1 0
BITMAP
3200
7E00
6FC0
00C0
3F80
7F00
E380
C180
C180
C180
C180
E380
7F00
3E00
ENDCHAR
STARTCHAR uni1EE1
ENCODING 7905
SWIDTH 555 0
DWIDTH 9 0
BBX 8 12 1 0
BITMAP
6C
FD
9F
03
7E
FC
C6
C6
C6
C6
FE
78
ENDCHAR
STARTCHAR uni1EE2
ENCODING 7906
SWIDTH 684 0
DWIDTH 11 0
BBX 10 16 1 -4
BITMAP
01C0
00C0
3F80
7F00
E380
C180
C180
C180
C180
E380
7F00
3E00
0000
0000
1C00
1C00
ENDCHAR
STARTCHAR uni1EE3
ENCODING 7907
SWIDTH 555 0
DWIDTH 9 0
BBX 8 15 1 -4
BITMAP
01
03
03
7E
FC
C6
C6
C6
C6
FE
78
00
00
38
38
ENDCHAR
STARTCHAR uni1EE4
ENCODING 7908
SWIDTH 665 0
DWIDTH 11 0
BBX 8 14 1 -4
BITMAP
E3
E3
E3
E3
E3
E3
E3
E3
7F
3E
00
00
18
1C
ENDCHAR
STARTCHAR uni1EE5
ENCODING 7909
SWIDTH 568 0
DWIDTH 9 0
BBX 7 12 1 -4
BITMAP
C6
C6
C6
C6
C6
CE
FE
76
00
00
18
18
ENDCHAR
STARTCHAR uni1EE6
ENCODING 7910
SWIDTH 665 0
DWIDTH 11 0
BBX 8 15 1 0
BITMAP
18
1C
0C
18
00
E3
E3
E3
E3
E3
E3
E3
E3
7F
3E
ENDCHAR
STARTCHAR uni1EE7
ENCODING 7911
SWIDTH 568 0
DWIDTH 9 0
BBX 7 13 1 0
BITMAP
30
38
18
18
00
C6
C6
C6
C6
C6
CE
FE
76
ENDCHAR
STARTCHAR uni1EE8
ENCODING 7912
SWIDTH 683 0
DWIDTH 11 0
BBX 11 14 1 0
BITMAP
0400
0E40
18E0
00C0
E3C0
E300
E300
E300
E300
E300
E300
E300
7F00
3E00
ENDCHAR
STARTCHAR uni1EE9
ENCODING 7913
SWIDTH 568 0
DWIDTH 9 0
BBX 9 13 1 0
BITMAP
0800
0C00
1980
3380
0380
C700
C600
C600
C600
C600
CE00
FE00
7600
ENDCHAR
STARTCHAR uni1EEA
ENCODING 7914
SWIDTH 683 0
DWIDTH 11 0
BBX 11 14 1 0
BITMAP
2000
3840
0CE0
00C0
E3C0
E300
E300
E300
E300
E300
E300
E300
7F00
3E00
ENDCHAR
STARTCHAR uni1EEB
ENCODING 7915
SWIDTH 568 0
DWIDTH 9 0
BBX 9 13 1 0
BITMAP
4000
E000
7180
1380
0380
C700
C600
C600
C600
C600
CE00
FE00
7600
ENDCHAR
STARTCHAR uni1EEC
ENCODING 7916
SWIDTH 683 0
DWIDTH 11 0
BBX 11 15 1 0
BITMAP
1800
1C00
0C40
18E0
00C0
E3C0
E300
E300
E300
E300
E300
E300
E300
7F00
3E00
ENDCHAR
STARTCHAR uni1EED
ENCODING 7917
SWIDTH 568 0
DWIDTH 9 0
BBX 9 13 1 0
BITMAP
3000
3800
1980
1B80
0380
C700
C600
C600
C600
C600
CE00
FE00
7600
ENDCHAR
STARTCHAR uni1EEE
ENCODING 7918
SWIDTH 683 0
DWIDTH 11 0
BBX 11 14 1 0
BITMAP
3200
7E40
6EE0
00C0
E3C0
E300
E300
E300
E300
E300
E300
E300
7F00
3E00
ENDCHAR
STARTCHAR uni1EEF
ENCODING 7919
SWIDTH 568 0
DWIDTH 9 0
BBX 9 12 1 0
BITMAP
6400
7D80
DF80
0380
C700
C600
C600
C600
C600
CE00
FE00
7600
ENDCHAR
STARTCHAR uni1EF0
ENCODING 7920
SWIDTH 683 0
DWIDTH 11 0
BBX 11 17 1 -4
BITMAP
0040
00E0
00C0
E3C0
E300
E300
E300
E300
E300
E300
E300
7F00
3E00
0000
0000
1800
1C00
ENDCHAR
STARTCHAR uni1EF1
ENCODING 7921
SWIDTH 568 0
DWIDTH 9 0
BBX 9 15 1 -4
BITMAP
0180
0380
0380
C700
C600
C600
C600
C600
CE00
FE00
7600
0000
0000
1800
3800
ENDCHAR
STARTCHAR Ygrave
ENCODING 7922
SWIDTH 525 0
DWIDTH 8 0
BBX 9 14 0 0
BITMAP
2000
7800
1800
0000
E380
6700
6600
3600
3C00
1C00
1800
1800
1800
1800
ENDCHAR
STARTCHAR ygrave
ENCODING 7923
SWIDTH 521 0
DWIDTH 8 0
BBX 8 16 0 -3
BITMAP
20
70
38
08
00
E3
67
66
36
36
3C
1C
1C
18
78
70
ENDCHAR
STARTCHAR uni1EF4
ENCODING 7924
SWIDTH 525 0
DWIDTH 8 0
BBX 9 14 0 -4
BITMAP
E380
6700
6600
3600
3C00
1C00
1800
1800
1800
1800
0000
0000
1800
1C00
ENDCHAR
STARTCHAR uni1EF5
ENCODING 7925
SWIDTH 521 0
DWIDTH 8 0
BBX 8 12 0 -4
BITMAP
E3
67
66
36
36
3C
1C
1C
18
78
73
03
ENDCHAR
STARTCHAR uni1EF6
ENCODING 7926
SWIDTH 525 0
DWIDTH 8 0
BBX 9 15 0 0
BITMAP
1800
1C00
0C00
1800
0000
E380
6700
6600
3600
3C00
1C00
1800
1800
1800
1800
ENDCHAR
STARTCHAR uni1EF7
ENCODING 7927
SWIDTH 521 0
DWIDTH 8 0
BBX 8 16 0 -3
BITMAP
18
1C
0C
18
00
E3
67
66
36
36
3C
1C
1C
18
78
70
ENDCHAR
STARTCHAR uni1EF8
ENCODING 7928
SWIDTH 525 0
DWIDTH 8 0
BBX 9 14 0 0
BITMAP
3200
7E00
6E00
0000
E380
6700
6600
3600
3C00
1C00
1800
1800
1800
1800
ENDCHAR
STARTCHAR uni1EF9
ENCODING 7929
SWIDTH 521 0
DWIDTH 8 0
BBX 8 15 0 -3
BITMAP
32
7E
6E
00
E3
67
66
36
36
3C
1C
1C
18
78
70
ENDCHAR
STARTCHAR uni1F00
ENCODING 7936
SWIDTH 595 0
DWIDTH 10 0
BBX 8 13 1 0
BITMAP
30
38
18
18
00
7B
FF
CE
C6
C6
CE
FF
77
ENDCHAR
STARTCHAR uni1F01
ENCODING 7937
SWIDTH 595 0
DWIDTH 10 0
BBX 8 13 1 0
BITMAP
18
38
30
18
00
7B
FF
CE
C6
C6
CE
FF
77
ENDCHAR
STARTCHAR uni1F02
ENCODING 7938
SWIDTH 595 0
DWIDTH 10 0
BBX 8 13 1 0
BITMAP
44
6C
2C
64
00
7B
FF
CE
C6
C6
CE
FF
77
ENDCHAR
STARTCHAR uni1F03
ENCODING 7939
SWIDTH 595 0
DWIDTH 10 0
BBX 8 13 1 0
BITMAP
64
6C
4C
64
00
7B
FF
CE
C6
C6
CE
FF
77
ENDCHAR
STARTCHAR uni1F04
ENCODING 7940
SWIDTH 595 0
DWIDTH 10 0
BBX 8 13 1 0
BITMAP
48
6C
2C
68
00
7B
FF
CE
C6
C6
CE
FF
77
ENDCHAR
STARTCHAR uni1F05
ENCODING 7941
SWIDTH 595 0
DWIDTH 10 0
BBX 8 13 1 0
BITMAP
28
6C
4C
68
00
7B
FF
CE
C6
C6
CE
FF
77
ENDCHAR
STARTCHAR uni1F06
ENCODING 7942
SWIDTH 595 0
DWIDTH 10 0
BBX 8 14 1 0
BITMAP
34
7C
4C
10
38
18
7B
FF
CE
C6
C6
CE
FF
77
ENDCHAR
STARTCHAR uni1F07
ENCODING 7943
SWIDTH 595 0
DWIDTH 10 0
BBX 8 14 1 0
BITMAP
34
7C
4C
18
38
30
7B
FF
CE
C6
C6
CE
FF
77
ENDCHAR
STARTCHAR uni1F08
ENCODING 7944
SWIDTH 655 0
DWIDTH 10 0
BBX 11 10 0 0
BITMAP
CE00
EF00
6F00
FB00
1980
1980
3F80
3FC0
30C0
70E0
ENDCHAR
STARTCHAR uni1F09
ENCODING 7945
SWIDTH 639 0
DWIDTH 10 0
BBX 10 10 0 0
BITMAP
6E00
EF00
DB00
DB00
1B80
3980
3F80
3FC0
71C0
70C0
ENDCHAR
STARTCHAR uni1F0A
ENCODING 7946
SWIDTH 822 0
DWIDTH 13 0
BBX 13 10 0 0
BITMAP
D9C0
D9C0
6B60
CB60
0360
0730
07F0
07F0
0E38
0C18
ENDCHAR
STARTCHAR uni1F0B
ENCODING 7947
SWIDTH 821 0
DWIDTH 13 0
BBX 13 10 0 0
BITMAP
59C0
D9C0
8B60
CB60
0360
0770
07F0
07F0
0E38
0C18
ENDCHAR
STARTCHAR uni1F0C
ENCODING 7948
SWIDTH 812 0
DWIDTH 13 0
BBX 13 10 0 0
BITMAP
D9C0
D9C0
7B60
DB60
0360
0670
07F0
07F0
0E38
0C38
ENDCHAR
STARTCHAR uni1F0D
ENCODING 7949
SWIDTH 811 0
DWIDTH 13 0
BBX 13 10 0 0
BITMAP
59C0
DBC0
9B60
DB60
0360
0670
07F0
07F0
0E38
0C38
ENDCHAR
STARTCHAR uni1F0E
ENCODING 7950
SWIDTH 679 0
DWIDTH 11 0
BBX 11 10 0 0
BITMAP
F700
FF00
2F80
4D80
1D80
1980
1FC0
3FC0
30C0
30E0
ENDCHAR
STARTCHAR uni1F0F
ENCODING 7951
SWIDTH 679 0
DWIDTH 11 0
BBX 11 10 0 0
BITMAP
F700
FF00
4F80
2D80
1D80
1980
1FC0
3FC0
30C0
30E0
ENDCHAR
STARTCHAR uni1F10
ENCODING 7952
SWIDTH 471 0
DWIDTH 8 0
BBX 6 13 1 0
BITMAP
30
38
18
30
00
78
FC
C8
70
F0
C8
FC
78
ENDCHAR
STARTCHAR uni1F11
ENCODING 7953
SWIDTH 471 0
DWIDTH 8 0
BBX 6 13 1 0
BITMAP
10
38
20
30
00
78
FC
C8
70
F0
C8
FC
78
ENDCHAR
STARTCHAR uni1F12
ENCODING 7954
SWIDTH 471 0
DWIDTH 8 0
BBX 6 13 1 0
BITMAP
C8
F8
68
4C
00
78
FC
C8
70
F0
C8
FC
78
ENDCHAR
STARTCHAR uni1F13
ENCODING 7955
SWIDTH 471 0
DWIDTH 8 0
BBX 6 13 1 0
BITMAP
68
F8
C8
48
04
78
FC
C8
70
F0
C8
FC
78
ENDCHAR
STARTCHAR uni1F14
ENCODING 7956
SWIDTH 471 0
DWIDTH 8 0
BBX 6 13 1 0
BITMAP
C8
EC
68
58
00
78
FC
C8
70
F0
C8
FC
78
ENDCHAR
STARTCHAR uni1F15
ENCODING 7957
SWIDTH 471 0
DWIDTH 8 0
BBX 6 13 1 0
BITMAP
68
EC
D8
58
00
78
FC
C8
70
F0
C8
FC
78
ENDCHAR
STARTCHAR uni1F18
ENCODING 7960
SWIDTH 711 0
DWIDTH 11 0
BBX 11 10 0 0
BITMAP
CFC0
EFC0
6C00
EC00
0FC0
0FC0
0C00
0C00
0FE0
0FE0
ENDCHAR
STARTCHAR uni1F19
ENCODING 7961
SWIDTH 711 0
DWIDTH 11 0
BBX 11 10 0 0
BITMAP
6FC0
EFC0
CC00
CC00
0FC0
0FC0
0C00
0C00
0FE0
0FE0
ENDCHAR
STARTCHAR uni1F1A
ENCODING 7962
SWIDTH 874 0
DWIDTH 14 0
BBX 13 10 0 0
BITMAP
DBF8
DBF8
6B80
CB80
03F0
03F0
0380
0380
03F8
03F8
ENDCHAR
STARTCHAR uni1F1B
ENCODING 7963
SWIDTH 873 0
DWIDTH 14 0
BBX 13 10 0 0
BITMAP
5BF8
DBF8
8B80
CB80
03F0
03F0
0380
0380
03F8
03F8
ENDCHAR
STARTCHAR uni1F1C
ENCODING 7964
SWIDTH 864 0
DWIDTH 14 0
BBX 13 10 0 0
BITMAP
DBF8
DBF8
7B80
DB80
03F0
03F0
0380
0380
03F8
03F8
ENDCHAR
STARTCHAR uni1F1D
ENCODING 7965
SWIDTH 863 0
DWIDTH 14 0
BBX 13 10 0 0
BITMAP
5BF8
DBF8
9B80
DB80
03F0
03F0
0380
0380
03F8
03F8
ENDCHAR
STARTCHAR uni1F20
ENCODING 7968
SWIDTH 562 0
DWIDTH 9 0
BBX 7 15 1 -2
BITMAP
10
38
08
18
00
DC
FE
E6
C6
C6
C6
C6
C6
06
06
ENDCHAR
STARTCHAR uni1F21
ENCODING 7969
SWIDTH 562 0
DWIDTH 9 0
BBX 7 15 1 -2
BITMAP
18
18
30
18
00
DC
FE
E6
C6
C6
C6
C6
C6
06
06
ENDCHAR
STARTCHAR uni1F22
ENCODING 7970
SWIDTH 562 0
DWIDTH 9 0
BBX 7 15 1 -2
BITMAP
64
6C
2C
64
00
DC
FE
E6
C6
C6
C6
C6
C6
06
06
ENDCHAR
STARTCHAR uni1F23
ENCODING 7971
SWIDTH 562 0
DWIDTH 9 0
BBX 7 15 1 -2
BITMAP
24
6C
4C
64
00
DC
FE
E6
C6
C6
C6
C6
C6
06
06
ENDCHAR
STARTCHAR uni1F24
ENCODING 7972
SWIDTH 562 0
DWIDTH 9 0
BBX 7 15 1 -2
BITMAP
64
6C
2C
6C
00
DC
FE
E6
C6
C6
C6
C6
C6
06
06
ENDCHAR
STARTCHAR uni1F25
ENCODING 7973
SWIDTH 562 0
DWIDTH 9 0
BBX 7 15 1 -2
BITMAP
34
7C
4C
2C
00
DC
FE
E6
C6
C6
C6
C6
C6
06
06
ENDCHAR
STARTCHAR uni1F26
ENCODING 7974
SWIDTH 562 0
DWIDTH 9 0
BBX 7 16 1 -2
BITMAP
34
3C
6C
10
18
08
DC
FE
E6
C6
C6
C6
C6
C6
06
06
ENDCHAR
STARTCHAR uni1F27
ENCODING 7975
SWIDTH 562 0
DWIDTH 9 0
BBX 7 16 1 -2
BITMAP
34
3C
6C
18
18
10
DC
FE
E6
C6
C6
C6
C6
C6
06
06
ENDCHAR
STARTCHAR uni1F28
ENCODING 7976
SWIDTH 836 0
DWIDTH 13 0
BBX 12 10 0 0
BITMAP
CC30
EC30
6C30
EC30
0FF0
0FF0
0C30
0C30
0C30
0C30
ENDCHAR
STARTCHAR uni1F29
ENCODING 7977
SWIDTH 836 0
DWIDTH 13 0
BBX 12 10 0 0
BITMAP
6C30
EC30
CC30
CC30
0FF0
0FF0
0C30
0C30
0C30
0C30
ENDCHAR
STARTCHAR uni1F2A
ENCODING 7978
SWIDTH 999 0
DWIDTH 16 0
BBX 15 10 0 0
BITMAP
DB8E
DB8E
6B8E
CB8E
03FE
03FE
038E
038E
038E
038E
ENDCHAR
STARTCHAR uni1F2B
ENCODING 7979
SWIDTH 998 0
DWIDTH 16 0
BBX 15 10 0 0
BITMAP
5B8E
DB8E
8B8E
CB8E
03FE
03FE
038E
038E
038E
038E
ENDCHAR
STARTCHAR uni1F2C
ENCODING 7980
SWIDTH 990 0
DWIDTH 16 0
BBX 15 10 0 0
BITMAP
DB8E
DB8E
7B8E
DB8E
03FE
03FE
038E
038E
038E
038E
ENDCHAR
STARTCHAR uni1F2D
ENCODING 7981
SWIDTH 988 0
DWIDTH 16 0
BBX 15 10 0 0
BITMAP
5B8E
DB8E
9B8E
DB8E
03FE
03FE
038E
038E
038E
038E
ENDCHAR
STARTCHAR uni1F2E
ENCODING 7982
SWIDTH 896 0
DWIDTH 14 0
BBX 13 10 0 0
BITMAP
F618
F618
2618
4618
07F8
07F8
0618
0618
0618
0618
ENDCHAR
STARTCHAR uni1F2F
ENCODING 7983
SWIDTH 896 0
DWIDTH 14 0
BBX 13 10 0 0
BITMAP
F618
F618
4618
2618
07F8
07F8
0618
0618
0618
0618
ENDCHAR
STARTCHAR uni1F30
ENCODING 7984
SWIDTH 301 0
DWIDTH 5 0
BBX 4 13 1 0
BITMAP
C0
E0
60
C0
00
C0
C0
C0
C0
C0
C0
F0
70
ENDCHAR
STARTCHAR uni1F31
ENCODING 7985
SWIDTH 301 0
DWIDTH 5 0
BBX 4 13 1 0
BITMAP
60
E0
80
C0
00
C0
C0
C0
C0
C0
C0
F0
70
ENDCHAR
STARTCHAR uni1F32
ENCODING 7986
SWIDTH 301 0
DWIDTH 5 0
BBX 6 13 -1 0
BITMAP
C8
F8
68
4C
00
30
30
30
30
30
30
3C
1C
ENDCHAR
STARTCHAR uni1F33
ENCODING 7987
SWIDTH 301 0
DWIDTH 5 0
BBX 6 13 -1 0
BITMAP
68
F8
C8
4C
00
30
30
30
30
30
30
3C
1C
ENDCHAR
STARTCHAR uni1F34
ENCODING 7988
SWIDTH 301 0
DWIDTH 5 0
BBX 6 13 -1 0
BITMAP
C8
EC
68
58
00
30
30
30
30
30
30
3C
1C
ENDCHAR
STARTCHAR uni1F35
ENCODING 7989
SWIDTH 301 0
DWIDTH 5 0
BBX 6 13 -1 0
BITMAP
68
EC
C8
58
00
30
30
30
30
30
30
3C
1C
ENDCHAR
STARTCHAR uni1F36
ENCODING 7990
SWIDTH 301 0
DWIDTH 5 0
BBX 5 14 0 0
BITMAP
D8
F8
B0
60
60
30
60
60
60
60
60
60
78
38
ENDCHAR
STARTCHAR uni1F37
ENCODING 7991
SWIDTH 301 0
DWIDTH 5 0
BBX 5 14 0 0
BITMAP
D8
F8
B0
20
60
40
60
60
60
60
60
60
78
38
ENDCHAR
STARTCHAR uni1F38
ENCODING 7992
SWIDTH 464 0
DWIDTH 7 0
BBX 6 10 0 0
BITMAP
CC
EC
6C
EC
0C
0C
0C
0C
0C
0C
ENDCHAR
STARTCHAR uni1F39
ENCODING 7993
SWIDTH 464 0
DWIDTH 7 0
BBX 6 10 0 0
BITMAP
6C
EC
CC
CC
0C
0C
0C
0C
0C
0C
ENDCHAR
STARTCHAR uni1F3A
ENCODING 7994
SWIDTH 627 0
DWIDTH 10 0
BBX 9 10 0 0
BITMAP
DB80
DB80
6B80
CB80
0380
0380
0380
0380
0380
0380
ENDCHAR
STARTCHAR uni1F3B
ENCODING 7995
SWIDTH 626 0
DWIDTH 10 0
BBX 9 10 0 0
BITMAP
5B80
DB80
8B80
CB80
0380
0380
0380
0380
0380
0380
ENDCHAR
STARTCHAR uni1F3C
ENCODING 7996
SWIDTH 617 0
DWIDTH 10 0
BBX 9 10 0 0
BITMAP
DB80
DB80
7B80
DB80
0380
0380
0380
0380
0380
0380
ENDCHAR
STARTCHAR uni1F3D
ENCODING 7997
SWIDTH 616 0
DWIDTH 10 0
BBX 9 10 0 0
BITMAP
5B80
DB80
9B80
DB80
0380
0380
0380
0380
0380
0380
ENDCHAR
STARTCHAR uni1F3E
ENCODING 7998
SWIDTH 524 0
DWIDTH 8 0
BBX 7 10 0 0
BITMAP
F6
F6
26
46
06
06
06
06
06
06
ENDCHAR
STARTCHAR uni1F3F
ENCODING 7999
SWIDTH 524 0
DWIDTH 8 0
BBX 7 10 0 0
BITMAP
F6
F6
46
26
06
06
06
06
06
06
ENDCHAR
STARTCHAR uni1F40
ENCODING 8000
SWIDTH 553 0
DWIDTH 9 0
BBX 7 13 1 0
BITMAP
30
38
18
18
00
78
FC
CE
C6
C6
CE
FC
78
ENDCHAR
STARTCHAR uni1F41
ENCODING 8001
SWIDTH 553 0
DWIDTH 9 0
BBX 7 13 1 0
BITMAP
18
38
30
30
00
78
FC
CE
C6
C6
CE
FC
78
ENDCHAR
STARTCHAR uni1F42
ENCODING 8002
SWIDTH 553 0
DWIDTH 9 0
BBX 7 13 1 0
BITMAP
C8
FC
6C
4C
00
78
FC
CE
C6
C6
CE
FC
78
ENDCHAR
STARTCHAR uni1F43
ENCODING 8003
SWIDTH 553 0
DWIDTH 9 0
BBX 7 13 1 0
BITMAP
68
FC
CC
4C
00
78
FC
CE
C6
C6
CE
FC
78
ENDCHAR
STARTCHAR uni1F44
ENCODING 8004
SWIDTH 553 0
DWIDTH 9 0
BBX 7 13 1 0
BITMAP
C8
EC
68
48
00
78
FC
CE
C6
C6
CE
FC
78
ENDCHAR
STARTCHAR uni1F45
ENCODING 8005
SWIDTH 553 0
DWIDTH 9 0
BBX 7 13 1 0
BITMAP
68
6C
48
68
00
78
FC
CE
C6
C6
CE
FC
78
ENDCHAR
STARTCHAR uni1F48
ENCODING 8008
SWIDTH 827 0
DWIDTH 13 0
BBX 12 10 0 0
BITMAP
C7C0
EFE0
7C70
FC30
1830
1830
1C30
0C70
0FE0
07C0
ENDCHAR
STARTCHAR uni1F49
ENCODING 8009
SWIDTH 808 0
DWIDTH 13 0
BBX 12 10 0 0
BITMAP
67C0
EFE0
DC70
D830
1830
1830
1830
1C70
0FE0
07C0
ENDCHAR
STARTCHAR uni1F4A
ENCODING 8010
SWIDTH 984 0
DWIDTH 16 0
BBX 15 10 0 0
BITMAP
D8F8
D9FC
6B8E
CB06
0306
0306
0306
038E
01FC
00F8
ENDCHAR
STARTCHAR uni1F4B
ENCODING 8011
SWIDTH 996 0
DWIDTH 16 0
BBX 15 10 0 0
BITMAP
58F8
D9FC
8B8E
CB06
0306
0306
0306
038E
01FC
00F8
ENDCHAR
STARTCHAR uni1F4C
ENCODING 8012
SWIDTH 974 0
DWIDTH 16 0
BBX 15 10 0 0
BITMAP
D8F0
DBFC
7B8C
DB0E
070E
070E
030E
038C
01FC
00F0
ENDCHAR
STARTCHAR uni1F4D
ENCODING 8013
SWIDTH 973 0
DWIDTH 16 0
BBX 15 10 0 0
BITMAP
58F0
DBFC
9B8C
DF0E
070E
070E
030E
039C
01FC
00F0
ENDCHAR
STARTCHAR uni1F50
ENCODING 8016
SWIDTH 532 0
DWIDTH 9 0
BBX 7 13 1 0
BITMAP
30
38
18
30
00
CC
CE
CE
CE
CE
CE
FC
78
ENDCHAR
STARTCHAR uni1F51
ENCODING 8017
SWIDTH 532 0
DWIDTH 9 0
BBX 7 13 1 0
BITMAP
18
38
20
30
00
CC
CE
CE
CE
CE
CE
FC
78
ENDCHAR
STARTCHAR uni1F52
ENCODING 8018
SWIDTH 532 0
DWIDTH 9 0
BBX 7 13 1 0
BITMAP
C8
F8
68
4C
00
CC
CE
CE
CE
CE
CE
FC
78
ENDCHAR
STARTCHAR uni1F53
ENCODING 8019
SWIDTH 532 0
DWIDTH 9 0
BBX 7 13 1 0
BITMAP
68
F8
C8
4C
00
CC
CE
CE
CE
CE
CE
FC
78
ENDCHAR
STARTCHAR uni1F54
ENCODING 8020
SWIDTH 532 0
DWIDTH 9 0
BBX 7 13 1 0
BITMAP
C8
EC
68
58
00
CC
CE
CE
CE
CE
CE
FC
78
ENDCHAR
STARTCHAR uni1F55
ENCODING 8021
SWIDTH 532 0
DWIDTH 9 0
BBX 7 13 1 0
BITMAP
68
EC
C8
58
00
CC
CE
CE
CE
CE
CE
FC
78
ENDCHAR
STARTCHAR uni1F56
ENCODING 8022
SWIDTH 532 0
DWIDTH 9 0
BBX 7 14 1 0
BITMAP
6C
7C
58
30
30
18
EC
CE
CE
CE
CE
CE
FC
78
ENDCHAR
STARTCHAR uni1F57
ENCODING 8023
SWIDTH 532 0
DWIDTH 9 0
BBX 7 14 1 0
BITMAP
6C
7C
58
10
30
20
DC
CE
CE
CE
CE
CE
FC
78
ENDCHAR
STARTCHAR uni1F59
ENCODING 8025
SWIDTH 731 0
DWIDTH 12 0
BBX 12 10 0 0
BITMAP
7C70
EC60
CEE0
C6C0
06C0
0380
0380
0380
0380
0380
ENDCHAR
STARTCHAR uni1F5B
ENCODING 8027
SWIDTH 910 0
DWIDTH 15 0
BBX 15 10 0 0
BITMAP
5B8E
D98C
89D8
C8D8
00F0
0070
0070
0070
0070
0070
ENDCHAR
STARTCHAR uni1F5D
ENCODING 8029
SWIDTH 900 0
DWIDTH 14 0
BBX 15 10 0 0
BITMAP
5B8E
D99C
9998
D8D8
00F0
0070
0060
0060
0060
0060
ENDCHAR
STARTCHAR uni1F5F
ENCODING 8031
SWIDTH 794 0
DWIDTH 13 0
BBX 13 10 0 0
BITMAP
FE38
F630
4770
2360
0360
01C0
01C0
01C0
01C0
01C0
ENDCHAR
STARTCHAR uni1F60
ENCODING 8032
SWIDTH 746 0
DWIDTH 12 0
BBX 10 13 1 0
BITMAP
0C00
0C00
0600
0C00
0000
4080
E1C0
CCC0
CCC0
CCC0
CCC0
FFC0
7380
ENDCHAR
STARTCHAR uni1F61
ENCODING 8033
SWIDTH 746 0
DWIDTH 12 0
BBX 10 13 1 0
BITMAP
0C00
0C00
1800
0C00
0000
4080
E1C0
CCC0
CCC0
CCC0
CCC0
FFC0
7380
ENDCHAR
STARTCHAR uni1F62
ENCODING 8034
SWIDTH 746 0
DWIDTH 12 0
BBX 10 13 1 0
BITMAP
3200
3600
1A00
3200
0000
4080
E1C0
CCC0
CCC0
CCC0
CCC0
FFC0
7380
ENDCHAR
STARTCHAR uni1F63
ENCODING 8035
SWIDTH 746 0
DWIDTH 12 0
BBX 10 13 1 0
BITMAP
1200
3600
2A00
3200
0000
4080
E1C0
CCC0
CCC0
CCC0
CCC0
FFC0
7380
ENDCHAR
STARTCHAR uni1F64
ENCODING 8036
SWIDTH 746 0
DWIDTH 12 0
BBX 10 13 1 0
BITMAP
3200
3700
1E00
3600
0000
4080
E1C0
CCC0
CCC0
CCC0
CCC0
FFC0
7380
ENDCHAR
STARTCHAR uni1F65
ENCODING 8037
SWIDTH 746 0
DWIDTH 12 0
BBX 10 13 1 0
BITMAP
1A00
3F00
3600
1600
0000
4080
E1C0
CCC0
CCC0
CCC0
CCC0
FFC0
7380
ENDCHAR
STARTCHAR uni1F66
ENCODING 8038
SWIDTH 746 0
DWIDTH 12 0
BBX 10 14 1 0
BITMAP
1A00
1E00
3600
0C00
0C00
0400
4880
E1C0
CCC0
CCC0
CCC0
CCC0
FFC0
7380
ENDCHAR
STARTCHAR uni1F67
ENCODING 8039
SWIDTH 746 0
DWIDTH 12 0
BBX 10 14 1 0
BITMAP
1A00
1E00
3600
0C00
0C00
0800
4480
E1C0
CCC0
CCC0
CCC0
CCC0
FFC0
7380
ENDCHAR
STARTCHAR uni1F68
ENCODING 8040
SWIDTH 853 0
DWIDTH 14 0
BBX 13 10 0 0
BITMAP
C3C0
EFF0
6E70
FC38
1C38
1C38
0C30
0E70
1E78
1E78
ENDCHAR
STARTCHAR uni1F69
ENCODING 8041
SWIDTH 835 0
DWIDTH 13 0
BBX 13 10 0 0
BITMAP
67C0
EFE0
DC70
DC30
1830
1830
1C30
0C60
1EF8
1EF8
ENDCHAR
STARTCHAR uni1F6A
ENCODING 8042
SWIDTH 1018 0
DWIDTH 16 0
BBX 16 10 0 0
BITMAP
D8F8
D9FC
6B8E
CB06
0306
0306
0386
018C
03DF
03DF
ENDCHAR
STARTCHAR uni1F6B
ENCODING 8043
SWIDTH 1017 0
DWIDTH 16 0
BBX 16 10 0 0
BITMAP
58F8
D9FC
8B8E
CB06
0306
0306
0386
018C
03DF
03DF
ENDCHAR
STARTCHAR uni1F6C
ENCODING 8044
SWIDTH 1008 0
DWIDTH 16 0
BBX 15 10 0 0
BITMAP
D8F8
D9FC
7B8E
DB06
0306
0306
038E
018C
07DE
07DE
ENDCHAR
STARTCHAR uni1F6D
ENCODING 8045
SWIDTH 1007 0
DWIDTH 16 0
BBX 15 10 0 0
BITMAP
58F8
D9FC
9B8E
DB06
0306
0306
030E
018C
07DE
07DE
ENDCHAR
STARTCHAR uni1F6E
ENCODING 8046
SWIDTH 877 0
DWIDTH 14 0
BBX 13 10 0 0
BITMAP
F3E0
F7F0
2E38
4C38
0C18
0C18
0C38
0630
1F78
1F78
ENDCHAR
STARTCHAR uni1F6F
ENCODING 8047
SWIDTH 877 0
DWIDTH 14 0
BBX 13 10 0 0
BITMAP
F3E0
F7F0
4E38
2C38
0C18
0C18
0C38
0630
1F78
1F78
ENDCHAR
STARTCHAR uni1F70
ENCODING 8048
SWIDTH 595 0
DWIDTH 10 0
BBX 8 13 1 0
BITMAP
20
70
30
18
00
7B
FF
CE
C6
C6
CE
FF
77
ENDCHAR
STARTCHAR uni1F71
ENCODING 8049
SWIDTH 595 0
DWIDTH 10 0
BBX 8 13 1 0
BITMAP
04
0E
1C
10
00
7B
FF
CE
C6
C6
CE
FF
77
ENDCHAR
STARTCHAR uni1F72
ENCODING 8050
SWIDTH 471 0
DWIDTH 8 0
BBX 6 13 1 0
BITMAP
40
E0
70
30
00
78
FC
C8
70
F0
C8
FC
78
ENDCHAR
STARTCHAR uni1F73
ENCODING 8051
SWIDTH 471 0
DWIDTH 8 0
BBX 6 13 1 0
BITMAP
08
1C
38
10
00
78
FC
C8
70
F0
C8
FC
78
ENDCHAR
STARTCHAR uni1F74
ENCODING 8052
SWIDTH 562 0
DWIDTH 9 0
BBX 7 15 1 -2
BITMAP
20
70
38
10
00
DC
FE
E6
C6
C6
C6
C6
C6
06
06
ENDCHAR
STARTCHAR uni1F75
ENCODING 8053
SWIDTH 562 0
DWIDTH 9 0
BBX 7 15 1 -2
BITMAP
04
0E
1C
08
00
DC
FE
E6
C6
C6
C6
C6
C6
06
06
ENDCHAR
STARTCHAR uni1F76
ENCODING 8054
SWIDTH 301 0
DWIDTH 5 0
BBX 6 13 -1 0
BITMAP
40
E0
70
30
00
30
30
30
30
30
30
3C
1C
ENDCHAR
STARTCHAR uni1F77
ENCODING 8055
SWIDTH 301 0
DWIDTH 5 0
BBX 4 13 1 0
BITMAP
20
70
60
C0
00
C0
C0
C0
C0
C0
C0
F0
70
ENDCHAR
STARTCHAR uni1F78
ENCODING 8056
SWIDTH 553 0
DWIDTH 9 0
BBX 7 13 1 0
BITMAP
40
E0
30
10
00
78
FC
CE
C6
C6
CE
FC
78
ENDCHAR
STARTCHAR uni1F79
ENCODING 8057
SWIDTH 553 0
DWIDTH 9 0
BBX 7 13 1 0
BITMAP
08
0C
1A
30
00
78
FC
CE
C6
C6
CE
FC
78
ENDCHAR
STARTCHAR uni1F7A
ENCODING 8058
SWIDTH 532 0
DWIDTH 9 0
BBX 7 13 1 0
BITMAP
40
E0
70
30
00
CC
CE
CE
CE
CE
CE
FC
78
ENDCHAR
STARTCHAR uni1F7B
ENCODING 8059
SWIDTH 532 0
DWIDTH 9 0
BBX 7 13 1 0
BITMAP
08
1C
18
30
00
CC
CE
CE
CE
CE
CE
FC
78
ENDCHAR
STARTCHAR uni1F7C
ENCODING 8060
SWIDTH 746 0
DWIDTH 12 0
BBX 10 13 1 0
BITMAP
1000
3800
1C00
0800
0000
4080
E1C0
CCC0
CCC0
CCC0
CCC0
FFC0
7380
ENDCHAR
STARTCHAR uni1F7D
ENCODING 8061
SWIDTH 746 0
DWIDTH 12 0
BBX 10 13 1 0
BITMAP
0200
0700
0E00
0400
0000
4080
E1C0
CCC0
CCC0
CCC0
CCC0
FFC0
7380
ENDCHAR
STARTCHAR uni1F80
ENCODING 8064
SWIDTH 595 0
DWIDTH 10 0
BBX 8 16 1 -3
BITMAP
30
38
18
18
00
7B
FF
CE
C6
C6
CE
FF
77
00
18
1C
ENDCHAR
STARTCHAR uni1F81
ENCODING 8065
SWIDTH 595 0
DWIDTH 10 0
BBX 8 16 1 -3
BITMAP
18
38
30
18
00
7B
FF
CE
C6
C6
CE
FF
77
00
18
1C
ENDCHAR
STARTCHAR uni1F82
ENCODING 8066
SWIDTH 595 0
DWIDTH 10 0
BBX 8 16 1 -3
BITMAP
44
6C
2C
64
00
7B
FF
CE
C6
C6
CE
FF
77
00
18
1C
ENDCHAR
STARTCHAR uni1F83
ENCODING 8067
SWIDTH 595 0
DWIDTH 10 0
BBX 8 16 1 -3
BITMAP
64
6C
4C
64
00
7B
FF
CE
C6
C6
CE
FF
77
00
18
1C
ENDCHAR
STARTCHAR uni1F84
ENCODING 8068
SWIDTH 595 0
DWIDTH 10 0
BBX 8 16 1 -3
BITMAP
48
6C
2C
68
00
7B
FF
CE
C6
C6
CE
FF
77
00
18
1C
ENDCHAR
STARTCHAR uni1F85
ENCODING 8069
SWIDTH 595 0
DWIDTH 10 0
BBX 8 16 1 -3
BITMAP
28
6C
4C
68
00
7B
FF
CE
C6
C6
CE
FF
77
00
18
1C
ENDCHAR
STARTCHAR uni1F86
ENCODING 8070
SWIDTH 595 0
DWIDTH 10 0
BBX 8 17 1 -3
BITMAP
34
7C
4C
10
38
18
7B
FF
CE
C6
C6
CE
FF
77
00
18
1C
ENDCHAR
STARTCHAR uni1F87
ENCODING 8071
SWIDTH 595 0
DWIDTH 10 0
BBX 8 17 1 -3
BITMAP
34
7C
4C
18
38
30
7B
FF
CE
C6
C6
CE
FF
77
00
18
1C
ENDCHAR
STARTCHAR uni1F88
ENCODING 8072
SWIDTH 949 0
DWIDTH 15 0
BBX 15 10 0 0
BITMAP
CE00
EF00
6F00
FB1C
199C
199C
3F9C
3FDC
30CE
70EE
ENDCHAR
STARTCHAR uni1F89
ENCODING 8073
SWIDTH 933 0
DWIDTH 15 0
BBX 15 10 0 0
BITMAP
6E00
EF00
DB00
DB1C
1B98
3998
3F98
3FD8
71DE
70CE
ENDCHAR
STARTCHAR uni1F8A
ENCODING 8074
SWIDTH 1116 0
DWIDTH 18 0
BBX 18 10 0 0
BITMAP
D9C000
D9C000
6B6000
CB6380
036300
073300
07F300
07F300
0E3BC0
0C19C0
ENDCHAR
STARTCHAR uni1F8B
ENCODING 8075
SWIDTH 1115 0
DWIDTH 18 0
BBX 18 10 0 0
BITMAP
59C000
D9C000
8B6000
CB6380
036300
077300
07F300
07F300
0E3BC0
0C19C0
ENDCHAR
STARTCHAR uni1F8C
ENCODING 8076
SWIDTH 1106 0
DWIDTH 18 0
BBX 18 10 0 0
BITMAP
D9C000
D9C000
7B6000
DB6300
036300
067300
07F300
07F300
0E3B80
0C39C0
ENDCHAR
STARTCHAR uni1F8D
ENCODING 8077
SWIDTH 1105 0
DWIDTH 18 0
BBX 18 10 0 0
BITMAP
59C000
DBC000
9B6000
DB6300
036300
067300
07F300
07F300
0E3B80
0C39C0
ENDCHAR
STARTCHAR uni1F8E
ENCODING 8078
SWIDTH 973 0
DWIDTH 16 0
BBX 16 10 0 0
BITMAP
F700
FF00
2F80
4D8C
1D8C
198C
1FCC
3FCC
30CE
30E7
ENDCHAR
STARTCHAR uni1F8F
ENCODING 8079
SWIDTH 973 0
DWIDTH 16 0
BBX 16 10 0 0
BITMAP
F700
FF00
4F80
2D8C
1D8C
198C
1FCC
3FCC
30CE
30E7
ENDCHAR
STARTCHAR uni1F90
ENCODING 8080
SWIDTH 562 0
DWIDTH 9 0
BBX 7 16 1 -3
BITMAP
10
38
08
18
00
DC
FE
E6
C6
C6
C6
C6
C6
06
C6
60
ENDCHAR
STARTCHAR uni1F91
ENCODING 8081
SWIDTH 562 0
DWIDTH 9 0
BBX 7 16 1 -3
BITMAP
18
18
30
18
00
DC
FE
E6
C6
C6
C6
C6
C6
06
C6
60
ENDCHAR
STARTCHAR uni1F92
ENCODING 8082
SWIDTH 562 0
DWIDTH 9 0
BBX 7 16 1 -3
BITMAP
64
6C
2C
64
00
DC
FE
E6
C6
C6
C6
C6
C6
06
C6
60
ENDCHAR
STARTCHAR uni1F93
ENCODING 8083
SWIDTH 562 0
DWIDTH 9 0
BBX 7 16 1 -3
BITMAP
24
6C
4C
64
00
DC
FE
E6
C6
C6
C6
C6
C6
06
C6
60
ENDCHAR
STARTCHAR uni1F94
ENCODING 8084
SWIDTH 562 0
DWIDTH 9 0
BBX 7 16 1 -3
BITMAP
64
6C
2C
6C
00
DC
FE
E6
C6
C6
C6
C6
C6
06
C6
60
ENDCHAR
STARTCHAR uni1F95
ENCODING 8085
SWIDTH 562 0
DWIDTH 9 0
BBX 7 16 1 -3
BITMAP
34
7C
4C
2C
00
DC
FE
E6
C6
C6
C6
C6
C6
06
C6
60
ENDCHAR
STARTCHAR uni1F96
ENCODING 8086
SWIDTH 562 0
DWIDTH 9 0
BBX 7 17 1 -3
BITMAP
34
3C
6C
10
18
08
DC
FE
E6
C6
C6
C6
C6
C6
06
C6
60
ENDCHAR
STARTCHAR uni1F97
ENCODING 8087
SWIDTH 562 0
DWIDTH 9 0
BBX 7 17 1 -3
BITMAP
34
3C
6C
18
18
10
DC
FE
E6
C6
C6
C6
C6
C6
06
C6
60
ENDCHAR
STARTCHAR uni1F98
ENCODING 8088
SWIDTH 1131 0
DWIDTH 18 0
BBX 18 10 0 0
BITMAP
CC3000
EC3000
6C3000
EC3380
0FF380
0FF380
0C3380
0C3380
0C33C0
0C31C0
ENDCHAR
STARTCHAR uni1F99
ENCODING 8089
SWIDTH 1131 0
DWIDTH 18 0
BBX 18 10 0 0
BITMAP
6C3000
EC3000
CC3000
CC3380
0FF380
0FF380
0C3380
0C3380
0C33C0
0C31C0
ENDCHAR
STARTCHAR uni1F9A
ENCODING 8090
SWIDTH 1294 0
DWIDTH 21 0
BBX 21 10 0 0
BITMAP
DB8E00
DB8E00
6B8E00
CB8E60
03FE60
03FE60
038E60
038E60
038E70
038E38
ENDCHAR
STARTCHAR uni1F9B
ENCODING 8091
SWIDTH 1293 0
DWIDTH 21 0
BBX 21 10 0 0
BITMAP
5B8E00
DB8E00
8B8E00
CB8E60
03FE60
03FE60
038E60
038E60
038E70
038E38
ENDCHAR
STARTCHAR uni1F9C
ENCODING 8092
SWIDTH 1284 0
DWIDTH 21 0
BBX 21 10 0 0
BITMAP
DB8E00
DB8E00
7B8E00
DB8E60
03FE60
03FE60
038E60
038E60
038E70
038E38
ENDCHAR
STARTCHAR uni1F9D
ENCODING 8093
SWIDTH 1283 0
DWIDTH 21 0
BBX 20 10 0 0
BITMAP
5B8E00
DB8E00
9B8E00
DB8E60
03FE60
03FE60
038E60
038E60
038E70
038E30
ENDCHAR
STARTCHAR uni1F9E
ENCODING 8094
SWIDTH 1190 0
DWIDTH 19 0
BBX 19 10 0 0
BITMAP
F61800
F61800
261800
4619C0
07F9C0
07F9C0
0619C0
0619C0
0619E0
0618E0
ENDCHAR
STARTCHAR uni1F9F
ENCODING 8095
SWIDTH 1190 0
DWIDTH 19 0
BBX 19 10 0 0
BITMAP
F61800
F61800
461800
2619C0
07F9C0
07F9C0
0619C0
0619C0
0619E0
0618E0
ENDCHAR
STARTCHAR uni1FA0
ENCODING 8096
SWIDTH 746 0
DWIDTH 12 0
BBX 10 16 1 -3
BITMAP
0C00
0C00
0600
0C00
0000
4080
E1C0
CCC0
CCC0
CCC0
CCC0
FFC0
7380
0000
0C00
0E00
ENDCHAR
STARTCHAR uni1FA1
ENCODING 8097
SWIDTH 746 0
DWIDTH 12 0
BBX 10 16 1 -3
BITMAP
0C00
0C00
1800
0C00
0000
4080
E1C0
CCC0
CCC0
CCC0
CCC0
FFC0
7380
0000
0C00
0E00
ENDCHAR
STARTCHAR uni1FA2
ENCODING 8098
SWIDTH 746 0
DWIDTH 12 0
BBX 10 16 1 -3
BITMAP
3200
3600
1A00
3200
0000
4080
E1C0
CCC0
CCC0
CCC0
CCC0
FFC0
7380
0000
0C00
0E00
ENDCHAR
STARTCHAR uni1FA3
ENCODING 8099
SWIDTH 746 0
DWIDTH 12 0
BBX 10 16 1 -3
BITMAP
1200
3600
2A00
3200
0000
4080
E1C0
CCC0
CCC0
CCC0
CCC0
FFC0
7380
0000
0C00
0E00
ENDCHAR
STARTCHAR uni1FA4
ENCODING 8100
SWIDTH 746 0
DWIDTH 12 0
BBX 10 16 1 -3
BITMAP
3200
3700
1E00
3600
0000
4080
E1C0
CCC0
CCC0
CCC0
CCC0
FFC0
7380
0000
0C00
0E00
ENDCHAR
STARTCHAR uni1FA5
ENCODING 8101
SWIDTH 746 0
DWIDTH 12 0
BBX 10 16 1 -3
BITMAP
1A00
3F00
3600
1600
0000
4080
E1C0
CCC0
CCC0
CCC0
CCC0
FFC0
7380
0000
0C00
0E00
ENDCHAR
STARTCHAR uni1FA6
ENCODING 8102
SWIDTH 746 0
DWIDTH 12 0
BBX 10 17 1 -3
BITMAP
1A00
1E00
3600
0C00
0C00
0400
4880
E1C0
CCC0
CCC0
CCC0
CCC0
FFC0
7380
0000
0C00
0E00
ENDCHAR
STARTCHAR uni1FA7
ENCODING 8103
SWIDTH 746 0
DWIDTH 12 0
BBX 10 17 1 -3
BITMAP
1A00
1E00
3600
0C00
0C00
0800
4480
E1C0
CCC0
CCC0
CCC0
CCC0
FFC0
7380
0000
0C00
0E00
ENDCHAR
STARTCHAR uni1FA8
ENCODING 8104
SWIDTH 1147 0
DWIDTH 18 0
BBX 18 10 0 0
BITMAP
C3C000
EFF000
6E7000
FC3980
1C3980
1C3980
0C3180
0E7180
1E79C0
1E79C0
ENDCHAR
STARTCHAR uni1FA9
ENCODING 8105
SWIDTH 1129 0
DWIDTH 18 0
BBX 18 10 0 0
BITMAP
67C000
EFE000
DC7000
DC3380
183380
183380
1C3380
0C6380
1EFBC0
1EF9C0
ENDCHAR
STARTCHAR uni1FAA
ENCODING 8106
SWIDTH 1313 0
DWIDTH 21 0
BBX 21 10 0 0
BITMAP
D8F800
D9FC00
6B8E00
CB0670
030670
030670
038660
018C60
03DF78
03DF38
ENDCHAR
STARTCHAR uni1FAB
ENCODING 8107
SWIDTH 1311 0
DWIDTH 21 0
BBX 21 10 0 0
BITMAP
58F800
D9FC00
8B8E00
CB0670
030670
030670
038660
018C60
03DF78
03DF38
ENDCHAR
STARTCHAR uni1FAC
ENCODING 8108
SWIDTH 1303 0
DWIDTH 21 0
BBX 21 10 0 0
BITMAP
D8F800
D9FC00
7B8E00
DB0660
030660
030660
038E60
018C60
07DE78
07DE38
ENDCHAR
STARTCHAR uni1FAD
ENCODING 8109
SWIDTH 1302 0
DWIDTH 21 0
BBX 21 10 0 0
BITMAP
58F800
D9FC00
9B8E00
DB0660
030660
030660
030E60
018C60
07DE78
07DE38
ENDCHAR
STARTCHAR uni1FAE
ENCODING 8110
SWIDTH 1172 0
DWIDTH 19 0
BBX 19 10 0 0
BITMAP
F3E000
F7F000
2E3800
4C3980
0C1980
0C1980
0C3980
063180
1F79E0
1F78E0
ENDCHAR
STARTCHAR uni1FAF
ENCODING 8111
SWIDTH 1172 0
DWIDTH 19 0
BBX 19 10 0 0
BITMAP
F3E000
F7F000
4E3800
2C3980
0C1980
0C1980
0C3980
063180
1F79E0
1F78E0
ENDCHAR
STARTCHAR uni1FB0
ENCODING 8112
SWIDTH 595 0
DWIDTH 10 0
BBX 8 11 1 0
BITMAP
64
3C
00
7B
FF
CE
C6
C6
CE
FF
77
ENDCHAR
STARTCHAR uni1FB1
ENCODING 8113
SWIDTH 595 0
DWIDTH 10 0
BBX 8 10 1 0
BITMAP
7C
00
7B
FF
CE
C6
C6
CE
FF
77
ENDCHAR
STARTCHAR uni1FB2
ENCODING 8114
SWIDTH 595 0
DWIDTH 10 0
BBX 8 16 1 -3
BITMAP
20
70
30
18
00
7B
FF
CE
C6
C6
CE
FF
77
00
18
1C
ENDCHAR
STARTCHAR uni1FB3
ENCODING 8115
SWIDTH 595 0
DWIDTH 10 0
BBX 8 11 1 -3
BITMAP
7B
FF
CE
C6
C6
CE
FF
77
00
18
1C
ENDCHAR
STARTCHAR uni1FB4
ENCODING 8116
SWIDTH 595 0
DWIDTH 10 0
BBX 8 16 1 -3
BITMAP
04
0E
1C
10
00
7B
FF
CE
C6
C6
CE
FF
77
00
18
1C
ENDCHAR
STARTCHAR uni1FB6
ENCODING 8118
SWIDTH 595 0
DWIDTH 10 0
BBX 8 12 1 0
BITMAP
76
7E
5C
00
7B
FF
CE
C6
C6
CE
FF
77
ENDCHAR
STARTCHAR uni1FB7
ENCODING 8119
SWIDTH 595 0
DWIDTH 10 0
BBX 8 15 1 -3
BITMAP
76
7E
5C
00
7B
FF
CE
C6
C6
CE
FF
77
00
18
1C
ENDCHAR
STARTCHAR uni1FB8
ENCODING 8120
SWIDTH 573 0
DWIDTH 9 0
BBX 9 13 0 0
BITMAP
2200
1C00
0000
1C00
1C00
3600
3600
3600
7300
7F00
7F00
E380
C180
ENDCHAR
STARTCHAR uni1FB9
ENCODING 8121
SWIDTH 573 0
DWIDTH 9 0
BBX 9 13 0 0
BITMAP
3E00
3E00
0000
1C00
1C00
3600
3600
3600
7300
7F00
7F00
E380
C180
ENDCHAR
STARTCHAR uni1FBA
ENCODING 8122
SWIDTH 622 0
DWIDTH 10 0
BBX 10 10 0 0
BITMAP
CE00
DE00
DB00
5B00
3B00
3380
3F80
3F80
71C0
61C0
ENDCHAR
STARTCHAR uni1FBB
ENCODING 8123
SWIDTH 622 0
DWIDTH 10 0
BBX 10 10 0 0
BITMAP
CE00
DE00
DB00
9B00
3B00
3380
3F80
3F80
71C0
61C0
ENDCHAR
STARTCHAR uni1FBC
ENCODING 8124
SWIDTH 867 0
DWIDTH 14 0
BBX 14 10 0 0
BITMAP
1C00
1C00
3600
3638
3630
7330
7F30
7F30
E3BC
C19C
ENDCHAR
STARTCHAR uni1FBD
ENCODING 8125
SWIDTH 555 0
DWIDTH 9 0
BBX 3 4 3 9
BITMAP
C0
E0
60
60
ENDCHAR
STARTCHAR uni1FBE
ENCODING 8126
SWIDTH 301 0
DWIDTH 5 0
BBX 4 7 1 0
BITMAP
C0
C0
C0
C0
C0
F0
70
ENDCHAR
STARTCHAR uni1FBF
ENCODING 8127
SWIDTH 555 0
DWIDTH 9 0
BBX 3 4 3 9
BITMAP
C0
E0
60
60
ENDCHAR
STARTCHAR uni1FC0
ENCODING 8128
SWIDTH 555 0
DWIDTH 9 0
BBX 7 3 1 9
BITMAP
66
7C
DC
ENDCHAR
STARTCHAR uni1FC1
ENCODING 8129
SWIDTH 555 0
DWIDTH 9 0
BBX 5 4 2 9
BITMAP
F8
00
D8
D8
ENDCHAR
STARTCHAR uni1FC2
ENCODING 8130
SWIDTH 562 0
DWIDTH 9 0
BBX 7 16 1 -3
BITMAP
20
70
38
10
00
DC
FE
E6
C6
C6
C6
C6
C6
06
C6
60
ENDCHAR
STARTCHAR uni1FC3
ENCODING 8131
SWIDTH 562 0
DWIDTH 9 0
BBX 7 11 1 -3
BITMAP
DC
FE
E6
C6
C6
C6
C6
C6
06
C6
60
ENDCHAR
STARTCHAR uni1FC4
ENCODING 8132
SWIDTH 562 0
DWIDTH 9 0
BBX 7 16 1 -3
BITMAP
04
0E
1C
08
00
DC
FE
E6
C6
C6
C6
C6
C6
06
C6
60
ENDCHAR
STARTCHAR uni1FC6
ENCODING 8134
SWIDTH 562 0
DWIDTH 9 0
BBX 7 14 1 -2
BITMAP
36
7E
4E
00
DC
FE
E6
C6
C6
C6
C6
C6
06
06
ENDCHAR
STARTCHAR uni1FC7
ENCODING 8135
SWIDTH 562 0
DWIDTH 9 0
BBX 7 15 1 -3
BITMAP
36
7E
4E
00
DC
FE
E6
C6
C6
C6
C6
C6
06
C6
60
ENDCHAR
STARTCHAR uni1FC8
ENCODING 8136
SWIDTH 667 0
DWIDTH 11 0
BBX 10 10 0 0
BITMAP
DFC0
DFC0
D800
D800
1F80
1F80
1800
1800
1FC0
1FC0
ENDCHAR
STARTCHAR uni1FC9
ENCODING 8137
SWIDTH 667 0
DWIDTH 11 0
BBX 10 10 0 0
BITMAP
DFC0
DFC0
D800
9800
1F80
1F80
1800
1800
1FC0
1FC0
ENDCHAR
STARTCHAR uni1FCA
ENCODING 8138
SWIDTH 792 0
DWIDTH 13 0
BBX 11 10 0 0
BITMAP
D860
D860
D860
D860
1FE0
1FE0
1860
1860
1860
1860
ENDCHAR
STARTCHAR uni1FCB
ENCODING 8139
SWIDTH 792 0
DWIDTH 13 0
BBX 11 10 0 0
BITMAP
D860
D860
D860
9860
1FE0
1FE0
1860
1860
1860
1860
ENDCHAR
STARTCHAR uni1FCC
ENCODING 8140
SWIDTH 968 0
DWIDTH 15 0
BBX 14 10 1 0
BITMAP
E380
E380
E380
E398
FF98
FF98
E398
E398
E39C
E39C
ENDCHAR
STARTCHAR uni1FCD
ENCODING 8141
SWIDTH 555 0
DWIDTH 9 0
BBX 6 4 1 9
BITMAP
C8
FC
6C
4C
ENDCHAR
STARTCHAR uni1FCE
ENCODING 8142
SWIDTH 555 0
DWIDTH 9 0
BBX 6 4 1 9
BITMAP
C8
EC
68
48
ENDCHAR
STARTCHAR uni1FCF
ENCODING 8143
SWIDTH 555 0
DWIDTH 9 0
BBX 5 6 2 8
BITMAP
68
F8
B0
60
70
30
ENDCHAR
STARTCHAR uni1FD0
ENCODING 8144
SWIDTH 301 0
DWIDTH 5 0
BBX 6 11 -1 0
BITMAP
CC
78
00
30
30
30
30
30
30
3C
1C
ENDCHAR
STARTCHAR uni1FD1
ENCODING 8145
SWIDTH 301 0
DWIDTH 5 0
BBX 5 10 0 0
BITMAP
F8
00
60
60
60
60
60
60
78
38
ENDCHAR
STARTCHAR uni1FD2
ENCODING 8146
SWIDTH 301 0
DWIDTH 5 0
BBX 6 13 -1 0
BITMAP
30
30
F4
DC
00
30
30
30
30
30
30
3C
1C
ENDCHAR
STARTCHAR uni1FD3
ENCODING 8147
SWIDTH 301 0
DWIDTH 5 0
BBX 6 13 -1 0
BITMAP
18
10
D4
FC
00
30
30
30
30
30
30
3C
1C
ENDCHAR
STARTCHAR uni1FD6
ENCODING 8150
SWIDTH 301 0
DWIDTH 5 0
BBX 6 12 -1 0
BITMAP
64
FC
DC
00
30
30
30
30
30
30
3C
1C
ENDCHAR
STARTCHAR uni1FD7
ENCODING 8151
SWIDTH 301 0
DWIDTH 5 0
BBX 6 13 -1 0
BITMAP
7C
00
4C
CC
00
30
30
30
30
30
30
3C
1C
ENDCHAR
STARTCHAR uni1FD8
ENCODING 8152
SWIDTH 301 0
DWIDTH 5 0
BBX 5 13 0 0
BITMAP
88
70
00
70
70
70
70
70
70
70
70
70
70
ENDCHAR
STARTCHAR uni1FD9
ENCODING 8153
SWIDTH 301 0
DWIDTH 5 0
BBX 5 13 0 0
BITMAP
F8
F8
00
70
70
70
70
70
70
70
70
70
70
ENDCHAR
STARTCHAR uni1FDA
ENCODING 8154
SWIDTH 420 0
DWIDTH 7 0
BBX 5 10 0 0
BITMAP
D8
D8
D8
D8
18
18
18
18
18
18
ENDCHAR
STARTCHAR uni1FDB
ENCODING 8155
SWIDTH 420 0
DWIDTH 7 0
BBX 5 10 0 0
BITMAP
D8
D8
D8
98
18
18
18
18
18
18
ENDCHAR
STARTCHAR uni1FDD
ENCODING 8157
SWIDTH 555 0
DWIDTH 9 0
BBX 6 4 1 9
BITMAP
68
F8
CC
4C
ENDCHAR
STARTCHAR uni1FDE
ENCODING 8158
SWIDTH 555 0
DWIDTH 9 0
BBX 6 4 1 9
BITMAP
68
6C
C8
68
ENDCHAR
STARTCHAR uni1FDF
ENCODING 8159
SWIDTH 555 0
DWIDTH 9 0
BBX 5 6 2 8
BITMAP
68
F8
B0
30
70
60
ENDCHAR
STARTCHAR uni1FE0
ENCODING 8160
SWIDTH 532 0
DWIDTH 9 0
BBX 7 11 1 0
BITMAP
CC
78
00
CC
CE
CE
CE
CE
CE
FC
78
ENDCHAR
STARTCHAR uni1FE1
ENCODING 8161
SWIDTH 532 0
DWIDTH 9 0
BBX 7 10 1 0
BITMAP
7C
00
CC
CE
CE
CE
CE
CE
FC
78
ENDCHAR
STARTCHAR uni1FE2
ENCODING 8162
SWIDTH 532 0
DWIDTH 9 0
BBX 7 13 1 0
BITMAP
30
30
F4
DC
00
CC
CE
CE
CE
CE
CE
FC
78
ENDCHAR
STARTCHAR uni1FE3
ENCODING 8163
SWIDTH 532 0
DWIDTH 9 0
BBX 7 13 1 0
BITMAP
18
10
D4
FC
00
CC
CE
CE
CE
CE
CE
FC
78
ENDCHAR
STARTCHAR uni1FE4
ENCODING 8164
SWIDTH 569 0
DWIDTH 9 0
BBX 7 15 1 -2
BITMAP
30
38
08
18
00
3C
7E
E6
C6
C6
C6
FE
DC
C0
C0
ENDCHAR
STARTCHAR uni1FE5
ENCODING 8165
SWIDTH 569 0
DWIDTH 9 0
BBX 7 15 1 -2
BITMAP
18
38
30
18
00
3C
7E
E6
C6
C6
C6
FE
DC
C0
C0
ENDCHAR
STARTCHAR uni1FE6
ENCODING 8166
SWIDTH 532 0
DWIDTH 9 0
BBX 7 12 1 0
BITMAP
64
FC
DC
00
CC
CE
CE
CE
CE
CE
FC
78
ENDCHAR
STARTCHAR uni1FE7
ENCODING 8167
SWIDTH 532 0
DWIDTH 9 0
BBX 7 13 1 0
BITMAP
7C
00
4C
CC
00
CC
CE
CE
CE
CE
CE
FC
78
ENDCHAR
STARTCHAR uni1FE8
ENCODING 8168
SWIDTH 525 0
DWIDTH 8 0
BBX 9 13 0 0
BITMAP
2600
3C00
0000
E380
6700
6600
3600
3C00
1C00
1800
1800
1800
1800
ENDCHAR
STARTCHAR uni1FE9
ENCODING 8169
SWIDTH 525 0
DWIDTH 8 0
BBX 9 13 0 0
BITMAP
3E00
3E00
0000
E380
6700
6600
3600
3C00
1C00
1800
1800
1800
1800
ENDCHAR
STARTCHAR uni1FEA
ENCODING 8170
SWIDTH 704 0
DWIDTH 11 0
BBX 11 10 0 0
BITMAP
D860
DCE0
CCC0
CEC0
0780
0780
0300
0300
0300
0300
ENDCHAR
STARTCHAR uni1FEB
ENCODING 8171
SWIDTH 704 0
DWIDTH 11 0
BBX 11 10 0 0
BITMAP
D860
DCE0
CCC0
8EC0
0780
0780
0300
0300
0300
0300
ENDCHAR
STARTCHAR uni1FEC
ENCODING 8172
SWIDTH 759 0
DWIDTH 12 0
BBX 12 10 0 0
BITMAP
6FC0
EFE0
CC60
CC70
0C60
0FE0
0FC0
0C00
0C00
0C00
ENDCHAR
STARTCHAR uni1FED
ENCODING 8173
SWIDTH 555 0
DWIDTH 9 0
BBX 6 4 1 9
BITMAP
30
30
54
D4
ENDCHAR
STARTCHAR uni1FEE
ENCODING 8174
SWIDTH 555 0
DWIDTH 9 0
BBX 6 4 1 9
BITMAP
18
18
54
D4
ENDCHAR
STARTCHAR uni1FEF
ENCODING 8175
SWIDTH 555 0
DWIDTH 9 0
BBX 3 4 2 9
BITMAP
60
E0
60
20
ENDCHAR
STARTCHAR uni1FF2
ENCODING 8178
SWIDTH 746 0
DWIDTH 12 0
BBX 10 16 1 -3
BITMAP
1000
3800
1C00
0800
0000
4080
E1C0
CCC0
CCC0
CCC0
CCC0
FFC0
7380
0000
0C00
0E00
ENDCHAR
STARTCHAR uni1FF3
ENCODING 8179
SWIDTH 746 0
DWIDTH 12 0
BBX 10 11 1 -3
BITMAP
4080
E1C0
CCC0
CCC0
CCC0
CCC0
FFC0
7380
0000
0C00
0E00
ENDCHAR
STARTCHAR uni1FF4
ENCODING 8180
SWIDTH 746 0
DWIDTH 12 0
BBX 10 16 1 -3
BITMAP
0200
0700
0E00
0400
0000
4080
E1C0
CCC0
CCC0
CCC0
CCC0
FFC0
7380
0000
0C00
0E00
ENDCHAR
STARTCHAR uni1FF6
ENCODING 8182
SWIDTH 746 0
DWIDTH 12 0
BBX 10 12 1 0
BITMAP
1900
3F00
2700
0000
4080
E1C0
CCC0
CCC0
CCC0
CCC0
FFC0
7380
ENDCHAR
STARTCHAR uni1FF7
ENCODING 8183
SWIDTH 746 0
DWIDTH 12 0
BBX 10 15 1 -3
BITMAP
1900
3F00
2700
0000
4080
E1C0
CCC0
CCC0
CCC0
CCC0
FFC0
7380
0000
0C00
0E00
ENDCHAR
STARTCHAR uni1FF8
ENCODING 8184
SWIDTH 790 0
DWIDTH 13 0
BBX 12 10 0 0
BITMAP
C780
CFE0
DC60
D870
3870
3870
1870
1C60
0FE0
0780
ENDCHAR
STARTCHAR uni1FF9
ENCODING 8185
SWIDTH 777 0
DWIDTH 12 0
BBX 12 10 0 0
BITMAP
C780
DFE0
DCE0
B870
3870
3870
3870
1CE0
1FE0
0780
ENDCHAR
STARTCHAR uni1FFA
ENCODING 8186
SWIDTH 811 0
DWIDTH 13 0
BBX 12 10 0 0
BITMAP
C7C0
CFE0
DC70
D870
1830
1830
1870
0C60
3EF0
3EF0
ENDCHAR
STARTCHAR uni1FFB
ENCODING 8187
SWIDTH 803 0
DWIDTH 13 0
BBX 12 10 0 0
BITMAP
C780
DFE0
DC60
9870
3870
1870
1860
0CE0
3CF0
3CF0
ENDCHAR
STARTCHAR uni1FFC
ENCODING 8188
SWIDTH 1005 0
DWIDTH 16 0
BBX 15 10 1 0
BITMAP
3E00
7F00
E380
E19C
C19C
C19C
E19C
631C
F7DE
F7CE
ENDCHAR
STARTCHAR uni1FFD
ENCODING 8189
SWIDTH 555 0
DWIDTH 9 0
BBX 2 4 4 9
BITMAP
C0
C0
C0
80
ENDCHAR
STARTCHAR uni1FFE
ENCODING 8190
SWIDTH 555 0
DWIDTH 9 0
BBX 3 4 3 9
BITMAP
60
E0
C0
C0
ENDCHAR
STARTCHAR uni2007
ENCODING 8199
SWIDTH 528 0
DWIDTH 8 0
BBX 1 1 0 0
BITMAP
00
ENDCHAR
STARTCHAR figuredash
ENCODING 8210
SWIDTH 528 0
DWIDTH 8 0
BBX 7 2 1 3
BITMAP
FE
FE
ENDCHAR
STARTCHAR endash
ENCODING 8211
SWIDTH 480 0
DWIDTH 8 0
BBX 6 2 1 3
BITMAP
FC
FC
ENDCHAR
STARTCHAR emdash
ENCODING 8212
SWIDTH 800 0
DWIDTH 13 0
BBX 11 2 1 3
BITMAP
FFE0
FFE0
ENDCHAR
STARTCHAR uni2015
ENCODING 8213
SWIDTH 800 0
DWIDTH 13 0
BBX 11 2 1 3
BITMAP
FFE0
FFE0
ENDCHAR
STARTCHAR uni2016
ENCODING 8214
SWIDTH 452 0
DWIDTH 7 0
BBX 5 16 1 -4
BITMAP
D8
D8
D8
D8
D8
D8
D8
D8
D8
D8
D8
D8
D8
D8
D8
D8
ENDCHAR
STARTCHAR quoteleft
ENCODING 8216
SWIDTH 300 0
DWIDTH 5 0
BBX 3 5 1 6
BITMAP
40
E0
80
C0
E0
ENDCHAR
STARTCHAR quoteright
ENCODING 8217
SWIDTH 300 0
DWIDTH 5 0
BBX 3 5 1 6
BITMAP
E0
E0
20
40
C0
ENDCHAR
STARTCHAR quotesinglbase
ENCODING 8218
SWIDTH 300 0
DWIDTH 5 0
BBX 3 5 1 -2
BITMAP
E0
E0
20
40
C0
ENDCHAR
STARTCHAR quotedblleft
ENCODING 8220
SWIDTH 536 0
DWIDTH 9 0
BBX 6 5 1 6
BITMAP
44
EC
88
CC
EC
ENDCHAR
STARTCHAR quotedblright
ENCODING 8221
SWIDTH 536 0
DWIDTH 9 0
BBX 7 5 1 6
BITMAP
EC
EE
26
44
C8
ENDCHAR
STARTCHAR quotedblbase
ENCODING 8222
SWIDTH 536 0
DWIDTH 9 0
BBX 7 5 1 -2
BITMAP
EC
EE
26
44
C8
ENDCHAR
STARTCHAR dagger
ENCODING 8224
SWIDTH 510 0
DWIDTH 8 0
BBX 6 13 1 -2
BITMAP
30
30
30
FC
B4
30
30
30
30
30
30
30
30
ENDCHAR
STARTCHAR daggerdbl
ENCODING 8225
SWIDTH 510 0
DWIDTH 8 0
BBX 6 13 1 -2
BITMAP
30
30
30
FC
B4
30
30
30
FC
FC
30
30
30
ENDCHAR
STARTCHAR bullet
ENCODING 8226
SWIDTH 345 0
DWIDTH 6 0
BBX 4 4 1 2
BITMAP
E0
F0
F0
E0
ENDCHAR
STARTCHAR ellipsis
ENCODING 8230
SWIDTH 977 0
DWIDTH 16 0
BBX 14 3 1 0
BITMAP
6318
E71C
6318
ENDCHAR
STARTCHAR uni202F
ENCODING 8239
SWIDTH 125 0
DWIDTH 2 0
BBX 1 1 0 0
BITMAP
00
ENDCHAR
STARTCHAR perthousand
ENCODING 8240
SWIDTH 1249 0
DWIDTH 20 0
BBX 20 10 0 0
BITMAP
784000
78C000
CC8000
CD70C0
7BF9E0
7ADB20
06CB30
04DB20
0CF9E0
1870C0
ENDCHAR
STARTCHAR uni2032
ENCODING 8242
SWIDTH 300 0
DWIDTH 5 0
BBX 3 5 1 6
BITMAP
60
60
C0
C0
C0
ENDCHAR
STARTCHAR uni2033
ENCODING 8243
SWIDTH 537 0
DWIDTH 9 0
BBX 7 5 1 6
BITMAP
6E
6E
CC
CC
CC
ENDCHAR
STARTCHAR uni2035
ENCODING 8245
SWIDTH 300 0
DWIDTH 5 0
BBX 2 5 1 6
BITMAP
C0
C0
C0
40
40
ENDCHAR
STARTCHAR guilsinglleft
ENCODING 8249
SWIDTH 292 0
DWIDTH 5 0
BBX 3 6 1 1
BITMAP
60
C0
80
80
C0
60
ENDCHAR
STARTCHAR guilsinglright
ENCODING 8250
SWIDTH 292 0
DWIDTH 5 0
BBX 3 6 1 1
BITMAP
80
C0
60
60
C0
80
ENDCHAR
STARTCHAR uni203C
ENCODING 8252
SWIDTH 614 0
DWIDTH 10 0
BBX 8 11 1 0
BITMAP
66
66
66
66
66
66
66
00
66
E7
66
ENDCHAR
STARTCHAR uni203D
ENCODING 8253
SWIDTH 480 0
DWIDTH 8 0
BBX 7 11 0 0
BITMAP
3C
FE
46
36
3C
18
10
00
00
38
38
ENDCHAR
STARTCHAR uni203E
ENCODING 8254
SWIDTH 500 0
DWIDTH 8 0
BBX 8 2 0 8
BITMAP
FF
FF
ENDCHAR
STARTCHAR uni203F
ENCODING 8255
SWIDTH 0 0
DWIDTH 0 0
BBX 14 4 -7 -4
BITMAP
8004
E01C
7FF8
0FC0
ENDCHAR
STARTCHAR fraction
ENCODING 8260
SWIDTH 96 0
DWIDTH 2 0
BBX 7 11 -3 0
BITMAP
02
04
04
08
08
10
10
20
20
40
C0
ENDCHAR
STARTCHAR uni2047
ENCODING 8263
SWIDTH 873 0
DWIDTH 14 0
BBX 12 11 1 0
BITMAP
79E0
FFF0
9D30
1C30
3860
30E0
70C0
0000
70C0
70C0
70C0
ENDCHAR
STARTCHAR uni2048
ENCODING 8264
SWIDTH 750 0
DWIDTH 12 0
BBX 10 11 1 0
BITMAP
7980
FD80
9D80
1D80
3980
3180
7180
0000
7180
71C0
7180
ENDCHAR
STARTCHAR uni2049
ENCODING 8265
SWIDTH 750 0
DWIDTH 12 0
BBX 10 11 1 0
BITMAP
6780
6FC0
64C0
60C0
6180
6380
6300
0000
6300
E300
6380
ENDCHAR
STARTCHAR zero.sups
ENCODING 8304
SWIDTH 376 0
DWIDTH 6 0
BBX 6 6 0 6
BITMAP
78
48
CC
CC
48
78
ENDCHAR
STARTCHAR i.sups
ENCODING 8305
SWIDTH 188 0
DWIDTH 3 0
BBX 1 8 1 6
BITMAP
80
80
00
80
80
80
80
80
ENDCHAR
STARTCHAR four.sups
ENCODING 8308
SWIDTH 376 0
DWIDTH 6 0
BBX 5 6 1 6
BITMAP
30
50
F0
B0
F8
30
ENDCHAR
STARTCHAR five.sups
ENCODING 8309
SWIDTH 376 0
DWIDTH 6 0
BBX 5 6 0 6
BITMAP
78
60
78
08
48
F8
ENDCHAR
STARTCHAR six.sups
ENCODING 8310
SWIDTH 376 0
DWIDTH 6 0
BBX 4 6 1 6
BITMAP
70
80
F0
90
90
70
ENDCHAR
STARTCHAR seven.sups
ENCODING 8311
SWIDTH 376 0
DWIDTH 6 0
BBX 5 6 1 6
BITMAP
F8
30
20
60
60
60
ENDCHAR
STARTCHAR eight.sups
ENCODING 8312
SWIDTH 376 0
DWIDTH 6 0
BBX 4 6 1 6
BITMAP
F0
90
60
90
90
F0
ENDCHAR
STARTCHAR nine.sups
ENCODING 8313
SWIDTH 376 0
DWIDTH 6 0
BBX 4 6 1 6
BITMAP
E0
90
90
F0
10
E0
ENDCHAR
STARTCHAR parenleft.sups
ENCODING 8317
SWIDTH 268 0
DWIDTH 4 0
BBX 3 9 1 5
BITMAP
60
40
C0
C0
C0
C0
C0
40
60
ENDCHAR
STARTCHAR parenright.sups
ENCODING 8318
SWIDTH 268 0
DWIDTH 4 0
BBX 2 9 1 5
BITMAP
80
C0
C0
40
40
40
C0
C0
80
ENDCHAR
STARTCHAR n.sups
ENCODING 8319
SWIDTH 384 0
DWIDTH 6 0
BBX 5 5 1 6
BITMAP
F0
90
98
98
98
ENDCHAR
STARTCHAR zero.subs
ENCODING 8320
SWIDTH 376 0
DWIDTH 6 0
BBX 6 6 0 -3
BITMAP
78
48
CC
CC
48
78
ENDCHAR
STARTCHAR one.subs
ENCODING 8321
SWIDTH 376 0
DWIDTH 6 0
BBX 3 6 1 -3
BITMAP
60
E0
20
20
20
20
ENDCHAR
STARTCHAR two.subs
ENCODING 8322
SWIDTH 376 0
DWIDTH 6 0
BBX 5 6 0 -3
BITMAP
70
D8
18
18
30
78
ENDCHAR
STARTCHAR three.subs
ENCODING 8323
SWIDTH 376 0
DWIDTH 6 0
BBX 5 6 0 -3
BITMAP
78
38
38
08
48
F0
ENDCHAR
STARTCHAR four.subs
ENCODING 8324
SWIDTH 376 0
DWIDTH 6 0
BBX 5 6 1 -3
BITMAP
30
50
F0
B0
F8
30
ENDCHAR
STARTCHAR five.subs
ENCODING 8325
SWIDTH 376 0
DWIDTH 6 0
BBX 5 6 0 -3
BITMAP
78
60
78
08
48
F8
ENDCHAR
STARTCHAR six.subs
ENCODING 8326
SWIDTH 376 0
DWIDTH 6 0
BBX 4 6 1 -3
BITMAP
70
80
F0
90
90
70
ENDCHAR
STARTCHAR seven.subs
ENCODING 8327
SWIDTH 376 0
DWIDTH 6 0
BBX 5 6 1 -3
BITMAP
F8
30
20
60
60
60
ENDCHAR
STARTCHAR eight.subs
ENCODING 8328
SWIDTH 376 0
DWIDTH 6 0
BBX 4 6 1 -3
BITMAP
F0
90
60
90
90
F0
ENDCHAR
STARTCHAR nine.subs
ENCODING 8329
SWIDTH 376 0
DWIDTH 6 0
BBX 4 6 1 -3
BITMAP
E0
90
90
F0
10
E0
ENDCHAR
STARTCHAR parenleft.subs
ENCODING 8333
SWIDTH 268 0
DWIDTH 4 0
BBX 3 9 1 -4
BITMAP
60
40
C0
C0
C0
C0
C0
40
60
ENDCHAR
STARTCHAR parenright.subs
ENCODING 8334
SWIDTH 268 0
DWIDTH 4 0
BBX 2 9 1 -4
BITMAP
80
C0
C0
40
40
40
C0
C0
80
ENDCHAR
STARTCHAR uni0259.sups
ENCODING 8340
SWIDTH 346 0
DWIDTH 6 0
BBX 5 5 0 6
BITMAP
70
18
F8
D8
70
ENDCHAR
STARTCHAR colonmonetary
ENCODING 8353
SWIDTH 528 0
DWIDTH 8 0
BBX 7 14 1 -2
BITMAP
0C
14
3C
7E
FC
D8
D8
D8
D8
EC
6E
3C
30
30
ENDCHAR
STARTCHAR lira
ENCODING 8356
SWIDTH 528 0
DWIDTH 8 0
BBX 7 10 1 0
BITMAP
3C
7E
64
FC
60
FC
60
60
FE
FE
ENDCHAR
STARTCHAR uni20A6
ENCODING 8358
SWIDTH 528 0
DWIDTH 8 0
BBX 8 10 0 0
BITMAP
72
72
72
FF
7A
FF
6E
6E
66
66
ENDCHAR
STARTCHAR peseta
ENCODING 8359
SWIDTH 528 0
DWIDTH 8 0
BBX 8 10 0 0
BITMAP
7C
7E
FF
FF
66
7E
7C
60
60
60
ENDCHAR
STARTCHAR uni20A9
ENCODING 8361
SWIDTH 528 0
DWIDTH 8 0
BBX 9 11 0 0
BITMAP
C300
DB00
DB00
DB00
5F00
FF80
7700
7700
7700
7600
7600
ENDCHAR
STARTCHAR dong
ENCODING 8363
SWIDTH 528 0
DWIDTH 8 0
BBX 7 11 1 0
BITMAP
0C
3E
0C
7C
FC
CC
CC
FC
7C
00
FE
ENDCHAR
STARTCHAR Euro
ENCODING 8364
SWIDTH 528 0
DWIDTH 8 0
BBX 8 10 0 0
BITMAP
1E
3F
72
FE
70
FC
70
32
3F
1E
ENDCHAR
STARTCHAR uni20AE
ENCODING 8366
SWIDTH 528 0
DWIDTH 8 0
BBX 7 10 1 0
BITMAP
FE
FE
30
34
38
74
B8
70
B0
30
ENDCHAR
STARTCHAR uni20B1
ENCODING 8369
SWIDTH 528 0
DWIDTH 8 0
BBX 8 10 0 0
BITMAP
7C
7E
66
FF
FF
66
7C
60
60
60
ENDCHAR
STARTCHAR uni20B2
ENCODING 8370
SWIDTH 528 0
DWIDTH 8 0
BBX 7 14 1 -2
BITMAP
18
18
3E
64
C0
C0
CE
CE
C6
C6
66
3C
18
18
ENDCHAR
STARTCHAR uni20B4
ENCODING 8372
SWIDTH 528 0
DWIDTH 8 0
BBX 8 10 0 0
BITMAP
3C
7E
26
FF
3C
FF
70
72
3F
1E
ENDCHAR
STARTCHAR uni20B5
ENCODING 8373
SWIDTH 528 0
DWIDTH 8 0
BBX 7 14 1 -2
BITMAP
08
08
3C
7E
EC
C8
C8
C8
C8
EC
7E
3C
08
08
ENDCHAR
STARTCHAR uni20B8
ENCODING 8376
SWIDTH 528 0
DWIDTH 8 0
BBX 7 10 1 0
BITMAP
FE
00
FE
30
30
30
30
30
30
30
ENDCHAR
STARTCHAR uni20B9
ENCODING 8377
SWIDTH 528 0
DWIDTH 8 0
BBX 6 10 1 0
BITMAP
FC
F8
18
FC
18
F8
F0
30
38
1C
ENDCHAR
STARTCHAR uni20BA
ENCODING 8378
SWIDTH 528 0
DWIDTH 8 0
BBX 8 10 0 0
BITMAP
70
7C
78
FC
F8
73
F3
77
7E
78
ENDCHAR
STARTCHAR uni20BD
ENCODING 8381
SWIDTH 528 0
DWIDTH 8 0
BBX 7 10 0 0
BITMAP
7C
7E
66
66
FC
60
FC
60
60
60
ENDCHAR
STARTCHAR uni2113
ENCODING 8467
SWIDTH 470 0
DWIDTH 8 0
BBX 8 11 0 0
BITMAP
1C
3E
36
36
36
3C
38
70
F2
3E
1F
ENDCHAR
STARTCHAR uni2116
ENCODING 8470
SWIDTH 967 0
DWIDTH 15 0
BBX 14 10 1 0
BITMAP
E338
F37C
F36C
D37C
DB38
DB00
CB7C
CF7C
C700
C700
ENDCHAR
STARTCHAR uni2117
ENCODING 8471
SWIDTH 750 0
DWIDTH 12 0
BBX 10 12 1 0
BITMAP
1E00
7F80
6180
C0C0
9E40
9F40
9B40
9F40
DEC0
7980
7F80
1E00
ENDCHAR
STARTCHAR uni2120
ENCODING 8480
SWIDTH 682 0
DWIDTH 11 0
BBX 11 5 0 6
BITMAP
7660
77E0
75E0
F5E0
7460
ENDCHAR
STARTCHAR trademark
ENCODING 8482
SWIDTH 682 0
DWIDTH 11 0
BBX 11 6 0 5
BITMAP
0600
F660
65E0
65E0
6560
0060
ENDCHAR
STARTCHAR uni2126
ENCODING 8486
SWIDTH 711 0
DWIDTH 11 0
BBX 10 10 1 0
BITMAP
3E00
7F00
E380
E180
C180
C180
E180
6300
F7C0
F7C0
ENDCHAR
STARTCHAR estimated
ENCODING 8494
SWIDTH 800 0
DWIDTH 13 0
BBX 11 10 1 0
BITMAP
1F00
6080
C040
C060
FFE0
C000
C000
C000
60C0
1F00
ENDCHAR
STARTCHAR uni2150
ENCODING 8528
SWIDTH 837 0
DWIDTH 13 0
BBX 12 11 1 0
BITMAP
0180
6300
E200
6600
6400
6DF0
6820
1860
1040
30C0
20C0
ENDCHAR
STARTCHAR uni2151
ENCODING 8529
SWIDTH 837 0
DWIDTH 13 0
BBX 12 11 1 0
BITMAP
0180
6100
E200
6200
6400
64E0
69B0
09B0
11F0
1030
21E0
ENDCHAR
STARTCHAR uni2152
ENCODING 8530
SWIDTH 1155 0
DWIDTH 18 0
BBX 17 12 1 -1
BITMAP
018000
610000
E30000
620000
660700
64EF80
69ED80
686D80
106D80
106F80
206700
006000
ENDCHAR
STARTCHAR onethird
ENCODING 8531
SWIDTH 837 0
DWIDTH 13 0
BBX 12 11 1 0
BITMAP
0180
6300
E200
6600
6400
6DE0
6970
1860
1030
3130
21E0
ENDCHAR
STARTCHAR twothirds
ENCODING 8532
SWIDTH 849 0
DWIDTH 14 0
BBX 13 11 0 0
BITMAP
0040
70C0
D880
1980
1900
3370
7AB8
0638
0418
0C98
1870
ENDCHAR
STARTCHAR uni2155
ENCODING 8533
SWIDTH 837 0
DWIDTH 13 0
BBX 12 11 1 0
BITMAP
0180
6300
E200
6600
6400
6CF0
6880
18E0
1130
3130
21E0
ENDCHAR
STARTCHAR uni2156
ENCODING 8534
SWIDTH 849 0
DWIDTH 14 0
BBX 13 11 0 0
BITMAP
0040
70C0
D880
1980
1900
3378
7A40
0670
0418
0C98
1870
ENDCHAR
STARTCHAR uni2157
ENCODING 8535
SWIDTH 849 0
DWIDTH 14 0
BBX 13 11 0 0
BITMAP
0040
7880
3880
3900
0900
4A78
F240
0470
0418
0898
1870
ENDCHAR
STARTCHAR uni2158
ENCODING 8536
SWIDTH 892 0
DWIDTH 14 0
BBX 13 11 1 0
BITMAP
00C0
3080
5180
F100
B300
FA70
36C0
04F0
0C18
0898
18F0
ENDCHAR
STARTCHAR uni2159
ENCODING 8537
SWIDTH 837 0
DWIDTH 13 0
BBX 12 11 1 0
BITMAP
0180
6100
E200
6200
6400
64F0
6980
09E0
1130
11B0
20E0
ENDCHAR
STARTCHAR uni215A
ENCODING 8538
SWIDTH 849 0
DWIDTH 14 0
BBX 13 11 0 0
BITMAP
0040
7880
6080
7900
0900
4A78
FAC0
04F0
04D8
08D8
1870
ENDCHAR
STARTCHAR oneeighth
ENCODING 8539
SWIDTH 837 0
DWIDTH 13 0
BBX 12 11 1 0
BITMAP
0180
6100
E200
6200
6400
64E0
69B0
08E0
11B0
11B0
20E0
ENDCHAR
STARTCHAR threeeighths
ENCODING 8540
SWIDTH 849 0
DWIDTH 14 0
BBX 13 11 0 0
BITMAP
0040
7880
3880
3900
0900
4A70
F2D8
0470
04D8
08D8
1870
ENDCHAR
STARTCHAR fiveeighths
ENCODING 8541
SWIDTH 849 0
DWIDTH 14 0
BBX 13 11 0 0
BITMAP
0040
7880
6080
7900
0900
4A70
FAD8
0470
04D8
08D8
1870
ENDCHAR
STARTCHAR seveneighths
ENCODING 8542
SWIDTH 829 0
DWIDTH 13 0
BBX 13 11 0 0
BITMAP
0080
F980
1100
3300
3200
3670
24D0
0C70
08D8
18D8
3070
ENDCHAR
STARTCHAR uni2189
ENCODING 8585
SWIDTH 849 0
DWIDTH 14 0
BBX 13 11 0 0
BITMAP
0040
7880
4880
CD00
CD00
4A70
7AB8
0438
0418
0898
1870
ENDCHAR
STARTCHAR uni2190
ENCODING 8592
SWIDTH 617 0
DWIDTH 10 0
BBX 9 8 0 0
BITMAP
0C00
1800
3000
7F80
FF80
3000
1800
0C00
ENDCHAR
STARTCHAR arrowup
ENCODING 8593
SWIDTH 617 0
DWIDTH 10 0
BBX 8 9 1 -1
BITMAP
10
38
3C
7E
DB
9A
18
18
18
ENDCHAR
STARTCHAR uni2192
ENCODING 8594
SWIDTH 617 0
DWIDTH 10 0
BBX 9 8 1 0
BITMAP
1800
0C00
0600
FF00
FF80
0600
0C00
1800
ENDCHAR
STARTCHAR arrowdown
ENCODING 8595
SWIDTH 617 0
DWIDTH 10 0
BBX 8 9 1 -1
BITMAP
18
18
18
9A
DB
7E
3C
38
10
ENDCHAR
STARTCHAR partialdiff
ENCODING 8706
SWIDTH 577 0
DWIDTH 9 0
BBX 7 10 1 0
BITMAP
3C
7E
46
7E
FE
C6
C6
CE
FC
78
ENDCHAR
STARTCHAR uni2206
ENCODING 8710
SWIDTH 640 0
DWIDTH 10 0
BBX 9 10 1 0
BITMAP
1C00
3C00
3C00
7600
6600
6700
E300
C300
FF80
FF80
ENDCHAR
STARTCHAR product
ENCODING 8719
SWIDTH 710 0
DWIDTH 11 0
BBX 9 12 1 -2
BITMAP
FF80
FF80
E180
E180
E180
E180
E180
E180
E180
E180
E180
E180
ENDCHAR
STARTCHAR summation
ENCODING 8721
SWIDTH 534 0
DWIDTH 9 0
BBX 8 12 0 -2
BITMAP
7F
7F
70
30
18
1C
1C
18
30
70
7F
FF
ENDCHAR
STARTCHAR minus
ENCODING 8722
SWIDTH 528 0
DWIDTH 8 0
BBX 7 2 1 4
BITMAP
FE
FE
ENDCHAR
STARTCHAR uni2215
ENCODING 8725
SWIDTH 96 0
DWIDTH 2 0
BBX 7 11 -3 0
BITMAP
02
04
04
08
08
10
10
20
20
40
C0
ENDCHAR
STARTCHAR uni2219
ENCODING 8729
SWIDTH 529 0
DWIDTH 8 0
BBX 3 3 3 4
BITMAP
C0
E0
C0
ENDCHAR
STARTCHAR radical
ENCODING 8730
SWIDTH 588 0
DWIDTH 9 0
BBX 10 14 0 -1
BITMAP
00C0
0080
0180
0180
0100
0100
2300
F300
3200
1200
1E00
1E00
0C00
0C00
ENDCHAR
STARTCHAR infinity
ENCODING 8734
SWIDTH 814 0
DWIDTH 13 0
BBX 11 7 1 2
BITMAP
01C0
7BE0
FE60
8C20
8E60
FFE0
73C0
ENDCHAR
STARTCHAR integral
ENCODING 8747
SWIDTH 390 0
DWIDTH 6 0
BBX 5 16 1 -3
BITMAP
38
78
60
60
60
60
60
60
60
60
70
70
70
60
E0
C0
ENDCHAR
STARTCHAR approxequal
ENCODING 8776
SWIDTH 528 0
DWIDTH 8 0
BBX 8 8 0 1
BITMAP
30
7A
CF
06
30
7A
CF
06
ENDCHAR
STARTCHAR notequal
ENCODING 8800
SWIDTH 528 0
DWIDTH 8 0
BBX 7 10 1 0
BITMAP
06
0C
FE
FE
10
30
FE
FE
40
C0
ENDCHAR
STARTCHAR lessequal
ENCODING 8804
SWIDTH 528 0
DWIDTH 8 0
BBX 7 9 1 0
BITMAP
06
3E
F8
E0
FE
0E
02
FE
FE
ENDCHAR
STARTCHAR greaterequal
ENCODING 8805
SWIDTH 528 0
DWIDTH 8 0
BBX 7 9 1 0
BITMAP
80
F0
7E
0E
FC
E0
80
FE
FE
ENDCHAR
STARTCHAR uni231C
ENCODING 8988
SWIDTH 344 0
DWIDTH 6 0
BBX 4 12 1 -1
BITMAP
F0
F0
C0
C0
C0
C0
C0
C0
C0
C0
C0
C0
ENDCHAR
STARTCHAR uni231D
ENCODING 8989
SWIDTH 344 0
DWIDTH 6 0
BBX 3 12 1 -1
BITMAP
E0
E0
60
60
60
60
60
60
60
60
60
60
ENDCHAR
STARTCHAR uni231E
ENCODING 8990
SWIDTH 344 0
DWIDTH 6 0
BBX 4 12 1 -1
BITMAP
C0
C0
C0
C0
C0
C0
C0
C0
C0
C0
F0
F0
ENDCHAR
STARTCHAR uni231F
ENCODING 8991
SWIDTH 344 0
DWIDTH 6 0
BBX 3 12 1 -1
BITMAP
60
60
60
60
60
60
60
60
60
60
E0
E0
ENDCHAR
STARTCHAR uni25A0
ENCODING 9632
SWIDTH 877 0
DWIDTH 14 0
BBX 12 13 1 -1
BITMAP
FFF0
FFF0
FFF0
FFF0
FFF0
FFF0
FFF0
FFF0
FFF0
FFF0
FFF0
FFF0
FFF0
ENDCHAR
STARTCHAR triagup
ENCODING 9650
SWIDTH 877 0
DWIDTH 14 0
BBX 12 13 1 -1
BITMAP
0400
0600
0600
0F00
0F00
1F80
1F80
3FC0
3FC0
7FE0
7FE0
FFF0
FFF0
ENDCHAR
STARTCHAR uni25B3
ENCODING 9651
SWIDTH 877 0
DWIDTH 14 0
BBX 12 13 1 -1
BITMAP
0400
0600
0600
0F00
0900
1980
1080
30C0
2040
6060
6060
FFF0
FFF0
ENDCHAR
STARTCHAR uni25B6
ENCODING 9654
SWIDTH 877 0
DWIDTH 14 0
BBX 13 13 1 -2
BITMAP
8000
E000
F800
FE00
FF80
FFE0
FFF8
FFC0
FF00
FC00
F000
C000
8000
ENDCHAR
STARTCHAR uni25B7
ENCODING 9655
SWIDTH 877 0
DWIDTH 14 0
BBX 13 13 1 -2
BITMAP
8000
E000
B800
8600
8180
8060
81F8
87C0
9F00
FC00
F000
C000
8000
ENDCHAR
STARTCHAR triagdn
ENCODING 9660
SWIDTH 877 0
DWIDTH 14 0
BBX 12 13 1 -1
BITMAP
FFF0
FFF0
7FE0
7FE0
3FC0
3FC0
1F80
1F80
0F00
0F00
0600
0600
0400
ENDCHAR
STARTCHAR uni25BD
ENCODING 9661
SWIDTH 877 0
DWIDTH 14 0
BBX 12 13 1 -1
BITMAP
FFF0
FFF0
6060
6060
2040
30C0
1080
1980
0900
0F00
0600
0600
0400
ENDCHAR
STARTCHAR uni25C0
ENCODING 9664
SWIDTH 877 0
DWIDTH 14 0
BBX 13 13 0 -2
BITMAP
0008
0038
00F8
03F8
0FF8
3FF8
FFF8
1FF8
07F8
01F8
0078
0018
0008
ENDCHAR
STARTCHAR uni25C1
ENCODING 9665
SWIDTH 877 0
DWIDTH 14 0
BBX 13 13 0 -2
BITMAP
0008
0038
00E8
0308
0C08
3008
FC08
1F08
07C8
01F8
0078
0018
0008
ENDCHAR
STARTCHAR uni25C6
ENCODING 9670
SWIDTH 877 0
DWIDTH 14 0
BBX 14 13 0 -1
BITMAP
0100
0780
0FC0
1FE0
3FF0
7FF8
FFFC
7FF8
3FF0
1FE0
0FC0
0380
0100
ENDCHAR
STARTCHAR uni25C9
ENCODING 9673
SWIDTH 877 0
DWIDTH 14 0
BBX 14 13 0 -1
BITMAP
0FC0
1FE0
3870
6798
6FC8
4FC8
DFEC
4FE8
6FC8
6798
3870
1FE0
0FC0
ENDCHAR
STARTCHAR lozenge
ENCODING 9674
SWIDTH 548 0
DWIDTH 9 0
BBX 7 10 1 0
BITMAP
38
38
6C
6C
C6
C6
6C
6C
38
38
ENDCHAR
STARTCHAR uni25CC
ENCODING 9676
SWIDTH 577 0
DWIDTH 9 0
BBX 8 8 1 0
BITMAP
74
74
82
83
83
82
74
74
ENDCHAR
STARTCHAR uni2610
ENCODING 9744
SWIDTH 807 0
DWIDTH 13 0
BBX 11 11 1 0
BITMAP
7FE0
FFE0
8060
8060
8060
8060
8060
8060
8060
8060
FFC0
ENDCHAR
STARTCHAR uni2611
ENCODING 9745
SWIDTH 807 0
DWIDTH 13 0
BBX 12 13 1 0
BITMAP
0020
0070
7FE0
FFE0
81E0
81E0
9360
B360
9A60
8E60
8E60
8060
FFC0
ENDCHAR
STARTCHAR uni266A
ENCODING 9834
SWIDTH 544 0
DWIDTH 9 0
BBX 8 12 0 -1
BITMAP
0C
0E
0F
09
09
09
09
08
78
78
F8
70
ENDCHAR
STARTCHAR uni2713
ENCODING 10003
SWIDTH 647 0
DWIDTH 10 0
BBX 10 11 0 0
BITMAP
00C0
00C0
0180
0300
0300
4600
C400
6C00
2C00
3800
3800
ENDCHAR
STARTCHAR uni2752
ENCODING 10066
SWIDTH 877 0
DWIDTH 14 0
BBX 12 13 1 -1
BITMAP
FFF0
FFF0
8010
8010
8010
8010
8010
8010
8010
8010
8010
FFF0
FFF0
ENDCHAR
STARTCHAR uni27E6
ENCODING 10214
SWIDTH 437 0
DWIDTH 7 0
BBX 5 15 1 -3
BITMAP
F8
F8
D0
D0
D0
D0
D0
D0
D0
D0
D0
D0
D0
F8
F8
ENDCHAR
STARTCHAR uni27E7
ENCODING 10215
SWIDTH 437 0
DWIDTH 7 0
BBX 5 15 1 -3
BITMAP
F8
F8
58
58
58
58
58
58
58
58
58
58
58
F8
F8
ENDCHAR
STARTCHAR uni2E22
ENCODING 11810
SWIDTH 344 0
DWIDTH 6 0
BBX 4 8 1 4
BITMAP
F0
F0
C0
C0
C0
C0
C0
C0
ENDCHAR
STARTCHAR uni2E23
ENCODING 11811
SWIDTH 344 0
DWIDTH 6 0
BBX 3 8 1 4
BITMAP
E0
E0
60
60
60
60
60
60
ENDCHAR
STARTCHAR uni2E24
ENCODING 11812
SWIDTH 344 0
DWIDTH 6 0
BBX 4 8 1 -3
BITMAP
C0
C0
C0
C0
C0
C0
F0
F0
ENDCHAR
STARTCHAR uni2E25
ENCODING 11813
SWIDTH 344 0
DWIDTH 6 0
BBX 3 8 1 -3
BITMAP
60
60
60
60
60
60
E0
E0
ENDCHAR
STARTCHAR uni2E3A
ENCODING 11834
SWIDTH 1500 0
DWIDTH 24 0
BBX 22 2 1 3
BITMAP
FFFFFC
FFFFFC
ENDCHAR
STARTCHAR uni2E3B
ENCODING 11835
SWIDTH 2200 0
DWIDTH 35 0
BBX 34 2 1 3
BITMAP
FFFFFFFFC0
FFFFFFFFC0
ENDCHAR
STARTCHAR f_f
ENCODING 64256
SWIDTH 657 0
DWIDTH 11 0
BBX 11 11 0 0
BITMAP
3DE0
3DE0
7180
FFC0
FFC0
7380
7380
7380
7380
7380
7380
ENDCHAR
STARTCHAR fi
ENCODING 64257
SWIDTH 635 0
DWIDTH 10 0
BBX 9 11 0 0
BITMAP
3D80
3D80
7000
F980
F980
7180
7180
7180
7180
7180
7180
ENDCHAR
STARTCHAR fl
ENCODING 64258
SWIDTH 627 0
DWIDTH 10 0
BBX 10 11 0 0
BITMAP
3F80
3F80
7380
FB80
FB80
7380
7380
7380
7180
71C0
71C0
ENDCHAR
STARTCHAR f_f_i
ENCODING 64259
SWIDTH 933 0
DWIDTH 15 0
BBX 14 11 0 0
BITMAP
3DFC
3DEC
7180
FFCC
FFCC
738C
738C
738C
738C
738C
738C
ENDCHAR
STARTCHAR f_f_l
ENCODING 64260
SWIDTH 943 0
DWIDTH 15 0
BBX 15 11 0 0
BITMAP
3DEC
3DEC
718C
FFCC
FFCC
738C
738C
738C
738C
738E
738E
ENDCHAR
STARTCHAR uniFEFF
ENCODING 65279
SWIDTH 0 0
DWIDTH 0 0
BBX 1 1 0 0
BITMAP
00
ENDCHAR
STARTCHAR u1F16A
ENCODING 127338
SWIDTH 682 0
DWIDTH 11 0
BBX 11 6 0 5
BITMAP
CCC0
EDE0
F500
FD00
FDE0
00C0
ENDCHAR
STARTCHAR u1F16B
ENCODING 127339
SWIDTH 719 0
DWIDTH 12 0
BBX 11 6 0 5
BITMAP
CDC0
EDE0
F520
F520
FDE0
CDC0
ENDCHAR
STARTCHAR .notdef
ENCODING -1
SWIDTH 690 0
DWIDTH 11 0
BBX 9 10 1 0
BITMAP
FF80
FF80
F780
D580
DD80
DD80
F780
F780
FF80
FF80
ENDCHAR
STARTCHAR uni00470303
ENCODING -1
SWIDTH 638 0
DWIDTH 10 0
BBX 8 14 1 0
BITMAP
3B
3F
27
00
3E
7F
E2
C0
CF
CF
C3
E3
7F
3E
ENDCHAR
STARTCHAR uni00670303
ENCODING -1
SWIDTH 534 0
DWIDTH 9 0
BBX 7 15 1 -3
BITMAP
66
7C
DC
00
7E
FE
CC
FC
F8
C0
FE
7E
86
FE
FC
ENDCHAR
STARTCHAR iogonek.d
ENCODING -1
SWIDTH 276 0
DWIDTH 4 0
BBX 3 11 1 -3
BITMAP
C0
C0
C0
C0
C0
C0
C0
C0
C0
80
E0
ENDCHAR
STARTCHAR f_t
ENCODING -1
SWIDTH 688 0
DWIDTH 11 0
BBX 11 11 0 0
BITMAP
3D80
3D80
7380
FFE0
FFE0
7380
7380
7380
7380
73E0
71E0
ENDCHAR
STARTCHAR f_f_t
ENCODING -1
SWIDTH 1004 0
DWIDTH 16 0
BBX 16 11 0 0
BITMAP
3DE0
3DEC
719C
FFFF
FFFF
739C
739C
739C
739C
738F
738F
ENDCHAR
STARTCHAR I.a
ENCODING -1
SWIDTH 396 0
DWIDTH 6 0
BBX 5 10 1 0
BITMAP
F8
F8
60
60
60
60
60
60
F8
F8
ENDCHAR
STARTCHAR Igrave.a
ENCODING -1
SWIDTH 396 0
DWIDTH 6 0
BBX 6 14 0 0
BITMAP
40
F0
30
00
7C
7C
30
30
30
30
30
30
7C
7C
ENDCHAR
STARTCHAR Iacute.a
ENCODING -1
SWIDTH 396 0
DWIDTH 6 0
BBX 5 14 1 0
BITMAP
10
38
60
00
F8
F8
60
60
60
60
60
60
F8
F8
ENDCHAR
STARTCHAR Icircumflex.a
ENCODING -1
SWIDTH 396 0
DWIDTH 6 0
BBX 6 13 0 0
BITMAP
78
CC
00
7C
7C
30
30
30
30
30
30
7C
7C
ENDCHAR
STARTCHAR Itilde.a
ENCODING -1
SWIDTH 396 0
DWIDTH 6 0
BBX 6 14 0 0
BITMAP
64
FC
DC
00
7C
7C
30
30
30
30
30
30
7C
7C
ENDCHAR
STARTCHAR Idieresis.a
ENCODING -1
SWIDTH 396 0
DWIDTH 6 0
BBX 6 13 0 0
BITMAP
CC
EC
00
7C
7C
30
30
30
30
30
30
7C
7C
ENDCHAR
STARTCHAR Imacron.a
ENCODING -1
SWIDTH 396 0
DWIDTH 6 0
BBX 5 13 1 0
BITMAP
F8
F8
00
F8
F8
60
60
60
60
60
60
F8
F8
ENDCHAR
STARTCHAR Idotaccent.a
ENCODING -1
SWIDTH 396 0
DWIDTH 6 0
BBX 5 13 1 0
BITMAP
60
70
00
F8
F8
60
60
60
60
60
60
F8
F8
ENDCHAR
STARTCHAR uni01CF.a
ENCODING -1
SWIDTH 396 0
DWIDTH 6 0
BBX 6 13 0 0
BITMAP
4C
F8
00
7C
7C
30
30
30
30
30
30
7C
7C
ENDCHAR
STARTCHAR uni1EC8.a
ENCODING -1
SWIDTH 396 0
DWIDTH 6 0
BBX 5 15 1 0
BITMAP
60
70
30
60
00
F8
F8
60
60
60
60
60
60
F8
F8
ENDCHAR
STARTCHAR uni1ECA.a
ENCODING -1
SWIDTH 396 0
DWIDTH 6 0
BBX 5 14 1 -4
BITMAP
F8
F8
60
60
60
60
60
60
F8
F8
00
00
60
60
ENDCHAR
STARTCHAR Iogonek.a
ENCODING -1
SWIDTH 396 0
DWIDTH 6 0
BBX 5 14 1 -4
BITMAP
F8
F8
60
60
60
60
60
60
F8
F8
60
40
F0
70
ENDCHAR
STARTCHAR uni012C.a
ENCODING -1
SWIDTH 396 0
DWIDTH 6 0
BBX 5 13 1 0
BITMAP
98
F0
00
F8
F8
60
60
60
60
60
60
F8
F8
ENDCHAR
STARTCHAR uni014A.a
ENCODING -1
SWIDTH 665 0
DWIDTH 11 0
BBX 8 13 1 -3
BITMAP
E3
E3
F3
DB
DB
CF
CF
C7
C7
C3
03
07
0E
ENDCHAR
STARTCHAR a.a
ENCODING -1
SWIDTH 573 0
DWIDTH 9 0
BBX 7 8 1 0
BITMAP
7E
FE
CE
C6
C6
CE
FE
76
ENDCHAR
STARTCHAR agrave.a
ENCODING -1
SWIDTH 573 0
DWIDTH 9 0
BBX 7 13 1 0
BITMAP
20
70
30
18
00
7E
FE
CE
C6
C6
CE
FE
76
ENDCHAR
STARTCHAR aacute.a
ENCODING -1
SWIDTH 573 0
DWIDTH 9 0
BBX 7 13 1 0
BITMAP
04
0E
1C
18
00
7E
FE
CE
C6
C6
CE
FE
76
ENDCHAR
STARTCHAR acircumflex.a
ENCODING -1
SWIDTH 573 0
DWIDTH 9 0
BBX 7 12 1 0
BITMAP
38
7C
46
00
7E
FE
CE
C6
C6
CE
FE
76
ENDCHAR
STARTCHAR atilde.a
ENCODING -1
SWIDTH 573 0
DWIDTH 9 0
BBX 7 12 1 0
BITMAP
76
7E
5C
00
7E
FE
CE
C6
C6
CE
FE
76
ENDCHAR
STARTCHAR adieresis.a
ENCODING -1
SWIDTH 573 0
DWIDTH 9 0
BBX 7 11 1 0
BITMAP
66
6E
00
7E
FE
CE
C6
C6
CE
FE
76
ENDCHAR
STARTCHAR amacron.a
ENCODING -1
SWIDTH 573 0
DWIDTH 9 0
BBX 7 10 1 0
BITMAP
7C
00
7E
FE
CE
C6
C6
CE
FE
76
ENDCHAR
STARTCHAR abreve.a
ENCODING -1
SWIDTH 573 0
DWIDTH 9 0
BBX 7 11 1 0
BITMAP
64
3C
00
7E
FE
CE
C6
C6
CE
FE
76
ENDCHAR
STARTCHAR aring.a
ENCODING -1
SWIDTH 573 0
DWIDTH 9 0
BBX 7 12 1 0
BITMAP
38
2C
38
00
7E
FE
CE
C6
C6
CE
FE
76
ENDCHAR
STARTCHAR uni01CE.a
ENCODING -1
SWIDTH 573 0
DWIDTH 9 0
BBX 7 12 1 0
BITMAP
44
7E
38
00
7E
FE
CE
C6
C6
CE
FE
76
ENDCHAR
STARTCHAR uni1EA1.a
ENCODING -1
SWIDTH 573 0
DWIDTH 9 0
BBX 7 12 1 -4
BITMAP
7E
FE
CE
C6
C6
CE
FE
76
00
00
18
18
ENDCHAR
STARTCHAR uni1EA3.a
ENCODING -1
SWIDTH 573 0
DWIDTH 9 0
BBX 7 13 1 0
BITMAP
30
38
08
18
00
7E
FE
CE
C6
C6
CE
FE
76
ENDCHAR
STARTCHAR uni1EA5.a
ENCODING -1
SWIDTH 573 0
DWIDTH 9 0
BBX 8 13 1 0
BITMAP
01
03
3A
2C
44
7E
FE
CE
C6
C6
CE
FE
76
ENDCHAR
STARTCHAR uni1EA7.a
ENCODING -1
SWIDTH 573 0
DWIDTH 9 0
BBX 8 13 0 0
BITMAP
40
C0
3C
16
22
3F
7F
67
63
63
67
7F
3B
ENDCHAR
STARTCHAR uni1EA9.a
ENCODING -1
SWIDTH 573 0
DWIDTH 9 0
BBX 8 13 1 0
BITMAP
06
03
3A
2C
44
7E
FE
CE
C6
C6
CE
FE
76
ENDCHAR
STARTCHAR uni1EAB.a
ENCODING -1
SWIDTH 573 0
DWIDTH 9 0
BBX 7 14 1 0
BITMAP
04
3C
40
38
2C
44
7E
FE
CE
C6
C6
CE
FE
76
ENDCHAR
STARTCHAR uni1EAD.a
ENCODING -1
SWIDTH 573 0
DWIDTH 9 0
BBX 7 16 1 -4
BITMAP
38
7C
46
00
7E
FE
CE
C6
C6
CE
FE
76
00
00
18
18
ENDCHAR
STARTCHAR uni1EAF.a
ENCODING -1
SWIDTH 573 0
DWIDTH 9 0
BBX 7 14 1 0
BITMAP
08
1C
10
64
3C
00
7E
FE
CE
C6
C6
CE
FE
76
ENDCHAR
STARTCHAR uni1EB1.a
ENCODING -1
SWIDTH 573 0
DWIDTH 9 0
BBX 7 14 1 0
BITMAP
20
30
18
64
3C
00
7E
FE
CE
C6
C6
CE
FE
76
ENDCHAR
STARTCHAR uni1EB3.a
ENCODING -1
SWIDTH 573 0
DWIDTH 9 0
BBX 7 14 1 0
BITMAP
18
28
18
64
3C
00
7E
FE
CE
C6
C6
CE
FE
76
ENDCHAR
STARTCHAR uni1EB5.a
ENCODING -1
SWIDTH 573 0
DWIDTH 9 0
BBX 7 14 1 0
BITMAP
04
3C
60
64
38
00
7E
FE
CE
C6
C6
CE
FE
76
ENDCHAR
STARTCHAR uni1EB7.a
ENCODING -1
SWIDTH 573 0
DWIDTH 9 0
BBX 7 15 1 -4
BITMAP
64
3C
00
7E
FE
CE
C6
C6
CE
FE
76
00
00
18
18
ENDCHAR
STARTCHAR aogonek.a
ENCODING -1
SWIDTH 573 0
DWIDTH 9 0
BBX 7 11 1 -3
BITMAP
7E
FE
CE
C6
C6
CE
FE
76
04
0C
0E
ENDCHAR
STARTCHAR g.a
ENCODING -1
SWIDTH 583 0
DWIDTH 9 0
BBX 7 11 1 -3
BITMAP
7E
FE
E6
C6
C6
C6
FE
7E
86
FE
7C
ENDCHAR
STARTCHAR uni01F5.a
ENCODING -1
SWIDTH 583 0
DWIDTH 9 0
BBX 7 16 1 -3
BITMAP
04
0E
1C
18
00
7E
FE
E6
C6
C6
C6
FE
7E
86
FE
7C
ENDCHAR
STARTCHAR gcircumflex.a
ENCODING -1
SWIDTH 583 0
DWIDTH 9 0
BBX 7 15 1 -3
BITMAP
38
7C
46
00
7E
FE
E6
C6
C6
C6
FE
7E
86
FE
7C
ENDCHAR
STARTCHAR gbreve.a
ENCODING -1
SWIDTH 583 0
DWIDTH 9 0
BBX 7 14 1 -3
BITMAP
66
3C
00
7E
FE
E6
C6
C6
C6
FE
7E
86
FE
7C
ENDCHAR
STARTCHAR gdotaccent.a
ENCODING -1
SWIDTH 583 0
DWIDTH 9 0
BBX 7 14 1 -3
BITMAP
18
38
00
7E
FE
E6
C6
C6
C6
FE
7E
86
FE
7C
ENDCHAR
STARTCHAR uni0123.a
ENCODING -1
SWIDTH 583 0
DWIDTH 9 0
BBX 7 15 1 -3
BITMAP
1C
30
18
00
7E
FE
E6
C6
C6
C6
FE
7E
86
FE
7C
ENDCHAR
STARTCHAR gcaron.a
ENCODING -1
SWIDTH 583 0
DWIDTH 9 0
BBX 7 15 1 -3
BITMAP
44
7E
38
00
7E
FE
E6
C6
C6
C6
FE
7E
86
FE
7C
ENDCHAR
STARTCHAR uni1E21.a
ENCODING -1
SWIDTH 583 0
DWIDTH 9 0
BBX 7 13 1 -3
BITMAP
7C
00
7E
FE
E6
C6
C6
C6
FE
7E
86
FE
7C
ENDCHAR
STARTCHAR uni00670303.a
ENCODING -1
SWIDTH 583 0
DWIDTH 9 0
BBX 7 15 1 -3
BITMAP
76
7E
5C
00
7E
FE
E6
C6
C6
C6
FE
7E
86
FE
7C
ENDCHAR
STARTCHAR l.a
ENCODING -1
SWIDTH 276 0
DWIDTH 4 0
BBX 2 11 1 0
BITMAP
C0
C0
C0
C0
C0
C0
C0
C0
C0
C0
C0
ENDCHAR
STARTCHAR lacute.a
ENCODING -1
SWIDTH 276 0
DWIDTH 4 0
BBX 4 15 1 0
BITMAP
20
70
C0
00
C0
C0
C0
C0
C0
C0
C0
C0
C0
C0
C0
ENDCHAR
STARTCHAR lcaron.a
ENCODING -1
SWIDTH 318 0
DWIDTH 5 0
BBX 5 13 1 0
BITMAP
18
10
D0
D0
C0
C0
C0
C0
C0
C0
C0
C0
C0
ENDCHAR
STARTCHAR ldot.a
ENCODING -1
SWIDTH 453 0
DWIDTH 7 0
BBX 6 11 1 0
BITMAP
C0
C0
C0
C0
CC
DC
CC
C0
C0
C0
C0
ENDCHAR
STARTCHAR uni013C.a
ENCODING -1
SWIDTH 276 0
DWIDTH 4 0
BBX 4 15 0 -4
BITMAP
60
60
60
60
60
60
60
60
60
60
60
00
60
30
E0
ENDCHAR
STARTCHAR uni1E37.a
ENCODING -1
SWIDTH 276 0
DWIDTH 4 0
BBX 2 15 1 -4
BITMAP
C0
C0
C0
C0
C0
C0
C0
C0
C0
C0
C0
00
00
C0
C0
ENDCHAR
STARTCHAR uni1E39.a
ENCODING -1
SWIDTH 276 0
DWIDTH 4 0
BBX 5 17 0 -4
BITMAP
F8
00
60
60
60
60
60
60
60
60
60
60
60
00
00
60
60
ENDCHAR
STARTCHAR uni1E3B.a
ENCODING -1
SWIDTH 276 0
DWIDTH 4 0
BBX 5 14 0 -3
BITMAP
60
60
60
60
60
60
60
60
60
60
60
00
00
F8
ENDCHAR
STARTCHAR lslash.a
ENCODING -1
SWIDTH 299 0
DWIDTH 5 0
BBX 5 11 0 0
BITMAP
70
70
70
70
78
F0
F0
70
70
70
70
ENDCHAR
STARTCHAR fl.a
ENCODING -1
SWIDTH 635 0
DWIDTH 10 0
BBX 9 11 0 0
BITMAP
3D80
3D80
7180
F980
F980
7180
7180
7180
7180
7180
7180
ENDCHAR
STARTCHAR anoteleia.cap
ENCODING -1
SWIDTH 300 0
DWIDTH 5 0
BBX 3 3 1 8
BITMAP
C0
E0
C0
ENDCHAR
STARTCHAR tonos.cap
ENCODING -1
SWIDTH 119 0
DWIDTH 2 0
BBX 2 4 0 6
BITMAP
C0
C0
C0
80
ENDCHAR
STARTCHAR uni1FBD.cap
ENCODING -1
SWIDTH 164 0
DWIDTH 3 0
BBX 3 4 0 6
BITMAP
C0
E0
60
E0
ENDCHAR
STARTCHAR uni1FFE.cap
ENCODING -1
SWIDTH 161 0
DWIDTH 3 0
BBX 3 4 0 6
BITMAP
60
E0
C0
C0
ENDCHAR
STARTCHAR uni1FEF.cap
ENCODING -1
SWIDTH 119 0
DWIDTH 2 0
BBX 2 4 0 6
BITMAP
C0
C0
C0
C0
ENDCHAR
STARTCHAR uni1FCD.cap
ENCODING -1
SWIDTH 326 0
DWIDTH 5 0
BBX 5 4 0 6
BITMAP
D8
D8
68
C8
ENDCHAR
STARTCHAR uni1FDD.cap
ENCODING -1
SWIDTH 325 0
DWIDTH 5 0
BBX 5 4 0 6
BITMAP
58
D8
88
C8
ENDCHAR
STARTCHAR uni1FCE.cap
ENCODING -1
SWIDTH 326 0
DWIDTH 5 0
BBX 5 4 0 6
BITMAP
D8
D8
78
D8
ENDCHAR
STARTCHAR uni1FDE.cap
ENCODING -1
SWIDTH 317 0
DWIDTH 5 0
BBX 5 4 0 6
BITMAP
58
D8
98
D8
ENDCHAR
STARTCHAR uni1FCF.cap
ENCODING -1
SWIDTH 223 0
DWIDTH 4 0
BBX 4 3 0 7
BITMAP
F0
F0
60
ENDCHAR
STARTCHAR uni1FDF.cap
ENCODING -1
SWIDTH 223 0
DWIDTH 4 0
BBX 4 3 0 7
BITMAP
F0
F0
60
ENDCHAR
STARTCHAR uni0407.a
ENCODING -1
SWIDTH 301 0
DWIDTH 5 0
BBX 5 13 0 0
BITMAP
D8
D8
00
70
70
70
70
70
70
70
70
70
70
ENDCHAR
STARTCHAR uni0457.a
ENCODING -1
SWIDTH 299 0
DWIDTH 5 0
BBX 5 11 0 0
BITMAP
D8
D8
00
70
70
70
70
70
70
70
70
ENDCHAR
STARTCHAR uni0431.srb
ENCODING -1
SWIDTH 546 0
DWIDTH 9 0
BBX 7 11 1 0
BITMAP
7E
7E
E0
78
3C
EE
C6
C6
C6
FC
78
ENDCHAR
STARTCHAR zero.0
ENCODING -1
SWIDTH 528 0
DWIDTH 8 0
BBX 7 10 1 0
BITMAP
78
FC
CC
C6
F6
F6
C6
CC
FC
78
ENDCHAR
STARTCHAR zero.0s
ENCODING -1
SWIDTH 528 0
DWIDTH 8 0
BBX 7 10 1 0
BITMAP
78
FC
CC
E6
F6
D6
CE
CC
FC
78
ENDCHAR
STARTCHAR zero.pnum
ENCODING -1
SWIDTH 580 0
DWIDTH 9 0
BBX 7 10 1 0
BITMAP
38
7E
E6
C6
C6
C6
C6
E6
7E
38
ENDCHAR
STARTCHAR one.pnum
ENCODING -1
SWIDTH 410 0
DWIDTH 7 0
BBX 4 10 1 0
BITMAP
70
F0
F0
30
30
30
30
30
30
30
ENDCHAR
STARTCHAR two.pnum
ENCODING -1
SWIDTH 526 0
DWIDTH 8 0
BBX 7 10 1 0
BITMAP
78
FC
8C
0C
0C
18
38
70
FE
FE
ENDCHAR
STARTCHAR three.pnum
ENCODING -1
SWIDTH 528 0
DWIDTH 8 0
BBX 8 10 0 0
BITMAP
3C
7E
46
06
1C
1E
07
47
FE
3C
ENDCHAR
STARTCHAR four.pnum
ENCODING -1
SWIDTH 560 0
DWIDTH 9 0
BBX 7 10 1 0
BITMAP
1C
3C
3C
6C
6C
CC
FE
FE
0C
0C
ENDCHAR
STARTCHAR five.pnum
ENCODING -1
SWIDTH 528 0
DWIDTH 8 0
BBX 8 10 0 0
BITMAP
7E
7E
60
7C
7E
47
07
47
FE
3C
ENDCHAR
STARTCHAR six.pnum
ENCODING -1
SWIDTH 562 0
DWIDTH 9 0
BBX 7 10 1 0
BITMAP
3C
7E
E4
DC
FE
C6
C6
E6
7E
3C
ENDCHAR
STARTCHAR seven.pnum
ENCODING -1
SWIDTH 516 0
DWIDTH 8 0
BBX 7 10 1 0
BITMAP
FE
FC
08
18
18
30
30
30
30
70
ENDCHAR
STARTCHAR eight.pnum
ENCODING -1
SWIDTH 549 0
DWIDTH 9 0
BBX 7 10 1 0
BITMAP
78
FC
C6
FC
78
7C
C6
C6
FE
7C
ENDCHAR
STARTCHAR nine.pnum
ENCODING -1
SWIDTH 562 0
DWIDTH 9 0
BBX 7 10 1 0
BITMAP
78
FC
CE
C6
FE
76
06
8E
FC
78
ENDCHAR
STARTCHAR zero.0p
ENCODING -1
SWIDTH 580 0
DWIDTH 9 0
BBX 7 10 1 0
BITMAP
38
7E
E6
C6
DE
FE
C6
E6
7E
38
ENDCHAR
STARTCHAR zero.0ps
ENCODING -1
SWIDTH 580 0
DWIDTH 9 0
BBX 7 10 1 0
BITMAP
38
7E
C6
E6
F6
DE
CE
E6
7E
38
ENDCHAR
STARTCHAR zero.tnum
ENCODING -1
SWIDTH 528 0
DWIDTH 8 0
BBX 7 9 1 0
BITMAP
78
FC
CE
C6
C6
C6
CE
FC
78
ENDCHAR
STARTCHAR one.tnum
ENCODING -1
SWIDTH 528 0
DWIDTH 8 0
BBX 7 9 1 0
BITMAP
18
78
F8
F8
38
38
38
FE
FE
ENDCHAR
STARTCHAR two.tnum
ENCODING -1
SWIDTH 528 0
DWIDTH 8 0
BBX 8 9 0 0
BITMAP
3C
7E
C6
06
06
0C
18
7F
7F
ENDCHAR
STARTCHAR three.tnum
ENCODING -1
SWIDTH 528 0
DWIDTH 8 0
BBX 8 10 0 -1
BITMAP
3C
7E
46
06
1C
1E
07
47
FE
3C
ENDCHAR
STARTCHAR four.tnum
ENCODING -1
SWIDTH 528 0
DWIDTH 8 0
BBX 8 11 0 -2
BITMAP
0E
1E
16
36
66
66
FF
FF
06
06
06
ENDCHAR
STARTCHAR five.tnum
ENCODING -1
SWIDTH 528 0
DWIDTH 8 0
BBX 8 10 0 -1
BITMAP
7E
7E
60
7C
7E
47
07
47
FE
3C
ENDCHAR
STARTCHAR six.tnum
ENCODING -1
SWIDTH 528 0
DWIDTH 8 0
BBX 7 10 1 0
BITMAP
3C
7E
C4
FC
FC
C6
C6
CE
7C
38
ENDCHAR
STARTCHAR seven.tnum
ENCODING -1
SWIDTH 528 0
DWIDTH 8 0
BBX 7 11 1 -2
BITMAP
FE
FC
0C
18
18
38
30
30
30
30
30
ENDCHAR
STARTCHAR eight.tnum
ENCODING -1
SWIDTH 528 0
DWIDTH 8 0
BBX 7 10 1 0
BITMAP
78
FC
CC
FC
78
FC
CE
CE
FC
78
ENDCHAR
STARTCHAR nine.tnum
ENCODING -1
SWIDTH 528 0
DWIDTH 8 0
BBX 8 10 0 -1
BITMAP
3C
7E
66
E7
67
7F
3B
46
7E
7C
ENDCHAR
STARTCHAR zero.onum
ENCODING -1
SWIDTH 545 0
DWIDTH 9 0
BBX 7 9 1 0
BITMAP
78
FC
CE
C6
C6
C6
CE
FC
78
ENDCHAR
STARTCHAR one.onum
ENCODING -1
SWIDTH 410 0
DWIDTH 7 0
BBX 4 9 1 0
BITMAP
30
70
F0
F0
30
30
30
30
30
ENDCHAR
STARTCHAR two.onum
ENCODING -1
SWIDTH 518 0
DWIDTH 8 0
BBX 6 9 1 0
BITMAP
78
FC
8C
0C
1C
18
30
FC
FC
ENDCHAR
STARTCHAR three.onum
ENCODING -1
SWIDTH 528 0
DWIDTH 8 0
BBX 8 10 0 -1
BITMAP
3C
7E
46
06
1C
1E
07
47
FE
3C
ENDCHAR
STARTCHAR four.onum
ENCODING -1
SWIDTH 545 0
DWIDTH 9 0
BBX 8 11 0 -2
BITMAP
0E
1E
1E
36
76
66
FF
FF
06
06
06
ENDCHAR
STARTCHAR five.onum
ENCODING -1
SWIDTH 528 0
DWIDTH 8 0
BBX 8 10 0 -1
BITMAP
7E
7E
60
7C
7E
47
07
47
FE
3C
ENDCHAR
STARTCHAR six.onum
ENCODING -1
SWIDTH 545 0
DWIDTH 9 0
BBX 7 10 1 0
BITMAP
3C
7E
C4
DC
FE
C6
C6
E6
7C
38
ENDCHAR
STARTCHAR seven.onum
ENCODING -1
SWIDTH 516 0
DWIDTH 8 0
BBX 7 11 1 -2
BITMAP
FE
FC
0C
18
18
30
30
30
70
70
70
ENDCHAR
STARTCHAR eight.onum
ENCODING -1
SWIDTH 547 0
DWIDTH 9 0
BBX 7 10 1 0
BITMAP
78
FC
C6
FC
78
FC
C6
C6
FE
78
ENDCHAR
STARTCHAR nine.onum
ENCODING -1
SWIDTH 545 0
DWIDTH 9 0
BBX 7 10 1 -1
BITMAP
78
FC
CE
C6
CE
FE
76
8E
FC
78
ENDCHAR
STARTCHAR at.case
ENCODING -1
SWIDTH 830 0
DWIDTH 13 0
BBX 12 13 1 -1
BITMAP
0F80
3FC0
70E0
6060
CFA0
DF30
9B20
9B60
DFE0
DDC0
6000
7F00
1E00
ENDCHAR
STARTCHAR i.trk
ENCODING -1
SWIDTH 276 0
DWIDTH 4 0
BBX 3 11 1 0
BITMAP
E0
C0
00
C0
C0
C0
C0
C0
C0
C0
C0
ENDCHAR
STARTCHAR A.sc
ENCODING -1
SWIDTH 503 0
DWIDTH 8 0
BBX 8 8 0 0
BITMAP
3C
3C
3C
7E
66
7E
FF
E7
ENDCHAR
STARTCHAR B.sc
ENCODING -1
SWIDTH 546 0
DWIDTH 9 0
BBX 7 8 1 0
BITMAP
FC
FE
E6
FC
FE
E6
FE
FC
ENDCHAR
STARTCHAR C.sc
ENCODING -1
SWIDTH 520 0
DWIDTH 8 0
BBX 7 8 1 0
BITMAP
3C
7E
E4
C0
C0
E4
7E
3C
ENDCHAR
STARTCHAR D.sc
ENCODING -1
SWIDTH 580 0
DWIDTH 9 0
BBX 8 8 1 0
BITMAP
FC
FE
E6
E7
E7
E6
FE
FC
ENDCHAR
STARTCHAR E.sc
ENCODING -1
SWIDTH 499 0
DWIDTH 8 0
BBX 6 8 1 0
BITMAP
FC
FC
E0
FC
FC
E0
FC
FC
ENDCHAR
STARTCHAR F.sc
ENCODING -1
SWIDTH 476 0
DWIDTH 8 0
BBX 6 8 1 0
BITMAP
FC
FC
E0
FC
FC
E0
E0
E0
ENDCHAR
STARTCHAR G.sc
ENCODING -1
SWIDTH 576 0
DWIDTH 9 0
BBX 7 8 1 0
BITMAP
3C
7E
E4
CE
CE
E6
7E
3E
ENDCHAR
STARTCHAR H.sc
ENCODING -1
SWIDTH 621 0
DWIDTH 10 0
BBX 8 8 1 0
BITMAP
E7
E7
E7
FF
FF
E7
E7
E7
ENDCHAR
STARTCHAR I.sc
ENCODING -1
SWIDTH 301 0
DWIDTH 5 0
BBX 3 8 1 0
BITMAP
E0
E0
E0
E0
E0
E0
E0
E0
ENDCHAR
STARTCHAR J.sc
ENCODING -1
SWIDTH 470 0
DWIDTH 8 0
BBX 6 8 0 0
BITMAP
0C
0C
0C
0C
0C
4C
FC
78
ENDCHAR
STARTCHAR K.sc
ENCODING -1
SWIDTH 555 0
DWIDTH 9 0
BBX 8 8 1 0
BITMAP
E7
EC
F8
F8
FC
EC
E6
E7
ENDCHAR
STARTCHAR L.sc
ENCODING -1
SWIDTH 471 0
DWIDTH 8 0
BBX 6 8 1 0
BITMAP
E0
E0
E0
E0
E0
E0
FC
FC
ENDCHAR
STARTCHAR M.sc
ENCODING -1
SWIDTH 685 0
DWIDTH 11 0
BBX 9 8 1 0
BITMAP
E380
E380
F780
F780
D580
DD80
C980
C180
ENDCHAR
STARTCHAR N.sc
ENCODING -1
SWIDTH 606 0
DWIDTH 10 0
BBX 7 8 1 0
BITMAP
E6
E6
F6
DE
DE
CE
CE
C6
ENDCHAR
STARTCHAR O.sc
ENCODING -1
SWIDTH 616 0
DWIDTH 10 0
BBX 8 8 1 0
BITMAP
3C
FE
E7
C3
C3
E7
7E
3C
ENDCHAR
STARTCHAR P.sc
ENCODING -1
SWIDTH 551 0
DWIDTH 9 0
BBX 7 8 1 0
BITMAP
FC
FE
E6
E6
FE
FC
E0
E0
ENDCHAR
STARTCHAR Q.sc
ENCODING -1
SWIDTH 614 0
DWIDTH 10 0
BBX 8 11 1 -3
BITMAP
3C
FE
E7
C3
C3
E7
FE
7C
1C
0F
07
ENDCHAR
STARTCHAR R.sc
ENCODING -1
SWIDTH 561 0
DWIDTH 9 0
BBX 8 8 1 0
BITMAP
FC
FE
E6
FE
FC
EC
EE
E7
ENDCHAR
STARTCHAR S.sc
ENCODING -1
SWIDTH 504 0
DWIDTH 8 0
BBX 7 8 1 0
BITMAP
78
FC
C8
F8
3C
8E
FC
78
ENDCHAR
STARTCHAR T.sc
ENCODING -1
SWIDTH 491 0
DWIDTH 8 0
BBX 7 8 0 0
BITMAP
FE
FE
18
18
18
18
18
18
ENDCHAR
STARTCHAR U.sc
ENCODING -1
SWIDTH 607 0
DWIDTH 10 0
BBX 8 8 1 0
BITMAP
E7
E7
E7
E7
E7
E6
7E
3C
ENDCHAR
STARTCHAR V.sc
ENCODING -1
SWIDTH 491 0
DWIDTH 8 0
BBX 8 8 0 0
BITMAP
C7
E6
66
66
7C
3C
3C
38
ENDCHAR
STARTCHAR W.sc
ENCODING -1
SWIDTH 717 0
DWIDTH 11 0
BBX 11 8 0 0
BITMAP
E660
6E60
6E60
6F60
6BC0
6BC0
39C0
39C0
ENDCHAR
STARTCHAR X.sc
ENCODING -1
SWIDTH 509 0
DWIDTH 8 0
BBX 8 8 0 0
BITMAP
E7
76
3C
3C
3C
3C
66
E7
ENDCHAR
STARTCHAR Y.sc
ENCODING -1
SWIDTH 467 0
DWIDTH 7 0
BBX 8 8 0 0
BITMAP
E7
66
6C
3C
38
18
18
18
ENDCHAR
STARTCHAR Z.sc
ENCODING -1
SWIDTH 481 0
DWIDTH 8 0
BBX 6 8 1 0
BITMAP
FC
FC
18
30
70
60
FC
FC
ENDCHAR
STARTCHAR Agrave.sc
ENCODING -1
SWIDTH 503 0
DWIDTH 8 0
BBX 8 12 0 0
BITMAP
20
78
18
00
3C
3C
3C
7E
66
7E
FF
E7
ENDCHAR
STARTCHAR Aacute.sc
ENCODING -1
SWIDTH 503 0
DWIDTH 8 0
BBX 8 12 0 0
BITMAP
04
1E
18
00
3C
3C
3C
7E
66
7E
FF
E7
ENDCHAR
STARTCHAR Acircumflex.sc
ENCODING -1
SWIDTH 503 0
DWIDTH 8 0
BBX 8 11 0 0
BITMAP
3C
66
00
3C
3C
3C
7E
66
7E
FF
E7
ENDCHAR
STARTCHAR Atilde.sc
ENCODING -1
SWIDTH 503 0
DWIDTH 8 0
BBX 8 12 0 0
BITMAP
32
7E
4E
00
3C
3C
3C
7E
66
7E
FF
E7
ENDCHAR
STARTCHAR Adieresis.sc
ENCODING -1
SWIDTH 503 0
DWIDTH 8 0
BBX 8 11 0 0
BITMAP
66
66
00
3C
3C
3C
7E
66
7E
FF
E7
ENDCHAR
STARTCHAR Amacron.sc
ENCODING -1
SWIDTH 503 0
DWIDTH 8 0
BBX 8 11 0 0
BITMAP
3C
3C
00
3C
3C
3C
7E
66
7E
FF
E7
ENDCHAR
STARTCHAR Abreve.sc
ENCODING -1
SWIDTH 503 0
DWIDTH 8 0
BBX 8 11 0 0
BITMAP
66
3C
00
3C
3C
3C
7E
66
7E
FF
E7
ENDCHAR
STARTCHAR Aring.sc
ENCODING -1
SWIDTH 503 0
DWIDTH 8 0
BBX 8 12 0 0
BITMAP
18
24
18
00
3C
3C
3C
7E
66
7E
FF
E7
ENDCHAR
STARTCHAR uni01CD.sc
ENCODING -1
SWIDTH 503 0
DWIDTH 8 0
BBX 8 11 0 0
BITMAP
66
3C
00
3C
3C
3C
7E
66
7E
FF
E7
ENDCHAR
STARTCHAR uni1EA0.sc
ENCODING -1
SWIDTH 503 0
DWIDTH 8 0
BBX 8 12 0 -4
BITMAP
3C
3C
3C
7E
66
7E
FF
E7
00
00
18
18
ENDCHAR
STARTCHAR uni1EA2.sc
ENCODING -1
SWIDTH 503 0
DWIDTH 8 0
BBX 8 13 0 0
BITMAP
18
18
0C
18
00
3C
3C
3C
7E
66
7E
FF
E7
ENDCHAR
STARTCHAR uni1EA4.sc
ENCODING -1
SWIDTH 503 0
DWIDTH 8 0
BBX 8 12 0 0
BITMAP
01
1A
2C
24
3C
3C
3C
7E
66
7E
FF
E7
ENDCHAR
STARTCHAR uni1EA6.sc
ENCODING -1
SWIDTH 503 0
DWIDTH 8 0
BBX 8 12 0 0
BITMAP
80
58
2C
24
3C
3C
3C
7E
66
7E
FF
E7
ENDCHAR
STARTCHAR uni1EA8.sc
ENCODING -1
SWIDTH 503 0
DWIDTH 8 0
BBX 8 13 0 0
BITMAP
03
07
1B
2C
24
3C
3C
3C
7E
66
7E
FF
E7
ENDCHAR
STARTCHAR uni1EAA.sc
ENCODING -1
SWIDTH 503 0
DWIDTH 8 0
BBX 8 14 0 0
BITMAP
04
3C
20
18
2C
24
3C
3C
3C
7E
66
7E
FF
E7
ENDCHAR
STARTCHAR uni1EAC.sc
ENCODING -1
SWIDTH 503 0
DWIDTH 8 0
BBX 8 15 0 -4
BITMAP
3C
66
00
3C
3C
3C
7E
66
7E
FF
E7
00
00
18
18
ENDCHAR
STARTCHAR uni1EAE.sc
ENCODING -1
SWIDTH 503 0
DWIDTH 8 0
BBX 8 14 0 0
BITMAP
08
0C
18
66
3C
00
3C
3C
3C
7E
66
7E
FF
E7
ENDCHAR
STARTCHAR uni1EB0.sc
ENCODING -1
SWIDTH 503 0
DWIDTH 8 0
BBX 8 14 0 0
BITMAP
10
30
18
66
3C
00
3C
3C
3C
7E
66
7E
FF
E7
ENDCHAR
STARTCHAR uni1EB2.sc
ENCODING -1
SWIDTH 503 0
DWIDTH 8 0
BBX 8 14 0 0
BITMAP
18
08
18
66
3C
00
3C
3C
3C
7E
66
7E
FF
E7
ENDCHAR
STARTCHAR uni1EB4.sc
ENCODING -1
SWIDTH 503 0
DWIDTH 8 0
BBX 8 14 0 0
BITMAP
04
3C
20
64
3C
00
3C
3C
3C
7E
66
7E
FF
E7
ENDCHAR
STARTCHAR uni1EB6.sc
ENCODING -1
SWIDTH 503 0
DWIDTH 8 0
BBX 8 15 0 -4
BITMAP
66
3C
00
3C
3C
3C
7E
66
7E
FF
E7
00
00
18
18
ENDCHAR
STARTCHAR Aogonek.sc
ENCODING -1
SWIDTH 503 0
DWIDTH 8 0
BBX 9 12 0 -4
BITMAP
3C00
3C00
3C00
6600
7E00
7E00
E700
C300
0200
0600
0700
0780
ENDCHAR
STARTCHAR AE.sc
ENCODING -1
SWIDTH 741 0
DWIDTH 12 0
BBX 11 8 0 0
BITMAP
0FE0
1FE0
1F00
37C0
37C0
7F00
7FE0
E7E0
ENDCHAR
STARTCHAR uni01FC.sc
ENCODING -1
SWIDTH 741 0
DWIDTH 12 0
BBX 11 12 0 0
BITMAP
0080
01C0
0300
0000
0FE0
1FE0
1F00
37C0
37C0
7F00
7FE0
E7E0
ENDCHAR
STARTCHAR uni01E2.sc
ENCODING -1
SWIDTH 741 0
DWIDTH 12 0
BBX 11 11 0 0
BITMAP
07C0
07C0
0000
0FE0
1FE0
1F00
37C0
37C0
7F00
7FE0
E7E0
ENDCHAR
STARTCHAR uni0243.sc
ENCODING -1
SWIDTH 570 0
DWIDTH 9 0
BBX 9 8 0 0
BITMAP
3E00
3F00
3300
3E00
3300
FB80
3F00
3E00
ENDCHAR
STARTCHAR uni1E06.sc
ENCODING -1
SWIDTH 546 0
DWIDTH 9 0
BBX 7 11 1 -3
BITMAP
FC
FE
E6
FC
FE
E6
FE
FC
00
00
7C
ENDCHAR
STARTCHAR Ccedilla.sc
ENCODING -1
SWIDTH 520 0
DWIDTH 8 0
BBX 7 12 1 -4
BITMAP
3C
7E
E4
C0
C0
E4
7E
3C
10
18
08
38
ENDCHAR
STARTCHAR Cacute.sc
ENCODING -1
SWIDTH 520 0
DWIDTH 8 0
BBX 7 12 1 0
BITMAP
04
1E
18
00
3C
7E
E4
C0
C0
E4
7E
3C
ENDCHAR
STARTCHAR Ccircumflex.sc
ENCODING -1
SWIDTH 520 0
DWIDTH 8 0
BBX 7 11 1 0
BITMAP
3C
66
00
3C
7E
E4
C0
C0
E4
7E
3C
ENDCHAR
STARTCHAR Ccaron.sc
ENCODING -1
SWIDTH 520 0
DWIDTH 8 0
BBX 7 11 1 0
BITMAP
66
3C
00
3C
7E
E4
C0
C0
E4
7E
3C
ENDCHAR
STARTCHAR Cdotaccent.sc
ENCODING -1
SWIDTH 520 0
DWIDTH 8 0
BBX 7 11 1 0
BITMAP
18
18
00
3C
7E
E4
C0
C0
E4
7E
3C
ENDCHAR
STARTCHAR Dcaron.sc
ENCODING -1
SWIDTH 580 0
DWIDTH 9 0
BBX 8 11 1 0
BITMAP
64
3C
00
FC
FE
E6
E7
E7
E6
FE
FC
ENDCHAR
STARTCHAR uni1E0C.sc
ENCODING -1
SWIDTH 580 0
DWIDTH 9 0
BBX 8 12 1 -4
BITMAP
FC
FE
E6
E7
E7
E6
FE
FC
00
00
18
38
ENDCHAR
STARTCHAR uni1E0E.sc
ENCODING -1
SWIDTH 580 0
DWIDTH 9 0
BBX 8 11 1 -3
BITMAP
FC
FE
E6
E7
E7
E6
FE
FC
00
00
7C
ENDCHAR
STARTCHAR Dcroat.sc
ENCODING -1
SWIDTH 604 0
DWIDTH 10 0
BBX 9 8 0 0
BITMAP
3E00
3F00
3380
FB80
3380
3380
3F00
3E00
ENDCHAR
STARTCHAR Egrave.sc
ENCODING -1
SWIDTH 499 0
DWIDTH 8 0
BBX 6 12 1 0
BITMAP
40
70
18
00
FC
FC
E0
FC
FC
E0
FC
FC
ENDCHAR
STARTCHAR Eacute.sc
ENCODING -1
SWIDTH 499 0
DWIDTH 8 0
BBX 6 12 1 0
BITMAP
08
1C
30
00
FC
FC
E0
FC
FC
E0
FC
FC
ENDCHAR
STARTCHAR Ecircumflex.sc
ENCODING -1
SWIDTH 499 0
DWIDTH 8 0
BBX 6 11 1 0
BITMAP
38
4C
00
FC
FC
E0
FC
FC
E0
FC
FC
ENDCHAR
STARTCHAR Ecaron.sc
ENCODING -1
SWIDTH 499 0
DWIDTH 8 0
BBX 6 11 1 0
BITMAP
4C
38
00
FC
FC
E0
FC
FC
E0
FC
FC
ENDCHAR
STARTCHAR Edieresis.sc
ENCODING -1
SWIDTH 499 0
DWIDTH 8 0
BBX 6 11 1 0
BITMAP
6C
EC
00
FC
FC
E0
FC
FC
E0
FC
FC
ENDCHAR
STARTCHAR Emacron.sc
ENCODING -1
SWIDTH 499 0
DWIDTH 8 0
BBX 6 11 1 0
BITMAP
7C
7C
00
FC
FC
E0
FC
FC
E0
FC
FC
ENDCHAR
STARTCHAR Ebreve.sc
ENCODING -1
SWIDTH 499 0
DWIDTH 8 0
BBX 6 11 1 0
BITMAP
4C
78
00
FC
FC
E0
FC
FC
E0
FC
FC
ENDCHAR
STARTCHAR Edotaccent.sc
ENCODING -1
SWIDTH 499 0
DWIDTH 8 0
BBX 6 11 1 0
BITMAP
30
38
00
FC
FC
E0
FC
FC
E0
FC
FC
ENDCHAR
STARTCHAR uni1EB8.sc
ENCODING -1
SWIDTH 499 0
DWIDTH 8 0
BBX 6 12 1 -4
BITMAP
FC
FC
E0
FC
FC
E0
FC
FC
00
00
30
38
ENDCHAR
STARTCHAR uni1EBA.sc
ENCODING -1
SWIDTH 499 0
DWIDTH 8 0
BBX 6 13 1 0
BITMAP
30
38
18
30
00
FC
FC
E0
FC
FC
E0
FC
FC
ENDCHAR
STARTCHAR uni1EBC.sc
ENCODING -1
SWIDTH 499 0
DWIDTH 8 0
BBX 6 12 1 0
BITMAP
64
FC
DC
00
FC
FC
E0
FC
FC
E0
FC
FC
ENDCHAR
STARTCHAR uni1EBE.sc
ENCODING -1
SWIDTH 499 0
DWIDTH 8 0
BBX 7 12 1 0
BITMAP
02
3C
68
4C
FC
FC
E0
FC
FC
E0
FC
FC
ENDCHAR
STARTCHAR uni1EC0.sc
ENCODING -1
SWIDTH 499 0
DWIDTH 8 0
BBX 7 12 0 0
BITMAP
40
FC
34
26
7E
7E
70
7E
7E
70
7E
7E
ENDCHAR
STARTCHAR uni1EC2.sc
ENCODING -1
SWIDTH 499 0
DWIDTH 8 0
BBX 7 13 1 0
BITMAP
06
02
3E
68
4C
FC
FC
E0
FC
FC
E0
FC
FC
ENDCHAR
STARTCHAR uni1EC4.sc
ENCODING -1
SWIDTH 499 0
DWIDTH 8 0
BBX 6 14 1 0
BITMAP
04
78
40
38
68
4C
FC
FC
E0
FC
FC
E0
FC
FC
ENDCHAR
STARTCHAR uni1EC6.sc
ENCODING -1
SWIDTH 499 0
DWIDTH 8 0
BBX 6 15 1 -4
BITMAP
38
4C
00
FC
FC
E0
FC
FC
E0
FC
FC
00
00
30
38
ENDCHAR
STARTCHAR Eogonek.sc
ENCODING -1
SWIDTH 499 0
DWIDTH 8 0
BBX 6 12 1 -4
BITMAP
FC
FC
E0
FC
FC
E0
FC
FC
08
18
1C
1C
ENDCHAR
STARTCHAR uni1E16.sc
ENCODING -1
SWIDTH 499 0
DWIDTH 8 0
BBX 6 15 1 0
BITMAP
08
38
30
00
7C
7C
00
FC
FC
E0
FC
FC
E0
FC
FC
ENDCHAR
STARTCHAR uni01F4.sc
ENCODING -1
SWIDTH 576 0
DWIDTH 9 0
BBX 7 12 1 0
BITMAP
04
0E
18
00
3C
7E
E4
CE
CE
E6
7E
3E
ENDCHAR
STARTCHAR Gcircumflex.sc
ENCODING -1
SWIDTH 576 0
DWIDTH 9 0
BBX 7 11 1 0
BITMAP
3C
66
00
3C
7E
E4
CE
CE
E6
7E
3E
ENDCHAR
STARTCHAR Gbreve.sc
ENCODING -1
SWIDTH 576 0
DWIDTH 9 0
BBX 7 11 1 0
BITMAP
26
3C
00
3C
7E
E4
CE
CE
E6
7E
3E
ENDCHAR
STARTCHAR Gdotaccent.sc
ENCODING -1
SWIDTH 576 0
DWIDTH 9 0
BBX 7 11 1 0
BITMAP
18
18
00
3C
7E
E4
CE
CE
E6
7E
3E
ENDCHAR
STARTCHAR uni0122.sc
ENCODING -1
SWIDTH 576 0
DWIDTH 9 0
BBX 7 12 1 -4
BITMAP
3C
7E
E4
CE
CE
E6
7E
3E
00
18
0C
38
ENDCHAR
STARTCHAR Gcaron.sc
ENCODING -1
SWIDTH 576 0
DWIDTH 9 0
BBX 7 11 1 0
BITMAP
66
3C
00
3C
7E
E4
CE
CE
E6
7E
3E
ENDCHAR
STARTCHAR uni1E20.sc
ENCODING -1
SWIDTH 576 0
DWIDTH 9 0
BBX 7 11 1 0
BITMAP
3E
3E
00
3C
7E
E4
CE
CE
E6
7E
3E
ENDCHAR
STARTCHAR uni00470303.sc
ENCODING -1
SWIDTH 576 0
DWIDTH 9 0
BBX 7 12 1 0
BITMAP
32
7E
6E
00
3C
7E
E4
CE
CE
E6
7E
3E
ENDCHAR
STARTCHAR uni0193.sc
ENCODING -1
SWIDTH 576 0
DWIDTH 9 0
BBX 8 11 1 0
BITMAP
03
07
06
3E
7E
E0
C0
CE
EE
7E
3E
ENDCHAR
STARTCHAR Hcircumflex.sc
ENCODING -1
SWIDTH 621 0
DWIDTH 10 0
BBX 8 11 1 0
BITMAP
3C
66
00
E7
E7
E7
FF
FF
E7
E7
E7
ENDCHAR
STARTCHAR uni1E24.sc
ENCODING -1
SWIDTH 621 0
DWIDTH 10 0
BBX 8 12 1 -4
BITMAP
E7
E7
E7
FF
FF
E7
E7
E7
00
00
18
18
ENDCHAR
STARTCHAR uni1E2A.sc
ENCODING -1
SWIDTH 621 0
DWIDTH 10 0
BBX 8 12 1 -4
BITMAP
E7
E7
E7
FF
FF
E7
E7
E7
00
00
66
3C
ENDCHAR
STARTCHAR Hbar.sc
ENCODING -1
SWIDTH 660 0
DWIDTH 11 0
BBX 10 8 0 0
BITMAP
3180
FFC0
3180
3F80
3F80
3180
3180
3180
ENDCHAR
STARTCHAR Igrave.sc
ENCODING -1
SWIDTH 301 0
DWIDTH 5 0
BBX 4 12 0 0
BITMAP
C0
E0
30
00
70
70
70
70
70
70
70
70
ENDCHAR
STARTCHAR Iacute.sc
ENCODING -1
SWIDTH 301 0
DWIDTH 5 0
BBX 4 12 1 0
BITMAP
20
70
C0
00
E0
E0
E0
E0
E0
E0
E0
E0
ENDCHAR
STARTCHAR Icircumflex.sc
ENCODING -1
SWIDTH 301 0
DWIDTH 5 0
BBX 5 11 0 0
BITMAP
70
98
00
70
70
70
70
70
70
70
70
ENDCHAR
STARTCHAR Itilde.sc
ENCODING -1
SWIDTH 301 0
DWIDTH 5 0
BBX 7 12 -1 0
BITMAP
66
FC
DC
00
38
38
38
38
38
38
38
38
ENDCHAR
STARTCHAR Idieresis.sc
ENCODING -1
SWIDTH 301 0
DWIDTH 5 0
BBX 5 11 0 0
BITMAP
D8
D8
00
70
70
70
70
70
70
70
70
ENDCHAR
STARTCHAR Imacron.sc
ENCODING -1
SWIDTH 301 0
DWIDTH 5 0
BBX 5 11 0 0
BITMAP
F8
F8
00
70
70
70
70
70
70
70
70
ENDCHAR
STARTCHAR Idotaccent.sc
ENCODING -1
SWIDTH 301 0
DWIDTH 5 0
BBX 3 11 1 0
BITMAP
E0
E0
00
E0
E0
E0
E0
E0
E0
E0
E0
ENDCHAR
STARTCHAR uni01CF.sc
ENCODING -1
SWIDTH 301 0
DWIDTH 5 0
BBX 5 11 0 0
BITMAP
98
70
00
70
70
70
70
70
70
70
70
ENDCHAR
STARTCHAR uni1EC8.sc
ENCODING -1
SWIDTH 301 0
DWIDTH 5 0
BBX 3 13 1 0
BITMAP
C0
E0
60
40
00
E0
E0
E0
E0
E0
E0
E0
E0
ENDCHAR
STARTCHAR uni1ECA.sc
ENCODING -1
SWIDTH 301 0
DWIDTH 5 0
BBX 3 12 1 -4
BITMAP
E0
E0
E0
E0
E0
E0
E0
E0
00
00
E0
E0
ENDCHAR
STARTCHAR Iogonek.sc
ENCODING -1
SWIDTH 301 0
DWIDTH 5 0
BBX 3 12 1 -4
BITMAP
E0
E0
E0
E0
E0
E0
E0
E0
C0
80
E0
E0
ENDCHAR
STARTCHAR uni012C.sc
ENCODING -1
SWIDTH 301 0
DWIDTH 5 0
BBX 5 11 0 0
BITMAP
88
70
00
70
70
70
70
70
70
70
70
ENDCHAR
STARTCHAR Jcircumflex.sc
ENCODING -1
SWIDTH 470 0
DWIDTH 8 0
BBX 8 11 0 0
BITMAP
1E
33
00
0C
0C
0C
0C
0C
4C
FC
78
ENDCHAR
STARTCHAR uni0136.sc
ENCODING -1
SWIDTH 555 0
DWIDTH 9 0
BBX 8 12 1 -4
BITMAP
E7
EC
F8
F8
FC
EC
E6
E7
00
18
0C
38
ENDCHAR
STARTCHAR uni1E32.sc
ENCODING -1
SWIDTH 555 0
DWIDTH 9 0
BBX 8 12 1 -4
BITMAP
E7
EC
F8
F8
FC
EC
E6
E7
00
00
18
18
ENDCHAR
STARTCHAR uni1E34.sc
ENCODING -1
SWIDTH 555 0
DWIDTH 9 0
BBX 8 11 1 -3
BITMAP
E7
EC
F8
F8
FC
EC
E6
E7
00
00
3C
ENDCHAR
STARTCHAR Lacute.sc
ENCODING -1
SWIDTH 471 0
DWIDTH 8 0
BBX 6 12 1 0
BITMAP
20
70
C0
00
E0
E0
E0
E0
E0
E0
FC
FC
ENDCHAR
STARTCHAR Lcaron.sc
ENCODING -1
SWIDTH 471 0
DWIDTH 8 0
BBX 6 11 1 0
BITMAP
0C
0C
0C
E8
E0
E0
E0
E0
E0
FC
FC
ENDCHAR
STARTCHAR uni013B.sc
ENCODING -1
SWIDTH 471 0
DWIDTH 8 0
BBX 6 12 1 -4
BITMAP
E0
E0
E0
E0
E0
E0
FC
FC
00
30
18
70
ENDCHAR
STARTCHAR Ldot.sc
ENCODING -1
SWIDTH 471 0
DWIDTH 8 0
BBX 7 8 1 0
BITMAP
E0
EC
EE
EC
E0
E0
FC
FC
ENDCHAR
STARTCHAR uni1E36.sc
ENCODING -1
SWIDTH 471 0
DWIDTH 8 0
BBX 6 12 1 -4
BITMAP
E0
E0
E0
E0
E0
E0
FC
FC
00
00
30
38
ENDCHAR
STARTCHAR uni1E38.sc
ENCODING -1
SWIDTH 471 0
DWIDTH 8 0
BBX 7 15 0 -4
BITMAP
F8
F8
00
70
70
70
70
70
70
7E
7E
00
00
18
1C
ENDCHAR
STARTCHAR uni1E3A.sc
ENCODING -1
SWIDTH 471 0
DWIDTH 8 0
BBX 6 11 1 -3
BITMAP
E0
E0
E0
E0
E0
E0
FC
FC
00
00
7C
ENDCHAR
STARTCHAR Lslash.sc
ENCODING -1
SWIDTH 471 0
DWIDTH 8 0
BBX 7 8 0 0
BITMAP
70
70
74
7E
F0
F0
7E
7E
ENDCHAR
STARTCHAR uni1E3E.sc
ENCODING -1
SWIDTH 685 0
DWIDTH 11 0
BBX 9 12 1 0
BITMAP
0400
0E00
1800
0000
E380
E380
F780
F780
D580
DD80
C980
C180
ENDCHAR
STARTCHAR uni1E40.sc
ENCODING -1
SWIDTH 685 0
DWIDTH 11 0
BBX 9 11 1 0
BITMAP
1C00
1C00
0000
E380
E380
F780
F780
D580
DD80
C980
C180
ENDCHAR
STARTCHAR uni1E42.sc
ENCODING -1
SWIDTH 685 0
DWIDTH 11 0
BBX 9 12 1 -4
BITMAP
E380
E380
F780
F780
D580
DD80
C980
C180
0000
0000
1C00
1C00
ENDCHAR
STARTCHAR Nacute.sc
ENCODING -1
SWIDTH 606 0
DWIDTH 10 0
BBX 7 12 1 0
BITMAP
04
1E
18
00
E6
E6
F6
DE
DE
CE
CE
C6
ENDCHAR
STARTCHAR uni01F8.sc
ENCODING -1
SWIDTH 606 0
DWIDTH 10 0
BBX 7 12 1 0
BITMAP
20
78
18
00
E6
E6
F6
DE
DE
CE
CE
C6
ENDCHAR
STARTCHAR Ncaron.sc
ENCODING -1
SWIDTH 606 0
DWIDTH 10 0
BBX 7 11 1 0
BITMAP
66
3C
00
E6
E6
F6
DE
DE
CE
CE
C6
ENDCHAR
STARTCHAR Ntilde.sc
ENCODING -1
SWIDTH 606 0
DWIDTH 10 0
BBX 7 12 1 0
BITMAP
32
7E
4E
00
E6
E6
F6
DE
DE
CE
CE
C6
ENDCHAR
STARTCHAR uni0145.sc
ENCODING -1
SWIDTH 606 0
DWIDTH 10 0
BBX 7 12 1 -4
BITMAP
E6
E6
F6
DE
DE
CE
CE
C6
00
18
08
38
ENDCHAR
STARTCHAR uni1E44.sc
ENCODING -1
SWIDTH 606 0
DWIDTH 10 0
BBX 7 11 1 0
BITMAP
18
18
00
E6
E6
F6
DE
DE
CE
CE
C6
ENDCHAR
STARTCHAR uni1E46.sc
ENCODING -1
SWIDTH 606 0
DWIDTH 10 0
BBX 7 12 1 -4
BITMAP
E6
E6
F6
DE
DE
CE
CE
C6
00
00
18
18
ENDCHAR
STARTCHAR uni1E48.sc
ENCODING -1
SWIDTH 606 0
DWIDTH 10 0
BBX 7 11 1 -3
BITMAP
E6
E6
F6
DE
DE
CE
CE
C6
00
00
3C
ENDCHAR
STARTCHAR Ograve.sc
ENCODING -1
SWIDTH 616 0
DWIDTH 10 0
BBX 8 12 1 0
BITMAP
20
78
18
00
3C
FE
E7
C3
C3
E7
7E
3C
ENDCHAR
STARTCHAR Oacute.sc
ENCODING -1
SWIDTH 616 0
DWIDTH 10 0
BBX 8 12 1 0
BITMAP
04
1E
18
00
3C
FE
E7
C3
C3
E7
7E
3C
ENDCHAR
STARTCHAR Ocircumflex.sc
ENCODING -1
SWIDTH 616 0
DWIDTH 10 0
BBX 8 11 1 0
BITMAP
3C
66
00
3C
FE
E7
C3
C3
E7
7E
3C
ENDCHAR
STARTCHAR Otilde.sc
ENCODING -1
SWIDTH 616 0
DWIDTH 10 0
BBX 8 12 1 0
BITMAP
32
7E
4E
00
3C
FE
E7
C3
C3
E7
7E
3C
ENDCHAR
STARTCHAR Odieresis.sc
ENCODING -1
SWIDTH 616 0
DWIDTH 10 0
BBX 8 11 1 0
BITMAP
66
66
00
3C
FE
E7
C3
C3
E7
7E
3C
ENDCHAR
STARTCHAR Omacron.sc
ENCODING -1
SWIDTH 616 0
DWIDTH 10 0
BBX 8 11 1 0
BITMAP
3C
3C
00
3C
FE
E7
C3
C3
E7
7E
3C
ENDCHAR
STARTCHAR Ohungarumlaut.sc
ENCODING -1
SWIDTH 616 0
DWIDTH 10 0
BBX 8 12 1 0
BITMAP
12
3F
24
00
3C
FE
E7
C3
C3
E7
7E
3C
ENDCHAR
STARTCHAR uni01D1.sc
ENCODING -1
SWIDTH 616 0
DWIDTH 10 0
BBX 8 11 1 0
BITMAP
66
3C
00
3C
FE
E7
C3
C3
E7
7E
3C
ENDCHAR
STARTCHAR uni1ECC.sc
ENCODING -1
SWIDTH 616 0
DWIDTH 10 0
BBX 8 12 1 -4
BITMAP
3C
FE
E7
C3
C3
E7
7E
3C
00
00
18
18
ENDCHAR
STARTCHAR uni1ECE.sc
ENCODING -1
SWIDTH 616 0
DWIDTH 10 0
BBX 8 13 1 0
BITMAP
18
18
28
18
00
3C
FE
E7
C3
C3
E7
7E
3C
ENDCHAR
STARTCHAR uni1ED0.sc
ENCODING -1
SWIDTH 616 0
DWIDTH 10 0
BBX 8 12 1 0
BITMAP
01
1A
2C
64
3C
FE
E7
C3
C3
E7
7E
3C
ENDCHAR
STARTCHAR uni1ED2.sc
ENCODING -1
SWIDTH 616 0
DWIDTH 10 0
BBX 8 12 1 0
BITMAP
80
58
2C
64
3C
FE
E7
C3
C3
E7
7E
3C
ENDCHAR
STARTCHAR uni1ED4.sc
ENCODING -1
SWIDTH 616 0
DWIDTH 10 0
BBX 8 13 1 0
BITMAP
03
07
1B
2C
64
3C
FE
E7
C3
C3
E7
7E
3C
ENDCHAR
STARTCHAR uni1ED6.sc
ENCODING -1
SWIDTH 616 0
DWIDTH 10 0
BBX 8 14 1 0
BITMAP
04
3C
60
18
2C
64
3C
FE
E7
C3
C3
E7
7E
3C
ENDCHAR
STARTCHAR uni1ED8.sc
ENCODING -1
SWIDTH 616 0
DWIDTH 10 0
BBX 8 15 1 -4
BITMAP
3C
66
00
3C
FE
E7
C3
C3
E7
7E
3C
00
00
18
18
ENDCHAR
STARTCHAR Oslash.sc
ENCODING -1
SWIDTH 616 0
DWIDTH 10 0
BBX 8 8 1 0
BITMAP
3D
FE
E7
CB
D3
E7
7E
BC
ENDCHAR
STARTCHAR OE.sc
ENCODING -1
SWIDTH 766 0
DWIDTH 12 0
BBX 10 8 1 0
BITMAP
3FC0
FFC0
E600
C7C0
C7C0
E600
FFC0
3FC0
ENDCHAR
STARTCHAR Ohorn.sc
ENCODING -1
SWIDTH 616 0
DWIDTH 10 0
BBX 9 11 1 0
BITMAP
0100
0180
0180
3F00
FE00
E700
C300
C300
E700
7E00
3C00
ENDCHAR
STARTCHAR uni1EDA.sc
ENCODING -1
SWIDTH 616 0
DWIDTH 10 0
BBX 9 12 1 0
BITMAP
0400
1F00
1980
0180
3F00
FE00
E700
C300
C300
E700
7E00
3C00
ENDCHAR
STARTCHAR uni1EDC.sc
ENCODING -1
SWIDTH 616 0
DWIDTH 10 0
BBX 9 12 1 0
BITMAP
2000
7900
1980
0180
3F00
FE00
E700
C300
C300
E700
7E00
3C00
ENDCHAR
STARTCHAR uni1EDE.sc
ENCODING -1
SWIDTH 616 0
DWIDTH 10 0
BBX 9 13 1 0
BITMAP
1800
1800
2900
1980
0180
3F00
FE00
E700
C300
C300
E700
7E00
3C00
ENDCHAR
STARTCHAR uni1EE0.sc
ENCODING -1
SWIDTH 616 0
DWIDTH 10 0
BBX 9 12 1 0
BITMAP
7600
7F00
DD80
0180
3F00
FE00
E700
C300
C300
E700
7E00
3C00
ENDCHAR
STARTCHAR uni1EE2.sc
ENCODING -1
SWIDTH 616 0
DWIDTH 10 0
BBX 9 15 1 -4
BITMAP
0100
0180
0180
3F00
FE00
E700
C300
C300
E700
7E00
3C00
0000
0000
1800
1800
ENDCHAR
STARTCHAR uni01EA.sc
ENCODING -1
SWIDTH 616 0
DWIDTH 10 0
BBX 8 12 1 -4
BITMAP
3C
FE
E7
C3
C3
E7
FE
3C
18
10
1C
1C
ENDCHAR
STARTCHAR uni014E.sc
ENCODING -1
SWIDTH 616 0
DWIDTH 10 0
BBX 8 11 1 0
BITMAP
66
3C
00
3C
FE
E7
C3
C3
E7
7E
3C
ENDCHAR
STARTCHAR uni1E52.sc
ENCODING -1
SWIDTH 616 0
DWIDTH 10 0
BBX 8 15 1 0
BITMAP
08
1C
10
00
3C
3C
00
3C
FE
E7
C3
C3
E7
7E
3C
ENDCHAR
STARTCHAR Racute.sc
ENCODING -1
SWIDTH 561 0
DWIDTH 9 0
BBX 8 12 1 0
BITMAP
04
1E
10
00
FC
FE
E6
FE
FC
EC
EE
E7
ENDCHAR
STARTCHAR uni1E58.sc
ENCODING -1
SWIDTH 561 0
DWIDTH 9 0
BBX 8 11 1 0
BITMAP
18
38
00
FC
FE
E6
FE
FC
EC
EE
E7
ENDCHAR
STARTCHAR Rcaron.sc
ENCODING -1
SWIDTH 561 0
DWIDTH 9 0
BBX 8 11 1 0
BITMAP
64
3E
00
FC
FE
E6
FE
FC
EC
EE
E7
ENDCHAR
STARTCHAR uni0156.sc
ENCODING -1
SWIDTH 561 0
DWIDTH 9 0
BBX 8 12 1 -4
BITMAP
FC
FE
E6
FE
FC
EC
EE
E6
01
18
08
38
ENDCHAR
STARTCHAR uni1E5A.sc
ENCODING -1
SWIDTH 561 0
DWIDTH 9 0
BBX 8 12 1 -4
BITMAP
FC
FE
E6
FE
FC
EC
EE
E6
01
00
18
18
ENDCHAR
STARTCHAR uni1E5C.sc
ENCODING -1
SWIDTH 561 0
DWIDTH 9 0
BBX 8 15 1 -4
BITMAP
7C
7C
00
FC
FE
E6
FE
FC
EC
EE
E6
01
00
18
18
ENDCHAR
STARTCHAR uni1E5E.sc
ENCODING -1
SWIDTH 561 0
DWIDTH 9 0
BBX 8 11 1 -3
BITMAP
FC
FE
E6
FE
FC
EC
EE
E6
01
00
7C
ENDCHAR
STARTCHAR Sacute.sc
ENCODING -1
SWIDTH 504 0
DWIDTH 8 0
BBX 7 12 1 0
BITMAP
08
1C
30
00
78
FC
C8
F8
3C
8E
FC
78
ENDCHAR
STARTCHAR Scircumflex.sc
ENCODING -1
SWIDTH 504 0
DWIDTH 8 0
BBX 7 11 1 0
BITMAP
38
4C
00
78
FC
C8
F8
3C
8E
FC
78
ENDCHAR
STARTCHAR Scaron.sc
ENCODING -1
SWIDTH 504 0
DWIDTH 8 0
BBX 7 11 1 0
BITMAP
4C
38
00
78
FC
C8
F8
3C
8E
FC
78
ENDCHAR
STARTCHAR uni015E.sc
ENCODING -1
SWIDTH 504 0
DWIDTH 8 0
BBX 7 12 1 -4
BITMAP
78
FC
C8
F8
3C
8E
FC
78
30
30
18
70
ENDCHAR
STARTCHAR uni0218.sc
ENCODING -1
SWIDTH 504 0
DWIDTH 8 0
BBX 7 12 1 -4
BITMAP
78
FC
C8
F8
3C
8E
FC
78
00
30
18
30
ENDCHAR
STARTCHAR uni1E60.sc
ENCODING -1
SWIDTH 504 0
DWIDTH 8 0
BBX 7 11 1 0
BITMAP
38
38
00
78
FC
C8
F8
3C
8E
FC
78
ENDCHAR
STARTCHAR uni1E62.sc
ENCODING -1
SWIDTH 504 0
DWIDTH 8 0
BBX 7 12 1 -4
BITMAP
78
FC
C8
F8
3C
8E
FC
78
00
00
30
38
ENDCHAR
STARTCHAR uni1E9E.sc
ENCODING -1
SWIDTH 636 0
DWIDTH 10 0
BBX 9 8 1 0
BITMAP
3C00
7E00
E300
EE00
EF00
E380
FF00
EF00
ENDCHAR
STARTCHAR Tcaron.sc
ENCODING -1
SWIDTH 491 0
DWIDTH 8 0
BBX 7 11 0 0
BITMAP
66
3C
00
FE
FE
18
18
18
18
18
18
ENDCHAR
STARTCHAR uni0162.sc
ENCODING -1
SWIDTH 491 0
DWIDTH 8 0
BBX 7 12 0 -4
BITMAP
FE
FE
18
18
18
18
18
18
10
18
08
38
ENDCHAR
STARTCHAR uni021A.sc
ENCODING -1
SWIDTH 491 0
DWIDTH 8 0
BBX 7 12 0 -4
BITMAP
FE
FE
18
18
18
18
18
18
00
18
08
38
ENDCHAR
STARTCHAR uni1E6C.sc
ENCODING -1
SWIDTH 491 0
DWIDTH 8 0
BBX 7 12 0 -4
BITMAP
FE
FE
18
18
18
18
18
18
00
00
18
18
ENDCHAR
STARTCHAR uni1E6E.sc
ENCODING -1
SWIDTH 491 0
DWIDTH 8 0
BBX 7 11 0 -3
BITMAP
FE
FE
18
18
18
18
18
18
00
00
3C
ENDCHAR
STARTCHAR uni0166.sc
ENCODING -1
SWIDTH 491 0
DWIDTH 8 0
BBX 7 8 0 0
BITMAP
FE
FE
18
18
7E
18
18
18
ENDCHAR
STARTCHAR Ugrave.sc
ENCODING -1
SWIDTH 607 0
DWIDTH 10 0
BBX 8 12 1 0
BITMAP
20
70
18
00
E7
E7
E7
E7
E7
E6
7E
3C
ENDCHAR
STARTCHAR Uacute.sc
ENCODING -1
SWIDTH 607 0
DWIDTH 10 0
BBX 8 12 1 0
BITMAP
04
1E
18
00
E7
E7
E7
E7
E7
E6
7E
3C
ENDCHAR
STARTCHAR Ucircumflex.sc
ENCODING -1
SWIDTH 607 0
DWIDTH 10 0
BBX 8 11 1 0
BITMAP
3C
66
00
E7
E7
E7
E7
E7
E6
7E
3C
ENDCHAR
STARTCHAR Utilde.sc
ENCODING -1
SWIDTH 607 0
DWIDTH 10 0
BBX 8 12 1 0
BITMAP
76
7E
5C
00
E7
E7
E7
E7
E7
E6
7E
3C
ENDCHAR
STARTCHAR Udieresis.sc
ENCODING -1
SWIDTH 607 0
DWIDTH 10 0
BBX 8 11 1 0
BITMAP
66
6E
00
E7
E7
E7
E7
E7
E6
7E
3C
ENDCHAR
STARTCHAR Umacron.sc
ENCODING -1
SWIDTH 607 0
DWIDTH 10 0
BBX 8 11 1 0
BITMAP
7C
7C
00
E7
E7
E7
E7
E7
E6
7E
3C
ENDCHAR
STARTCHAR Ubreve.sc
ENCODING -1
SWIDTH 607 0
DWIDTH 10 0
BBX 8 11 1 0
BITMAP
64
3C
00
E7
E7
E7
E7
E7
E6
7E
3C
ENDCHAR
STARTCHAR Uring.sc
ENCODING -1
SWIDTH 607 0
DWIDTH 10 0
BBX 8 12 1 0
BITMAP
38
24
38
00
E7
E7
E7
E7
E7
E6
7E
3C
ENDCHAR
STARTCHAR Uhungarumlaut.sc
ENCODING -1
SWIDTH 607 0
DWIDTH 10 0
BBX 8 12 1 0
BITMAP
12
3F
24
00
E7
E7
E7
E7
E7
E6
7E
3C
ENDCHAR
STARTCHAR uni01D3.sc
ENCODING -1
SWIDTH 607 0
DWIDTH 10 0
BBX 8 11 1 0
BITMAP
66
3C
00
E7
E7
E7
E7
E7
E6
7E
3C
ENDCHAR
STARTCHAR uni01D5.sc
ENCODING -1
SWIDTH 607 0
DWIDTH 10 0
BBX 8 13 1 0
BITMAP
7C
00
64
66
00
E7
E7
E7
E7
E7
E6
7E
3C
ENDCHAR
STARTCHAR uni01D7.sc
ENCODING -1
SWIDTH 607 0
DWIDTH 10 0
BBX 8 14 1 0
BITMAP
08
0C
10
64
66
00
E7
E7
E7
E7
E7
E6
7E
3C
ENDCHAR
STARTCHAR uni01D9.sc
ENCODING -1
SWIDTH 607 0
DWIDTH 10 0
BBX 8 15 1 0
BITMAP
44
2C
38
00
64
66
00
E7
E7
E7
E7
E7
E6
7E
3C
ENDCHAR
STARTCHAR uni01DB.sc
ENCODING -1
SWIDTH 607 0
DWIDTH 10 0
BBX 8 14 1 0
BITMAP
30
30
18
64
66
00
E7
E7
E7
E7
E7
E6
7E
3C
ENDCHAR
STARTCHAR uni1EE4.sc
ENCODING -1
SWIDTH 607 0
DWIDTH 10 0
BBX 8 12 1 -4
BITMAP
E7
E7
E7
E7
E7
E6
7E
3C
00
00
18
18
ENDCHAR
STARTCHAR uni1EE6.sc
ENCODING -1
SWIDTH 607 0
DWIDTH 10 0
BBX 8 13 1 0
BITMAP
18
38
08
18
00
E7
E7
E7
E7
E7
E6
7E
3C
ENDCHAR
STARTCHAR Uogonek.sc
ENCODING -1
SWIDTH 607 0
DWIDTH 10 0
BBX 8 11 1 -3
BITMAP
E7
E7
E7
E7
E7
E6
7E
3C
10
30
1C
ENDCHAR
STARTCHAR Uhorn.sc
ENCODING -1
SWIDTH 625 0
DWIDTH 10 0
BBX 10 11 1 0
BITMAP
0080
01C0
00C0
E780
E700
E700
E700
E700
E600
7E00
3C00
ENDCHAR
STARTCHAR uni1EE8.sc
ENCODING -1
SWIDTH 625 0
DWIDTH 10 0
BBX 10 12 1 0
BITMAP
0400
1E80
19C0
00C0
E780
E700
E700
E700
E700
E600
7E00
3C00
ENDCHAR
STARTCHAR uni1EEA.sc
ENCODING -1
SWIDTH 625 0
DWIDTH 10 0
BBX 10 12 1 0
BITMAP
2000
7080
19C0
00C0
E780
E700
E700
E700
E700
E600
7E00
3C00
ENDCHAR
STARTCHAR uni1EEC.sc
ENCODING -1
SWIDTH 625 0
DWIDTH 10 0
BBX 10 13 1 0
BITMAP
1800
3800
0880
19C0
00C0
E780
E700
E700
E700
E700
E600
7E00
3C00
ENDCHAR
STARTCHAR uni1EEE.sc
ENCODING -1
SWIDTH 625 0
DWIDTH 10 0
BBX 10 12 1 0
BITMAP
7600
7E80
5DC0
00C0
E780
E700
E700
E700
E700
E600
7E00
3C00
ENDCHAR
STARTCHAR uni1EF0.sc
ENCODING -1
SWIDTH 625 0
DWIDTH 10 0
BBX 10 15 1 -4
BITMAP
0080
01C0
00C0
E780
E700
E700
E700
E700
E600
7E00
3C00
0000
0000
1800
1800
ENDCHAR
STARTCHAR Wgrave.sc
ENCODING -1
SWIDTH 717 0
DWIDTH 11 0
BBX 11 12 0 0
BITMAP
0800
1C00
0600
0000
E660
6E60
6E60
6F60
6BC0
6BC0
39C0
39C0
ENDCHAR
STARTCHAR Wacute.sc
ENCODING -1
SWIDTH 717 0
DWIDTH 11 0
BBX 11 12 0 0
BITMAP
0100
0780
0400
0000
E660
6E60
6E60
6F60
6BC0
6BC0
39C0
39C0
ENDCHAR
STARTCHAR Wcircumflex.sc
ENCODING -1
SWIDTH 717 0
DWIDTH 11 0
BBX 11 11 0 0
BITMAP
0F00
1900
0000
E660
6E60
6E60
6F60
6BC0
6BC0
39C0
39C0
ENDCHAR
ENDFONT
